<?xml version="1.0" encoding="UTF-8" standalone="no"?>
<!-- Created with Inkscape (http://www.inkscape.org/) -->

<svg
   width="119"
   height="119"
   viewBox="0 0 31.485419 31.485417"
   version="1.1"
   id="svg1"
   sodipodi:docname="favicon.svg"
   inkscape:version="1.4.4 (dcaf3e7d9e, 2026-05-05)"
   inkscape:export-filename="Logotipo -  Alas Carbon y Cerdo.pdf"
   inkscape:export-xdpi="96"
   inkscape:export-ydpi="96"
   xmlns:inkscape="http://www.inkscape.org/namespaces/inkscape"
   xmlns:sodipodi="http://sodipodi.sourceforge.net/DTD/sodipodi-0.dtd"
   xmlns="http://www.w3.org/2000/svg"
   xmlns:svg="http://www.w3.org/2000/svg">
  <sodipodi:namedview
     id="namedview1"
     pagecolor="#505050"
     bordercolor="#eeeeee"
     borderopacity="1"
     inkscape:showpageshadow="0"
     inkscape:pageopacity="0"
     inkscape:pagecheckerboard="0"
     inkscape:deskcolor="#505050"
     inkscape:document-units="mm"
     inkscape:zoom="2.9113075"
     inkscape:cx="122.79706"
     inkscape:cy="127.94938"
     inkscape:window-width="1920"
     inkscape:window-height="1022"
     inkscape:window-x="0"
     inkscape:window-y="0"
     inkscape:window-maximized="1"
     inkscape:current-layer="layer1" />
  <defs
     id="defs1">
    <rect
       x="3076"
       y="160"
       width="1848"
       height="176"
       id="rect8" />
    <rect
       x="3076"
       y="160"
       width="1528"
       height="356"
       id="rect9" />
  </defs>
  <g
     inkscape:label="Capa 1"
     inkscape:groupmode="layer"
     id="layer1"
     transform="translate(-1.6387121,-10.53048)">
    <path
       id="Path 1-0-7-5-6-5-4"
       class="s1"
       d="m 4.6596959,26.090537 c -0.027097,0.0015 -0.055645,0.0041 -0.079144,0.0082 -0.046957,0.0081 -0.092652,0.01061 -0.1013949,0.0057 -0.00869,-0.0044 -0.052741,0.07085 -0.097552,0.167771 -0.044839,0.09691 -0.1827361,0.329822 -0.3063314,0.51768 -0.1233725,0.187848 -0.3161744,0.495268 -0.4280365,0.683126 -0.1118611,0.187846 -0.229909,0.394503 -0.2623554,0.45897 -0.032445,0.06447 -0.091593,0.208561 -0.1315042,0.320215 -0.039911,0.111642 -0.092204,0.279654 -0.1161235,0.373582 -0.024097,0.09392 -0.049128,0.266845 -0.055551,0.384262 -0.00665,0.11869 -3.814e-4,0.312958 0.014309,0.437629 0.014566,0.123168 0.044784,0.296092 0.067415,0.384259 0.022509,0.08797 0.083257,0.246569 0.1349251,0.352238 0.051438,0.105653 0.1594803,0.283289 0.2395246,0.394723 0.080257,0.111428 0.2275523,0.287963 0.3274735,0.392135 0.099914,0.104391 0.2439998,0.236532 0.3202144,0.293746 0.076199,0.0572 0.2109185,0.141574 0.2988663,0.187239 0.087969,0.04548 0.217752,0.09945 0.2881943,0.119747 0.070456,0.02038 0.1955297,0.05271 0.2781449,0.0719 0.097552,0.0225 0.1759025,0.05639 0.2241356,0.09652 0.040767,0.03418 0.1029006,0.101176 0.1381312,0.149229 0.062962,0.08583 0.063831,0.09115 0.053378,0.290531 -0.00585,0.111643 -0.01059,0.347108 -0.01032,0.523227 0,0.253829 0.00814,0.344552 0.039491,0.437628 0.021449,0.06469 0.090318,0.223076 0.1526466,0.352235 0.08752,0.18104 0.1524073,0.279014 0.2828554,0.426955 0.093073,0.105653 0.272394,0.283498 0.3985605,0.394929 0.1261555,0.111429 0.2694159,0.229275 0.3180889,0.261508 0.048899,0.03224 0.1607509,0.08215 0.2489262,0.110775 0.087968,0.02883 0.3234187,0.09541 0.5230209,0.147931 0.1996085,0.05231 0.5020954,0.124256 0.6724508,0.159479 0.1703654,0.03522 0.4344249,0.08517 0.5870596,0.110583 0.1526461,0.0257 0.3639776,0.06981 0.469649,0.09842 0.1056529,0.0286 0.3313156,0.08944 0.5016712,0.135142 0.1703658,0.0457 0.352665,0.09883 0.405605,0.117847 0.05294,0.01908 0.134504,0.05742 0.181464,0.0854 0.04697,0.02797 0.191052,0.153494 0.320214,0.279022 0.129155,0.125518 0.306768,0.289676 0.394934,0.365036 0.138555,0.118471 0.171638,0.136834 0.245483,0.137045 0.04697,3.47e-4 0.09689,-0.01195 0.110977,-0.02736 0.01404,-0.01508 0.03205,-0.05633 0.03993,-0.09156 0.0093,-0.04144 -0.0015,-0.112947 -0.03072,-0.202813 -0.02463,-0.07642 -0.108248,-0.24914 -0.185543,-0.384259 -0.07728,-0.135142 -0.156699,-0.263204 -0.176326,-0.284985 -0.01985,-0.02173 -0.14539,-0.11315 -0.279229,-0.202815 -0.134085,-0.08987 -0.306981,-0.219445 -0.384258,-0.288397 -0.07751,-0.06873 -0.213039,-0.182762 -0.3009952,-0.253641 -0.08817,-0.07062 -0.213051,-0.155139 -0.277508,-0.18756 C 9.6500749,34.367031 9.4481207,34.305293 9.2662386,34.262386 9.0843507,34.219698 8.8681072,34.160151 8.7859168,34.130273 8.7037293,34.100394 8.6004,34.062627 8.5564312,34.045972 8.5124543,34.029609 8.382645,33.972157 8.2682367,33.91836 8.1538163,33.864549 7.9928578,33.796234 7.9106676,33.766785 7.8284826,33.737123 7.6751952,33.668146 7.5699375,33.613715 7.4305355,33.541141 7.3349436,33.47132 7.2162423,33.354324 7.0894487,33.229649 7.0336921,33.154081 6.9643222,33.012764 6.9152195,32.913065 6.8537378,32.754459 6.827886,32.660527 6.784974,32.505102 6.780712,32.439996 6.780046,31.934708 6.7794054,31.578411 6.790636,31.276342 6.811242,31.091472 6.828985,30.933079 6.843048,30.63036 6.842628,30.419021 6.8424388,30.189747 6.8304105,29.970292 6.8131428,29.874655 6.7972457,29.78648 6.7610679,29.647314 6.7328855,29.565111 6.7049205,29.482928 6.6319127,29.324527 6.5706512,29.212871 6.4822622,29.051486 6.4158599,28.966515 6.2457229,28.796592 6.12831,28.679179 5.9790972,28.552139 5.9146278,28.514361 c -0.064469,-0.03801 -0.1462361,-0.07511 -0.1814641,-0.08301 -0.049103,-0.0106 -0.075356,-0.0034 -0.1120641,0.03158 -0.026486,0.0249 -0.047839,0.06702 -0.047405,0.09352 1.914e-4,0.02648 0.038649,0.132141 0.085403,0.234835 0.046536,0.102699 0.099276,0.242094 0.1172093,0.309542 0.018014,0.06745 0.038431,0.204509 0.045478,0.304205 0.00747,0.103544 0.00259,0.245512 -0.011403,0.330894 -0.015896,0.09691 -0.04693,0.185092 -0.088144,0.250834 -0.035229,0.05569 -0.1039607,0.127879 -0.15307,0.160114 -0.075777,0.04973 -0.117413,0.05999 -0.272181,0.06746 -0.1756904,0.0085 -0.1897816,0.0057 -0.3537377,-0.07151 C 4.8198765,30.084759 4.7385291,30.027745 4.6497183,29.93658 4.5668948,29.851615 4.4996675,29.753422 4.4426675,29.634502 4.3895068,29.523073 4.3416673,29.375985 4.3123986,29.23423 4.2741836,29.048079 4.2682376,28.9629 4.2771966,28.732559 c 0.00665,-0.169492 0.029215,-0.360558 0.058035,-0.490995 0.025955,-0.117412 0.1073802,-0.381695 0.1808288,-0.587058 0.073442,-0.205568 0.1635049,-0.479254 0.1997931,-0.608406 0.036286,-0.129156 0.081575,-0.306981 0.1003619,-0.394932 0.018801,-0.08817 0.035839,-0.233115 0.037983,-0.322132 0.00259,-0.118269 -0.00502,-0.171639 -0.0284,-0.197252 -0.017486,-0.01933 -0.060844,-0.03776 -0.096073,-0.04118 -0.017485,-0.0016 -0.043196,-0.0015 -0.070294,0 z M 31.209127,30.06892 c -0.05608,-0.0013 -0.08219,0.005 -0.09532,0.02173 -0.01303,0.01616 -0.03033,0.04868 -0.03885,0.07218 -0.0082,0.02357 -0.02411,0.172483 -0.03478,0.330892 -0.0106,0.158394 -0.03779,0.360134 -0.05999,0.448299 -0.02252,0.08794 -0.07193,0.22244 -0.110367,0.29887 -0.03822,0.07642 -0.110165,0.191476 -0.160115,0.256158 -0.04973,0.06469 -0.146897,0.170789 -0.215845,0.235894 -0.06895,0.06532 -0.168617,0.148331 -0.221354,0.184616 -0.05274,0.0363 -0.177836,0.106748 -0.277519,0.1567 -0.09991,0.04996 -0.243999,0.114236 -0.320217,0.142847 -0.07642,0.0286 -0.23481,0.07494 -0.352235,0.102902 -0.137681,0.03288 -0.334945,0.05828 -0.55504,0.0717 -0.209409,0.01276 -0.382981,0.03481 -0.448301,0.05659 -0.0587,0.0196 -0.140462,0.05271 -0.181465,0.07341 -0.04119,0.02066 -0.127458,0.0805 -0.192139,0.132807 -0.06469,0.05207 -0.160751,0.161176 -0.213487,0.242279 -0.05273,0.08113 -0.134923,0.243576 -0.18255,0.361201 -0.04739,0.11763 -0.125287,0.271321 -0.173119,0.341772 -0.04782,0.07045 -0.129129,0.166922 -0.180593,0.214308 -0.05142,0.04739 -0.156061,0.128544 -0.232293,0.180218 -0.07642,0.05186 -0.234809,0.140039 -0.352235,0.196166 -0.121256,0.05784 -0.296522,0.121051 -0.405609,0.145812 -0.130635,0.02988 -0.33217,0.0506 -0.629754,0.06487 -0.240797,0.0114 -0.495265,0.03139 -0.565714,0.04419 -0.07045,0.01276 -0.190627,0.04249 -0.266848,0.06595 -0.07642,0.02358 -0.321283,0.133662 -0.544366,0.244875 -0.223077,0.111225 -0.492062,0.236319 -0.597733,0.277939 -0.105688,0.04164 -0.201302,0.08409 -0.212402,0.09456 -0.01117,0.01038 -0.03759,0.0188 -0.05874,0.0188 -0.02119,0 -0.03842,0.0095 -0.03842,0.02146 0,0.01167 -0.01933,0.02146 -0.04269,0.02146 -0.02775,0 -0.07727,0.04697 -0.141098,0.133419 -0.05401,0.07344 -0.129807,0.195769 -0.168433,0.272184 -0.03843,0.07642 -0.08539,0.189146 -0.104401,0.250833 -0.0188,0.06168 -0.02709,0.12765 -0.01828,0.146634 0.01223,0.02623 0.03418,0.03162 0.09072,0.02225 0.04101,-0.0069 0.204297,-0.05464 0.362911,-0.106521 0.158393,-0.05166 0.408165,-0.152646 0.55504,-0.223951 0.146661,-0.07151 0.348395,-0.150925 0.4483,-0.176324 0.0997,-0.0257 0.287128,-0.05231 0.416281,-0.05979 0.129153,-0.0072 0.40283,-0.0056 0.608411,0.0037 0.205354,0.0093 0.604137,0.01356 0.885925,0.009 0.477123,-0.0072 0.527075,-0.01167 0.725824,-0.06574 0.117413,-0.0318 0.328754,-0.09694 0.469647,-0.144329 0.140887,-0.04759 0.313813,-0.113558 0.38426,-0.146845 0.07045,-0.03351 0.175929,-0.09734 0.234201,-0.142397 0.05848,-0.04481 0.197886,-0.191927 0.310167,-0.327054 0.11206,-0.135142 0.24318,-0.298225 0.290988,-0.362911 0.04782,-0.06469 0.115674,-0.175053 0.150684,-0.245509 0.03502,-0.07045 0.08669,-0.185518 0.115093,-0.255762 0.0284,-0.07004 0.09585,-0.175691 0.149653,-0.234835 0.06127,-0.06702 0.145388,-0.128939 0.22416,-0.165228 0.06937,-0.03203 0.24146,-0.08215 0.382342,-0.111416 0.140887,-0.02924 0.34263,-0.08733 0.4483,-0.129183 0.105688,-0.04184 0.301647,-0.131058 0.435712,-0.198311 0.162395,-0.08139 0.286915,-0.161837 0.373584,-0.241246 0.07151,-0.06554 0.19235,-0.204933 0.268347,-0.309541 0.07619,-0.104819 0.196588,-0.3057 0.267888,-0.446592 0.07109,-0.140885 0.15479,-0.333024 0.185755,-0.426956 0.03095,-0.09392 0.06636,-0.25253 0.07878,-0.352236 0.01276,-0.0997 0.01721,-0.234174 0.01083,-0.298867 -0.0066,-0.06447 -0.02689,-0.184669 -0.04523,-0.266846 -0.01827,-0.08219 -0.06343,-0.224134 -0.100151,-0.315506 -0.0365,-0.09115 -0.0811,-0.171214 -0.09862,-0.177623 -0.01774,-0.0063 -0.09456,-0.01721 -0.17079,-0.02383 -0.02595,-0.0022 -0.04801,-0.0034 -0.06672,-0.0039 z"
       style="fill:#d82624;fill-opacity:1;stroke-width:0.0213476"
       inkscape:export-filename="logo.png"
       inkscape:export-xdpi="96"
       inkscape:export-ydpi="96" />
    <path
       id="Path 2-6-5-0-8-9-7"
       class="s2"
       d="m 7.8383395,14.001051 c -0.015624,7.29e-4 -0.070483,0.06371 -0.1256261,0.145097 -0.058063,0.08539 -0.1466611,0.222652 -0.1968528,0.304831 -0.050378,0.08219 -0.1466339,0.259999 -0.2143096,0.394933 -0.067456,0.135142 -0.1484083,0.308045 -0.1800075,0.384257 -0.031386,0.07642 -0.093927,0.239736 -0.138767,0.362912 -0.044839,0.123168 -0.1058735,0.315305 -0.1359583,0.426954 -0.029879,0.111643 -0.070008,0.279652 -0.089028,0.373582 -0.018801,0.09393 -0.048043,0.300577 -0.064917,0.458977 -0.016684,0.158605 -0.03072,0.408381 -0.030938,0.55504 -1.914e-4,0.146873 0.014036,0.403683 0.031806,0.571051 0.017743,0.167372 0.052497,0.397918 0.077474,0.512346 0.024639,0.114427 0.067251,0.280293 0.094132,0.368247 0.026906,0.08817 0.093737,0.270688 0.148381,0.405605 0.054858,0.135142 0.1481177,0.336653 0.2074746,0.448303 0.059568,0.111643 0.1661294,0.289258 0.2369817,0.394931 0.070876,0.105687 0.2200828,0.312316 0.3317236,0.458975 0.1118611,0.146872 0.261298,0.343699 0.3321828,0.437626 0.071098,0.09392 0.1995816,0.281149 0.2858165,0.416281 0.086032,0.135143 0.212666,0.360776 0.2813974,0.501672 0.068532,0.140886 0.1485664,0.323418 0.178047,0.405606 0.029244,0.08219 0.078323,0.245509 0.109285,0.36291 0.030744,0.117413 0.070001,0.333665 0.087521,0.480323 0.017208,0.146871 0.031196,0.387034 0.030995,0.533691 -1.922e-4,0.151984 -0.013777,0.331103 -0.0318,0.416279 -0.017208,0.08219 -0.059786,0.207079 -0.094123,0.277521 -0.034386,0.07045 -0.1016158,0.173757 -0.1494419,0.229487 -0.074298,0.08644 -0.092231,0.09734 -0.1212544,0.07472 C 8.6797262,24.688365 8.610138,24.582401 8.5437614,24.467552 8.4773634,24.352705 8.3558866,24.153723 8.2737041,24.025422 8.1915056,23.897325 8.0668258,23.727171 7.9967961,23.647331 7.926761,23.567711 7.8068026,23.446452 7.72995,23.37836 7.653317,23.31005 7.5425262,23.222351 7.483831,23.183256 7.425131,23.144406 7.309836,23.077991 7.2276713,23.035959 7.1454863,22.994109 6.9917769,22.930275 6.8861107,22.894201 6.7804267,22.858121 6.5930061,22.805841 6.4698291,22.777872 6.3466601,22.749912 6.1350994,22.716162 6.0001815,22.702492 5.8652563,22.688912 5.6441019,22.681042 5.5091834,22.684472 l -0.2455093,0.0066 c 0.211977,0.115703 0.3609921,0.222441 0.4677293,0.311669 0.1067431,0.08923 0.228215,0.199608 0.2700568,0.245484 0.041854,0.0457 0.1368335,0.165015 0.2106792,0.264713 0.07408,0.0997 0.1718501,0.255973 0.2175134,0.346902 0.045478,0.09092 0.111005,0.249563 0.1453891,0.35224 0.034385,0.102687 0.077285,0.258938 0.095217,0.346897 0.018014,0.08817 0.043549,0.246569 0.057002,0.352236 0.01344,0.105688 0.031806,0.514051 0.041187,0.907277 0.012761,0.543513 0.027313,0.786878 0.061048,1.014017 0.024367,0.16438 0.055306,0.356505 0.068759,0.426951 0.01344,0.07045 0.052917,0.229062 0.087723,0.352235 0.034806,0.123168 0.096303,0.303347 0.136436,0.400266 0.040346,0.09691 0.116327,0.262569 0.1692803,0.368243 0.052944,0.105688 0.1596649,0.285848 0.2373795,0.400272 0.077501,0.114426 0.2090105,0.289904 0.2916123,0.389596 0.082824,0.09969 0.2786037,0.308689 0.4352943,0.464314 0.1564862,0.155611 0.2845656,0.28777 0.2845656,0.293532 0,0.0057 -0.016957,0.01083 -0.037345,0.01117 -0.020388,5.19e-4 -0.1022629,-0.02358 -0.1814645,-0.05337 -0.079199,-0.02946 -0.2232879,-0.09351 -0.3202157,-0.141971 -0.096912,-0.04848 -0.2698267,-0.151767 -0.3844635,-0.229481 -0.1146302,-0.07772 -0.2124015,-0.136382 -0.217514,-0.130635 -0.00502,0.0057 0.015096,0.08281 0.044419,0.17079 0.029458,0.08817 0.1067159,0.265777 0.1716115,0.394933 0.06489,0.129155 0.1810407,0.330887 0.2578798,0.448302 0.076864,0.117413 0.1929868,0.280721 0.2578794,0.362907 0.064889,0.08219 0.2100444,0.244186 0.3223425,0.360115 0.1122819,0.115932 0.2954589,0.287784 0.4071068,0.381929 0.1116429,0.09434 0.3227789,0.250198 0.4696497,0.34669 0.1466593,0.0965 0.4158529,0.261111 0.5977349,0.365705 0.2096472,0.120413 0.5343312,0.277485 0.8859292,0.428412 0.305271,0.131084 0.670319,0.292674 0.811211,0.359493 0.207502,0.0982 0.248054,0.124459 0.213488,0.138343 -0.02358,0.0093 -0.234836,0.02883 -0.46965,0.04291 -0.234834,0.01431 -0.434652,0.03203 -0.444258,0.03929 -0.0093,0.0074 0.07216,0.110583 0.181465,0.229485 0.109307,0.118691 0.280516,0.292054 0.380213,0.385346 0.0997,0.0933 0.320645,0.288411 0.490997,0.43379 0.170366,0.145362 0.444034,0.365026 0.608409,0.488204 0.164381,0.122954 0.380631,0.276256 0.480324,0.340941 0.0997,0.06447 0.311248,0.185941 0.469649,0.269846 0.158394,0.08389 0.405818,0.207289 0.549704,0.274102 0.143878,0.06683 0.359919,0.158818 0.48032,0.204507 0.120413,0.0457 0.353303,0.126346 0.51768,0.179293 0.164379,0.05294 0.414141,0.120645 0.555037,0.150315 0.140887,0.02988 0.357145,0.06915 0.480318,0.0873 0.123195,0.01828 0.243366,0.03287 0.266849,0.03243 0.02358,-6.91e-4 -0.01037,-0.01828 -0.07472,-0.03908 -0.06447,-0.02066 -0.199185,-0.07406 -0.298866,-0.11824 -0.0997,-0.04418 -0.24379,-0.116571 -0.320217,-0.161202 -0.07642,-0.04439 -0.23481,-0.152196 -0.352232,-0.239499 -0.117413,-0.08731 -0.281361,-0.225459 -0.364616,-0.306789 -0.08304,-0.08134 -0.314899,-0.34476 -0.515141,-0.585562 -0.200032,-0.240795 -0.501448,-0.586417 -0.669239,-0.768514 -0.16801,-0.182101 -0.453608,-0.503807 -0.634636,-0.715148 -0.181252,-0.211343 -0.474779,-0.570633 -0.652604,-0.798412 -0.177835,-0.227791 -0.36634,-0.451926 -0.419284,-0.498253 -0.05742,-0.05061 -0.276023,-0.173147 -0.544365,-0.305705 -0.24657,-0.121893 -0.525154,-0.272191 -0.619082,-0.3341 -0.09392,-0.06191 -0.231816,-0.170339 -0.306539,-0.240796 -0.07472,-0.07069 -0.181677,-0.19063 -0.237618,-0.267053 -0.05595,-0.07642 -0.131083,-0.191715 -0.16695,-0.256183 -0.03587,-0.06447 -0.09991,-0.223077 -0.142182,-0.352237 -0.04249,-0.129156 -0.09798,-0.268553 -0.1233722,-0.30954 -0.02543,-0.04101 -0.200882,-0.233152 -0.3900143,-0.426997 C 9.3652419,29.381929 9.1571058,29.151586 9.0917815,29.063416 9.026259,28.975483 8.9263419,28.821561 8.8695533,28.721856 8.8127658,28.622158 8.7337805,28.463552 8.693838,28.369621 8.6539267,28.2757 8.5879647,28.102776 8.5474154,27.985364 c -0.040767,-0.117412 -0.097554,-0.30954 -0.1261552,-0.426952 -0.028399,-0.117413 -0.070675,-0.32384 -0.093519,-0.458971 -0.022784,-0.135144 -0.053376,-0.408811 -0.067676,-0.60841 -0.014562,-0.199609 -0.019604,-0.379775 -0.011402,-0.400267 0.01113,-0.02883 0.048042,0.01275 0.1614122,0.181464 0.080678,0.120413 0.1985219,0.268785 0.2615082,0.330054 0.062987,0.06104 0.1963774,0.159666 0.2960761,0.219236 0.099698,0.05956 0.1910519,0.107989 0.2028116,0.107561 0.013314,-1.47e-4 0.021978,-0.117385 0.022783,-0.304619 0.00151,-0.266208 0.00865,-0.327475 0.0587,-0.490997 0.031599,-0.102698 0.1009727,-0.275601 0.1543427,-0.384259 0.053376,-0.108654 0.1722465,-0.29844 0.2640505,-0.421616 0.09182,-0.123401 0.285616,-0.339431 0.4312065,-0.480323 0.145599,-0.140887 0.350969,-0.314255 0.45664,-0.385343 0.10544,-0.07089 0.26877,-0.160937 0.362701,-0.199794 0.09392,-0.03908 0.221381,-0.08196 0.283064,-0.09519 0.06168,-0.01331 0.112285,-0.03374 0.112285,-0.04548 1.91e-4,-0.01167 -0.01801,-0.0743 -0.04032,-0.138767 -0.0225,-0.06447 -0.07221,-0.184669 -0.110617,-0.266848 -0.03865,-0.08219 -0.143664,-0.279227 -0.233748,-0.437626 -0.09009,-0.158394 -0.202601,-0.374651 -0.250412,-0.480323 -0.04759,-0.105687 -0.111224,-0.26898 -0.141308,-0.362908 -0.0301,-0.09392 -0.07023,-0.252558 -0.08923,-0.35224 -0.01908,-0.0997 -0.03993,-0.296732 -0.04655,-0.437624 -0.0069,-0.146027 -0.0015,-0.334307 0.01249,-0.43763 0.01331,-0.0997 0.06408,-0.344766 0.112544,-0.544365 0.04868,-0.199611 0.123169,-0.443819 0.16544,-0.54266 0.04249,-0.09905 0.08666,-0.183158 0.09839,-0.187211 0.01167,-0.0039 0.03971,0.06253 0.06193,0.147932 0.0225,0.08519 0.07363,0.251047 0.114006,0.368455 0.04033,0.117413 0.121473,0.309542 0.179954,0.426953 0.0587,0.117413 0.152858,0.275813 0.209435,0.352237 0.05659,0.07642 0.207288,0.239736 0.334937,0.362914 0.127878,0.123169 0.29928,0.268773 0.381251,0.323425 0.08177,0.05464 0.225672,0.137918 0.319592,0.184881 0.09393,0.04718 0.223714,0.105202 0.288195,0.129129 0.06447,0.02383 0.323843,0.102473 0.576388,0.174207 0.252527,0.07193 0.540735,0.165438 0.640431,0.207925 0.0997,0.04228 0.26323,0.124892 0.36291,0.183159 0.0997,0.05848 0.253405,0.160115 0.34156,0.225646 0.08797,0.06574 0.284993,0.244212 0.437628,0.39685 0.152648,0.152646 0.325754,0.339856 0.384674,0.41628 0.05912,0.07642 0.159904,0.175293 0.224164,0.219897 0.09266,0.06425 0.143454,0.08365 0.245086,0.09368 0.0888,0.0087 0.160963,0.0022 0.234837,-0.02145 0.06063,-0.01933 0.152857,-0.07428 0.213487,-0.127214 0.0587,-0.05122 0.128123,-0.1358 0.153945,-0.187873 0.02595,-0.05208 0.06211,-0.164169 0.08004,-0.249325 0.01828,-0.0852 0.03267,-0.219659 0.03267,-0.298869 -3.45e-4,-0.07921 -0.01484,-0.206443 -0.03267,-0.282855 -0.01774,-0.07642 -0.08455,-0.292465 -0.148595,-0.480324 -0.06405,-0.187874 -0.131084,-0.411156 -0.148805,-0.496334 -0.01801,-0.0852 -0.03267,-0.229273 -0.03244,-0.320214 0,-0.09286 0.02278,-0.273037 0.05186,-0.410943 0.0286,-0.135144 0.07494,-0.312746 0.103319,-0.394932 0.02819,-0.08219 0.08881,-0.224136 0.134721,-0.315505 0.04553,-0.09067 0.08772,-0.164908 0.09403,-0.165864 0,0 0,0 3.46e-4,0 0,0 0,0 0,0 0.0061,0.0015 0.03407,0.08057 0.06247,0.176752 0.0284,0.09713 0.09092,0.253377 0.138978,0.347316 0.04782,0.09392 0.144754,0.246783 0.214971,0.339853 0.07045,0.09307 0.185518,0.221594 0.255974,0.285859 0.07045,0.06405 0.200031,0.16393 0.288192,0.221777 0.08795,0.05784 0.208137,0.12769 0.266846,0.155242 0.0587,0.02754 0.255524,0.121893 0.437629,0.20986 0.230968,0.111641 0.365701,0.191264 0.445965,0.263628 l 0.114819,0.103544 c 0.318083,-0.07024 0.535412,-0.102878 0.688048,-0.117847 0.16928,-0.01668 0.385753,-0.02225 0.555041,-0.01431 0.152646,0.0072 0.397707,0.03351 0.544365,0.0587 0.146662,0.02515 0.377214,0.07747 0.512344,0.116544 0.135142,0.03908 0.317657,0.100995 0.405605,0.137495 0.08817,0.03671 0.169307,0.06847 0.180616,0.07104 0.0114,0.0025 0.02924,-0.06744 0.03971,-0.155612 0.01249,-0.103759 0.01083,-0.223926 -0.0041,-0.341565 -0.01275,-0.0997 -0.04608,-0.258304 -0.07406,-0.352236 -0.02797,-0.09392 -0.08624,-0.247629 -0.129577,-0.341562 -0.04333,-0.09392 -0.139613,-0.261932 -0.213884,-0.373585 -0.07452,-0.111642 -0.216481,-0.28926 -0.315962,-0.394933 -0.0995,-0.105687 -0.264079,-0.264078 -0.365916,-0.352234 -0.101807,-0.08797 -0.184828,-0.167374 -0.184616,-0.176115 5.18e-4,-0.0087 0.108643,0.01378 0.240795,0.04973 0.132143,0.03608 0.441896,0.122951 0.688462,0.19296 0.246571,0.07024 0.606703,0.180643 0.80054,0.245748 0.193833,0.06511 0.462604,0.161812 0.597738,0.215183 0.135142,0.05316 0.334303,0.138714 0.442962,0.190179 l 0.197462,0.09352 c -0.140885,0.223289 -0.207263,0.365046 -0.238862,0.458979 -0.03139,0.09392 -0.06854,0.257243 -0.08243,0.362909 -0.01536,0.116353 -0.0196,0.263653 -0.01037,0.373584 0.0082,0.0997 0.03757,0.267913 0.06507,0.373584 0.02755,0.105687 0.07171,0.249775 0.09839,0.320216 l 0.0485,0.128097 c 0.03929,-0.347327 0.07215,-0.530062 0.0982,-0.629755 0.02595,-0.0997 0.08881,-0.267916 0.139191,-0.373585 0.05207,-0.108857 0.146235,-0.25682 0.217301,-0.341563 0.06895,-0.08219 0.206867,-0.21497 0.306123,-0.295034 0.09949,-0.08004 0.33453,-0.247206 0.522391,-0.371667 0.187847,-0.124458 0.447235,-0.305277 0.576391,-0.40177 0.129155,-0.0965 0.292657,-0.23653 0.363533,-0.311461 0.07089,-0.07472 0.149441,-0.164564 0.17442,-0.199791 0.02517,-0.03522 0.05061,-0.05912 0.05659,-0.05338 0.0061,0.0057 0.02119,0.073 0.03354,0.149441 0.01249,0.07642 0.0225,0.244425 0.0225,0.373585 0,0.129155 -0.01404,0.330886 -0.03057,0.4483 -0.01668,0.117413 -0.05123,0.30954 -0.07663,0.426953 -0.02543,0.117413 -0.08241,0.314451 -0.126577,0.437628 -0.04418,0.123168 -0.125735,0.325127 -0.181253,0.448301 -0.05552,0.12317 -0.145573,0.308461 -0.200217,0.411566 -0.05464,0.102902 -0.09461,0.192165 -0.08861,0.19794 0.0061,0.0057 0.09243,-0.01908 0.192139,-0.05507 0.0997,-0.03587 0.239101,-0.100759 0.309541,-0.143879 0.07045,-0.04313 0.207289,-0.153097 0.304206,-0.244451 0.165652,-0.156275 0.178895,-0.164379 0.224136,-0.137047 0.02648,0.01589 0.148143,0.124039 0.270475,0.240161 0.122313,0.116125 0.290746,0.292906 0.374003,0.392597 0.08324,0.0997 0.220294,0.277521 0.304409,0.394932 0.114426,0.159691 0.205833,0.328969 0.363581,0.672454 0.115703,0.252529 0.24739,0.516612 0.292657,0.58706 0.04525,0.07045 0.137257,0.195318 0.204721,0.277521 0.06748,0.08219 0.198123,0.222227 0.29057,0.31125 0.09223,0.08923 0.239949,0.214759 0.327883,0.279439 0.08817,0.06447 0.217753,0.153944 0.288197,0.198549 0.07045,0.04484 0.238467,0.136594 0.373585,0.204059 0.135142,0.06725 0.341563,0.158207 0.458976,0.201752 0.117413,0.04355 0.230547,0.09499 0.251471,0.114617 0.0333,0.03075 0.03801,0.07494 0.03735,0.350111 -5.2e-4,0.173122 0.009,0.362909 0.02066,0.42162 0.01167,0.0587 0.03095,0.106737 0.04269,0.106737 0.01167,0 0.03653,-0.03608 0.05488,-0.08004 0.01855,-0.04397 0.07536,-0.166501 0.126373,-0.272183 0.05102,-0.105687 0.138344,-0.245059 0.193623,-0.30954 0.05549,-0.06447 0.135562,-0.143694 0.177834,-0.175504 0.0425,-0.03203 0.111891,-0.06574 0.154555,-0.07472 0.06661,-0.01431 0.07939,-0.0106 0.09157,0.02595 0.0081,0.02358 0.0034,0.138767 -0.0095,0.256159 -0.0133,0.117413 -0.0472,0.323844 -0.07561,0.458975 -0.0284,0.135141 -0.08539,0.379986 -0.126372,0.544361 -0.04119,0.164379 -0.1027,0.356509 -0.136621,0.426953 -0.03392,0.07045 -0.08688,0.154553 -0.117413,0.186789 -0.03075,0.03223 -0.07726,0.07258 -0.103759,0.08963 -0.02648,0.01697 -0.105653,0.04718 -0.176114,0.06725 -0.09607,0.02712 -0.253616,0.03952 -0.628258,0.04911 l -0.500377,0.01276 c -0.05358,0.215184 -0.08412,0.306342 -0.102484,0.341565 -0.01827,0.03522 -0.06338,0.09051 -0.100312,0.122748 l -0.06686,0.0587 c 0.107583,0.04484 0.23481,0.09414 0.352239,0.138556 0.173121,0.06531 0.207263,0.08519 0.180379,0.104401 -0.01827,0.0133 -0.205567,0.07062 -0.41628,0.127826 -0.210708,0.0572 -0.450421,0.127906 -0.532609,0.157149 -0.08219,0.02924 -0.283924,0.114209 -0.448299,0.188721 -0.164379,0.0745 -0.418844,0.198947 -0.565715,0.276643 -0.14666,0.07773 -0.362912,0.182974 -0.480324,0.233988 -0.117411,0.05102 -0.271115,0.111418 -0.341561,0.134478 -0.07045,0.02278 -0.204931,0.05979 -0.298868,0.08177 -0.13919,0.03266 -0.253828,0.04016 -0.619081,0.03973 -0.388316,-5.19e-4 -0.479686,-0.0072 -0.683126,-0.05062 -0.129156,-0.02775 -0.335587,-0.08324 -0.458979,-0.12359 -0.123372,-0.04035 -0.353943,-0.136011 -0.512343,-0.212427 -0.164806,-0.07962 -0.443605,-0.242491 -0.651107,-0.381048 -0.199607,-0.132999 -0.437414,-0.305266 -0.528354,-0.382759 -0.09092,-0.07728 -0.172698,-0.140885 -0.181465,-0.140885 -0.0087,-3.46e-4 -0.009,0.05999 -3.47e-4,0.133419 0.0087,0.07344 0.04548,0.239313 0.08156,0.368457 0.03607,0.129156 0.101593,0.311678 0.145336,0.405606 0.04396,0.09393 0.121918,0.233116 0.173172,0.309543 0.05123,0.07642 0.137258,0.190656 0.190842,0.253828 0.0538,0.06342 0.165015,0.167583 0.247206,0.231418 0.08219,0.06383 0.213673,0.146422 0.292242,0.183794 0.07878,0.03715 0.143454,0.07472 0.144091,0.08346 6.9e-4,0.0087 -0.04907,0.0316 -0.110808,0.05082 -0.06168,0.01907 -0.212825,0.0766 -0.336224,0.127824 -0.1234,0.05122 -0.329825,0.151798 -0.458977,0.223526 -0.129155,0.07173 -0.302068,0.184245 -0.384256,0.250013 -0.08219,0.06574 -0.215395,0.182498 -0.296075,0.259338 -0.08047,0.07686 -0.201753,0.207104 -0.269222,0.289279 -0.06725,0.08219 -0.165412,0.216694 -0.218149,0.298868 -0.05252,0.08219 -0.133228,0.219235 -0.179134,0.304412 -0.04589,0.08539 -0.09307,0.151984 -0.104819,0.147932 -0.01167,-0.0039 -0.05291,-0.116967 -0.09136,-0.251047 -0.03865,-0.134286 -0.08988,-0.349667 -0.114006,-0.478822 -0.02411,-0.129157 -0.04893,-0.369317 -0.05533,-0.533694 -0.0061,-0.164379 -6.95e-4,-0.418841 0.01249,-0.565712 0.01304,-0.14666 0.02146,-0.269195 0.01854,-0.272184 -0.0027,-0.0028 -0.131504,0.366753 -0.285856,0.821885 -0.154553,0.454921 -0.344988,0.980928 -0.423118,1.168788 -0.07813,0.187874 -0.233749,0.524085 -0.345607,0.747167 -0.11206,0.223076 -0.257007,0.496976 -0.32234,0.608409 -0.06531,0.111428 -0.176353,0.289262 -0.246569,0.394935 -0.07024,0.105653 -0.197225,0.278588 -0.281984,0.384257 -0.08497,0.105653 -0.217962,0.257032 -0.295654,0.336227 -0.07792,0.0792 -0.187239,0.180166 -0.242968,0.224347 -0.0557,0.04396 -0.192775,0.134504 -0.304204,0.20088 -0.111428,0.06639 -0.276899,0.152645 -0.367415,0.191926 -0.09051,0.03928 -0.162447,0.07384 -0.160117,0.07683 0.0025,0.0028 0.08134,-0.0095 0.175293,-0.02819 0.09392,-0.01854 0.305277,-0.067 0.469652,-0.107988 0.16438,-0.04077 0.414143,-0.113179 0.55504,-0.160777 0.140884,-0.04782 0.366538,-0.135538 0.501669,-0.195106 0.135144,-0.05934 0.336865,-0.15564 0.448302,-0.213938 0.111427,-0.05806 0.294171,-0.158605 0.405605,-0.223289 0.111439,-0.06469 0.265139,-0.161412 0.341565,-0.214759 0.07642,-0.05358 0.273248,-0.20448 0.437626,-0.335138 0.17696,-0.140884 0.385966,-0.332827 0.512345,-0.470737 0.117413,-0.128299 0.257881,-0.285841 0.311878,-0.350527 0.05421,-0.06469 0.205805,-0.275809 0.336891,-0.469647 0.1313,-0.193835 0.312713,-0.457698 0.403229,-0.586852 0.09073,-0.128938 0.24167,-0.31211 0.335602,-0.407108 0.09393,-0.09477 0.262144,-0.232478 0.373584,-0.305911 0.111428,-0.07344 0.298867,-0.179955 0.416281,-0.236744 0.117414,-0.05679 0.299936,-0.13641 0.405606,-0.17675 0.105688,-0.04054 0.2978,-0.104379 0.426953,-0.141972 0.129156,-0.03757 0.321284,-0.09647 0.426951,-0.130634 0.105688,-0.03439 0.336227,-0.08691 0.512347,-0.116993 0.176114,-0.02988 0.420977,-0.07922 0.544367,-0.109522 0.123372,-0.0301 0.320217,-0.09096 0.437627,-0.134926 0.117414,-0.04419 0.319148,-0.131694 0.448303,-0.194682 0.129155,-0.06299 0.345191,-0.175054 0.480323,-0.249324 0.135142,-0.0743 0.32235,-0.171638 0.416279,-0.216481 0.09392,-0.04484 0.266846,-0.11763 0.38426,-0.161811 0.117412,-0.04418 0.359919,-0.117602 0.539026,-0.163082 0.179106,-0.0457 0.371241,-0.09991 0.426955,-0.121051 0.05573,-0.02092 0.144729,-0.06299 0.197463,-0.09352 0.05274,-0.03054 0.137496,-0.09736 0.188299,-0.148595 0.0508,-0.05142 0.112703,-0.136382 0.137892,-0.18933 0.02623,-0.05529 0.05042,-0.159268 0.05724,-0.244875 0.01116,-0.143879 0.01343,-0.149017 0.07556,-0.163956 0.03522,-0.0082 0.131275,-0.0257 0.213488,-0.0384 0.08644,-0.01344 0.216877,-0.0555 0.309538,-0.0997 0.118472,-0.05659 0.199157,-0.116353 0.310379,-0.229062 0.09477,-0.09607 0.178894,-0.207925 0.227366,-0.302077 0.04229,-0.08219 0.101199,-0.226283 0.130662,-0.320213 0.02945,-0.09392 0.08391,-0.319787 0.120617,-0.501667 0.03671,-0.181889 0.08988,-0.474982 0.118025,-0.651101 0.02818,-0.176115 0.05739,-0.38255 0.06466,-0.458978 0.0074,-0.07642 0.0024,-0.205992 -0.01083,-0.288191 -0.01356,-0.08219 -0.04548,-0.196404 -0.07109,-0.25404 -0.0257,-0.05742 -0.0873,-0.141549 -0.137257,-0.186788 -0.04996,-0.04528 -0.126793,-0.09182 -0.17079,-0.103318 -0.04396,-0.01167 -0.128097,-0.02145 -0.186787,-0.02173 -0.05979,-4.31e-4 -0.200456,0.02816 -0.320216,0.06487 -0.186151,0.057 -0.225009,0.0626 -0.3042,0.04314 -0.04996,-0.01249 -0.246783,-0.08583 -0.437632,-0.16332 -0.19084,-0.0775 -0.404537,-0.170155 -0.474985,-0.205807 -0.07045,-0.03565 -0.185728,-0.103296 -0.25616,-0.150263 -0.07045,-0.04697 -0.185516,-0.134734 -0.255759,-0.194495 -0.07045,-0.05999 -0.170128,-0.152197 -0.221778,-0.205145 -0.05166,-0.05294 -0.151588,-0.168008 -0.222017,-0.256184 -0.08709,-0.108653 -0.179346,-0.266417 -0.28757,-0.490998 -0.08752,-0.181888 -0.2026,-0.417343 -0.255549,-0.523018 -0.05294,-0.105688 -0.156062,-0.283283 -0.229486,-0.39493 -0.07343,-0.111642 -0.178259,-0.260448 -0.233114,-0.330889 -0.05464,-0.07045 -0.09924,-0.135346 -0.09901,-0.144091 3.47e-4,-0.0087 0.07747,-0.119328 0.171611,-0.24551 0.09414,-0.126156 0.213274,-0.31125 0.264713,-0.410943 0.05142,-0.0997 0.123807,-0.272609 0.160725,-0.384258 0.03692,-0.111643 0.08177,-0.284565 0.0997,-0.38426 0.01774,-0.0997 0.03246,-0.306341 0.0329,-0.458973 3.45e-4,-0.163321 -0.0133,-0.352238 -0.03311,-0.458974 -0.01827,-0.0997 -0.05679,-0.24869 -0.08519,-0.33089 -0.02819,-0.08219 -0.05721,-0.166287 -0.06426,-0.186789 -0.0072,-0.02039 -0.02038,-0.03777 -0.02902,-0.0382 -0.0087,-4.33e-4 -0.06065,0.03565 -0.115092,0.08004 -0.05464,0.04439 -0.246781,0.200851 -0.426953,0.347525 -0.180378,0.146449 -0.428651,0.341334 -0.552039,0.432914 -0.123373,0.09159 -0.228851,0.16629 -0.234811,0.165865 -0.0061,-4.32e-4 -0.01721,-0.12807 -0.02517,-0.283689 -0.0082,-0.155612 -0.02902,-0.350104 -0.04653,-0.43229 -0.01748,-0.08219 -0.05764,-0.226281 -0.08923,-0.320215 -0.03139,-0.09393 -0.08391,-0.223713 -0.116571,-0.288194 -0.03267,-0.06447 -0.102699,-0.175053 -0.156064,-0.245508 -0.05316,-0.07045 -0.134897,-0.1665 -0.181649,-0.21349 l -0.08493,-0.08539 c -0.127458,0.172909 -0.22199,0.307422 -0.292449,0.41032 -0.07045,0.103116 -0.214547,0.274523 -0.320213,0.381047 -0.131937,0.132998 -0.285846,0.25637 -0.490998,0.393638 -0.16438,0.10995 -0.380628,0.259177 -0.480322,0.331766 -0.0997,0.07236 -0.203025,0.14258 -0.229485,0.15601 -0.04185,0.02119 -0.08283,0.0056 -0.320219,-0.122287 -0.149653,-0.08067 -0.372943,-0.190656 -0.496335,-0.24424 -0.123372,-0.05359 -0.38746,-0.15691 -0.587061,-0.229485 -0.199607,-0.07258 -0.439761,-0.155586 -0.533689,-0.184404 -0.09393,-0.0286 -0.353309,-0.103748 -0.576392,-0.166949 -0.223074,-0.06319 -0.515971,-0.152436 -0.651102,-0.198338 -0.135143,-0.0459 -0.32726,-0.120385 -0.426954,-0.165863 -0.0997,-0.04527 -0.2391,-0.115512 -0.30954,-0.156065 -0.07045,-0.04055 -0.176114,-0.109081 -0.23481,-0.152195 -0.0587,-0.04291 -0.16973,-0.139824 -0.246596,-0.214971 -0.07683,-0.07536 -0.18377,-0.194469 -0.23799,-0.264926 -0.05401,-0.07045 -0.144963,-0.219238 -0.202389,-0.330892 -0.05721,-0.111641 -0.125952,-0.255733 -0.152857,-0.320215 l -0.04866,-0.117413 c -0.06426,0.124038 -0.105924,0.239313 -0.134287,0.336228 -0.0284,0.09691 -0.06683,0.284137 -0.0854,0.41628 -0.01855,0.132141 -0.03394,0.333878 -0.03371,0.4483 0,0.114428 0.02013,0.32342 0.04439,0.464313 0.02411,0.140886 0.07066,0.333027 0.10332,0.426953 0.03265,0.09392 0.09501,0.247631 0.138343,0.341563 0.04354,0.09392 0.142395,0.266849 0.219897,0.384258 0.102056,0.154976 0.224771,0.296949 0.447013,0.517683 0.274318,0.272395 0.300139,0.3042 0.247628,0.304414 -0.03223,1.48e-4 -0.130636,-0.01827 -0.218811,-0.04077 -0.08794,-0.0225 -0.22244,-0.06895 -0.298865,-0.103116 -0.07642,-0.03417 -0.201092,-0.104176 -0.277521,-0.155188 -0.07642,-0.05122 -0.204509,-0.156248 -0.284981,-0.233326 -0.08048,-0.07708 -0.192352,-0.197914 -0.248506,-0.268347 -0.05614,-0.07045 -0.200058,-0.286485 -0.31959,-0.480325 -0.119529,-0.193833 -0.2681,-0.419479 -0.330219,-0.501671 -0.06211,-0.08219 -0.207924,-0.244213 -0.324055,-0.359907 -0.116123,-0.1157 -0.297597,-0.268156 -0.403272,-0.338604 -0.105687,-0.07067 -0.288194,-0.174843 -0.405605,-0.231392 -0.117412,-0.05679 -0.328757,-0.142795 -0.469653,-0.191451 -0.140887,-0.04848 -0.34263,-0.129631 -0.448299,-0.180007 -0.105688,-0.05038 -0.264079,-0.148755 -0.352237,-0.218363 -0.08795,-0.06979 -0.222439,-0.19513 -0.298866,-0.278603 -0.07642,-0.08369 -0.184247,-0.227128 -0.239947,-0.318923 -0.05552,-0.09182 -0.129361,-0.248502 -0.164143,-0.348402 -0.03482,-0.09991 -0.07321,-0.244001 -0.0856,-0.320215 -0.01223,-0.0762 -0.0225,-0.198735 -0.0225,-0.272181 -1.46e-4,-0.07344 -0.0074,-0.13384 -0.01616,-0.13426 -0.0087,-4.35e-4 -0.05954,0.04527 -0.112921,0.10139 -0.05337,0.05636 -0.136674,0.155189 -0.185119,0.219658 -0.04847,0.06447 -0.130825,0.203875 -0.182922,0.309541 -0.05231,0.105654 -0.110368,0.24016 -0.129385,0.298869 -0.0188,0.0587 -0.04911,0.193199 -0.06704,0.298867 -0.01828,0.105653 -0.03285,0.288196 -0.03285,0.405606 0,0.117412 0.01456,0.297586 0.03223,0.40027 0.01774,0.102699 0.05679,0.251682 0.08669,0.330889 0.0301,0.07921 0.118052,0.254676 0.195767,0.389595 0.0775,0.134927 0.187637,0.336655 0.244612,0.448302 0.0572,0.111643 0.124704,0.265139 0.150314,0.341563 0.0257,0.07642 0.04692,0.191901 0.04756,0.256794 8.85e-4,0.0854 -0.01379,0.14666 -0.05229,0.222016 -0.03459,0.06725 -0.07984,0.118051 -0.128097,0.14388 -0.04098,0.02198 -0.113123,0.04589 -0.160114,0.05338 -0.05614,0.0087 -0.125736,4.34e-4 -0.202788,-0.02437 -0.06447,-0.02066 -0.170367,-0.07385 -0.234837,-0.118023 -0.06447,-0.04439 -0.177385,-0.141759 -0.250834,-0.216479 -0.07343,-0.07472 -0.183796,-0.204694 -0.24551,-0.289026 -0.06168,-0.08432 -0.169519,-0.242942 -0.239738,-0.352239 -0.07024,-0.109522 -0.193171,-0.285428 -0.273432,-0.391099 -0.08025,-0.105687 -0.201543,-0.249773 -0.269222,-0.320215 -0.0679,-0.07045 -0.180166,-0.17998 -0.249536,-0.243154 -0.06937,-0.06342 -0.217329,-0.179954 -0.32897,-0.258939 -0.111642,-0.07921 -0.284563,-0.187424 -0.384258,-0.240584 -0.0997,-0.05316 -0.27752,-0.135563 -0.394932,-0.182947 -0.117413,-0.04759 -0.415212,-0.1407 -0.661777,-0.207103 -0.246572,-0.06617 -0.515547,-0.144754 -0.597738,-0.174208 C 10.092223,17.682353 9.9289038,17.610867 9.8114888,17.552801 9.6940568,17.494752 9.5211398,17.395699 9.4272104,17.332499 9.333289,17.269311 9.1614162,17.128204 9.0452861,17.018915 8.9289587,16.90963 8.7696849,16.7337 8.6913396,16.628027 8.6129963,16.522373 8.5143777,16.378251 8.4725272,16.307814 8.4304725,16.23736 8.3527793,16.093268 8.2998319,15.987599 8.2466672,15.881911 8.1649336,15.680189 8.1181551,15.539296 8.0711491,15.398435 8.0128422,15.187081 7.9885292,15.069669 c -0.024367,-0.117413 -0.058456,-0.30463 -0.07575,-0.416279 -0.017485,-0.111643 -0.035649,-0.301627 -0.040576,-0.422241 -0.00502,-0.122952 -0.018545,-0.22419 -0.031168,-0.230148 -5.715e-4,-2.95e-4 -0.00122,-2.95e-4 -0.00203,-2.95e-4 z m 5.5604445,3.790634 c -1.6e-5,2e-6 0,0 0,0 v 0 0 c -0.0025,0.0025 -0.0044,0.04971 -0.0044,0.128205 0,0.07546 0.0016,0.119611 0.0041,0.122219 v 0 0 0 0 0 0 0 0 0 c 10e-4,-0.001 0.0024,-0.0095 0.0037,-0.02623 0.0041,-0.0587 0.0041,-0.149866 0,-0.202812 -0.0011,-0.0133 -0.0022,-0.02014 -0.0031,-0.02146 -1.2e-5,-1.6e-5 0,-1.46e-4 0,-1.46e-4 v 0 0 0 0 0 z M 3.001716,30.645029 c -0.00476,8.66e-4 -0.031006,0.04709 -0.060669,0.107041 -0.031168,0.06342 -0.072356,0.187237 -0.091348,0.275396 -0.022915,0.106736 -0.030409,0.20991 -0.02244,0.309541 0.00665,0.08219 0.032025,0.207077 0.056582,0.27752 0.024557,0.07045 0.075166,0.185728 0.1127431,0.256185 0.037577,0.07045 0.1355361,0.195529 0.2177279,0.277727 0.082185,0.08241 0.2489006,0.216877 0.370583,0.298866 0.1216892,0.08219 0.2617473,0.192563 0.310837,0.245298 0.04932,0.05274 0.1148472,0.139403 0.1453872,0.192139 0.030748,0.05274 0.074936,0.153706 0.098191,0.224162 0.023309,0.07045 0.048899,0.204933 0.056582,0.29887 0.00814,0.09883 0.022249,0.16181 0.032662,0.149442 0.01032,-0.01167 0.046958,-0.07898 0.081765,-0.149442 0.03501,-0.07045 0.078587,-0.185729 0.097158,-0.256159 0.018272,-0.07045 0.033925,-0.204931 0.034141,-0.298869 4.154e-4,-0.09393 -0.00897,-0.2235 -0.02092,-0.288194 -0.011673,-0.0647 -0.054883,-0.184644 -0.095433,-0.266846 C 4.2844983,32.215518 4.1995306,32.090628 4.1363576,32.020187 4.0731648,31.949734 3.9169116,31.819944 3.7888351,31.73199 3.6607383,31.643835 3.4837785,31.499724 3.3956109,31.411775 3.3033802,31.319544 3.2066765,31.19744 3.1676352,31.123582 3.1304932,31.053132 3.0790562,30.91865 3.053426,30.824713 3.027727,30.730793 3.004744,30.650082 3.002384,30.645395 c -1.63e-5,0 0,0 0,0 v 0 0 0 0 0 0 0 c -1.5e-5,0 -1.901e-4,6e-6 -1.901e-4,0 0,6e-6 -1.9e-4,-6e-6 -1.9e-4,0 z m 23.642972,1.203813 c -0.01117,8.63e-4 -0.03903,0.08266 -0.06342,0.187078 -0.02543,0.108654 -0.06768,0.250412 -0.09373,0.315091 -0.02623,0.06469 -0.09199,0.189357 -0.146025,0.27752 -0.05485,0.08923 -0.158842,0.215394 -0.234623,0.284774 -0.07472,0.06852 -0.188696,0.155426 -0.253377,0.193013 -0.06469,0.0378 -0.170155,0.09089 -0.234837,0.118444 -0.06469,0.02735 -0.295241,0.104627 -0.512343,0.171876 -0.217329,0.06703 -0.505512,0.167372 -0.640433,0.222651 -0.135144,0.05549 -0.336863,0.149204 -0.448299,0.20835 -0.111428,0.05912 -0.265353,0.153917 -0.341562,0.210257 -0.07642,0.05659 -0.216481,0.182762 -0.311251,0.280732 -0.09477,0.09777 -0.210708,0.235472 -0.257457,0.305915 -0.04675,0.07045 -0.105001,0.176113 -0.129332,0.234837 -0.02463,0.0587 -0.05127,0.140461 -0.05955,0.181465 l -0.01508,0.07472 c 0.226705,-0.219659 0.354783,-0.328554 0.431207,-0.38363 0.0762,-0.05531 0.263656,-0.161361 0.41628,-0.236292 0.152647,-0.07472 0.407101,-0.178925 0.565716,-0.23166 0.188932,-0.06277 0.435277,-0.122531 0.715145,-0.173121 0.234836,-0.0425 0.489289,-0.09266 0.565716,-0.111449 0.0762,-0.01908 0.205992,-0.06168 0.288194,-0.09499 0.08219,-0.03351 0.202152,-0.09202 0.266843,-0.129998 0.06469,-0.03801 0.204058,-0.155637 0.31017,-0.261295 0.147295,-0.147085 0.209459,-0.227155 0.263681,-0.341563 0.03907,-0.08219 0.08516,-0.216694 0.10245,-0.298869 0.02146,-0.100985 0.02709,-0.201303 0.01801,-0.309543 -0.0074,-0.08817 -0.02794,-0.212851 -0.04546,-0.277523 -0.01774,-0.06469 -0.05552,-0.182311 -0.08432,-0.261508 -0.0286,-0.07921 -0.06042,-0.148991 -0.07089,-0.154978 -5.2e-4,-3.46e-4 -6.94e-4,-3.46e-4 -0.0012,-3.46e-4 z m 4.760121,0.969442 c -0.01484,3.45e-4 -0.03621,0.02707 -0.06534,0.08222 -0.02924,0.05506 -0.102066,0.15328 -0.16181,0.218176 -0.05999,0.06511 -0.165652,0.148567 -0.234837,0.1857 -0.06938,0.03692 -0.212428,0.100523 -0.318088,0.141098 -0.105687,0.04055 -0.252105,0.103963 -0.325552,0.140674 -0.07344,0.03692 -0.177413,0.107808 -0.231209,0.157758 -0.0538,0.04997 -0.119992,0.129155 -0.147083,0.176114 -0.02712,0.04697 -0.06488,0.138105 -0.08389,0.202815 -0.01908,0.06469 -0.03372,0.175052 -0.03285,0.24551 8.67e-4,0.07045 0.0087,0.147295 0.01748,0.170789 0.01431,0.03908 0.02014,0.03629 0.06595,-0.03203 0.02754,-0.04098 0.08452,-0.111642 0.126794,-0.156699 0.04205,-0.04505 0.122314,-0.105022 0.178048,-0.133418 0.05572,-0.02819 0.20472,-0.08158 0.33089,-0.118294 0.126155,-0.03671 0.299081,-0.09928 0.384257,-0.138768 0.09864,-0.04589 0.195742,-0.112703 0.267472,-0.184006 0.06211,-0.06168 0.138979,-0.167374 0.170791,-0.234838 0.03203,-0.06746 0.06873,-0.17312 0.08176,-0.234836 0.01331,-0.06168 0.02038,-0.19084 0.01589,-0.287108 -0.0041,-0.09627 -0.01748,-0.184881 -0.02943,-0.196827 -0.0028,-0.0027 -0.0057,-0.0041 -0.0093,-0.0039 z m -26.3770226,0.46135 -0.034563,0.0854 c -0.019073,0.04697 -0.054667,0.179106 -0.07943,0.293532 -0.029458,0.135774 -0.04503,0.284138 -0.04503,0.426954 1.914e-4,0.120413 0.014036,0.305271 0.031386,0.410942 0.016956,0.105688 0.055524,0.276237 0.085185,0.378921 0.029879,0.102687 0.084519,0.246783 0.1214448,0.320213 0.036924,0.07344 0.092014,0.171638 0.1227482,0.218599 0.030516,0.04675 0.069791,0.103929 0.087521,0.127012 0.017485,0.02303 0.089666,0.103353 0.1601152,0.178497 0.070456,0.07514 0.1857296,0.180377 0.2561856,0.233749 0.070456,0.05359 0.2049317,0.133636 0.2988661,0.178235 0.093927,0.04441 0.276453,0.107795 0.4056075,0.140672 0.2209561,0.05614 0.2615083,0.05982 0.683125,0.05917 0.3904482,-5.21e-4 0.4897147,-0.0081 0.7685166,-0.05766 0.1761142,-0.03139 0.4427504,-0.07196 0.5923986,-0.09012 0.1496529,-0.01828 0.3609895,-0.03284 0.4696476,-0.03284 0.1086541,0 0.2839243,0.0106 0.3895967,0.02358 0.1056874,0.01276 0.3024935,0.05142 0.4376265,0.08583 0.147295,0.03735 0.3351562,0.105259 0.4696482,0.169731 0.123169,0.05893 0.262567,0.132781 0.30954,0.163956 0.04697,0.03119 0.108653,0.0762 0.137046,0.100312 l 0.05186,0.04379 c -0.07751,-0.13236 -0.145785,-0.233116 -0.201726,-0.309542 -0.05595,-0.07642 -0.14303,-0.178232 -0.193833,-0.226492 -0.0508,-0.04826 -0.140252,-0.125097 -0.199185,-0.170792 -0.0587,-0.0457 -0.1835832,-0.123193 -0.2775172,-0.17206 -0.09371,-0.0491 -0.2427281,-0.113124 -0.3306809,-0.142792 -0.088175,-0.02945 -0.2369548,-0.07344 -0.3308893,-0.09777 -0.093921,-0.0241 -0.2525568,-0.05915 -0.3522374,-0.07773 -0.1227478,-0.0225 -0.4062484,-0.0395 -0.8752557,-0.05166 C 7.557265,35.478441 7.2223201,35.459361 7.1102449,35.44016 7.0103298,35.423203 6.8423317,35.387247 6.7366604,35.36077 6.6310068,35.334094 6.4772997,35.28438 6.3951025,35.250219 6.3129177,35.215831 6.1880244,35.152855 6.1175821,35.110153 6.0471264,35.067454 5.9280125,34.9744 5.8528689,34.903314 5.7777294,34.832216 5.647724,34.682779 5.563842,34.571341 5.4799597,34.459912 5.3655055,34.277168 5.3095915,34.165733 5.2536473,34.054294 5.1800148,33.871567 5.146059,33.760128 5.1118896,33.648701 5.0715443,33.494991 5.0559456,33.418567 Z m 5.6539626,1.33402 c -1.9e-4,1.9e-5 -2.77e-4,0 -3.82e-4,3.47e-4 0,1.6e-5 0,0 -1.9e-4,0 0,0 -1.91e-4,3.48e-4 -1.91e-4,3.48e-4 -0.0031,0.0057 0.05467,0.07074 0.133024,0.149255 0.08219,0.08241 0.154342,0.149839 0.160116,0.149839 0.0061,0 -0.05358,-0.06747 -0.132115,-0.149653 -0.07878,-0.08241 -0.150713,-0.149627 -0.160115,-0.149839 0,0 -1.92e-4,-7e-6 -1.92e-4,0 z m 16.559381,2.419965 c -0.07009,0 -0.11233,0.0018 -0.1149,0.0044 v 0 0 0 0 c 0,1.5e-5 0,3.47e-4 0,3.47e-4 v 0 0 0 0 0 c 0.001,10e-4 0.0072,0.0022 0.0188,0.0031 0.04697,0.0044 0.128736,0.0044 0.181464,0 0.01484,-0.0012 0.0225,-0.0025 0.02357,-0.0034 v 0 0 0 0 0 0 0 0 0 0 0 c -0.0025,-0.0025 -0.04196,-0.0041 -0.109082,-0.0041 z"
       style="fill:#d82624;fill-opacity:1;stroke-width:0.0213476" />
    <path
       id="Path 3-2-9-3-9-8-6"
       class="s3"
       d="m 11.669916,14.877933 c -0.0196,0.04697 -0.06425,0.174207 -0.09885,0.282858 -0.0348,0.108654 -0.07772,0.281576 -0.09542,0.384256 -0.01774,0.102688 -0.03203,0.292465 -0.0318,0.421619 4.11e-4,0.145601 0.01589,0.307832 0.04077,0.426951 0.02198,0.105687 0.05999,0.245087 0.08433,0.309543 0.02411,0.06447 0.0843,0.179955 0.133419,0.256159 0.04932,0.07622 0.138556,0.186788 0.198547,0.245511 0.05999,0.0587 0.243578,0.202575 0.407742,0.319573 0.164167,0.11721 0.369527,0.28051 0.455985,0.362911 0.08665,0.08262 0.214336,0.236532 0.283499,0.342202 0.06937,0.105653 0.147508,0.247419 0.173545,0.314881 0.02595,0.06746 0.05207,0.122951 0.05808,0.12317 0.0057,1.45e-4 0.02988,-0.07898 0.05337,-0.176114 0.03565,-0.147721 0.0425,-0.245935 0.04119,-0.6035 -0.0015,-0.419912 -0.0025,-0.430157 -0.06895,-0.629757 -0.03692,-0.111642 -0.103544,-0.26514 -0.147929,-0.341352 -0.05038,-0.08709 -0.168858,-0.226281 -0.317444,-0.373585 -0.130418,-0.129358 -0.351381,-0.345616 -0.490992,-0.480534 -0.145602,-0.140674 -0.2835,-0.295663 -0.323206,-0.36291 -0.03801,-0.06447 -0.09671,-0.184669 -0.130418,-0.266849 -0.03372,-0.08219 -0.08324,-0.240584 -0.109951,-0.352235 -0.02668,-0.111642 -0.0557,-0.222017 -0.06425,-0.245485 -0.01358,-0.03692 -0.02039,-0.03118 -0.05123,0.04269 z m -5.7751851,4.824579 c -8.497e-4,0.01167 -0.011403,0.07898 -0.023309,0.149441 -0.011947,0.07045 -0.022249,0.252979 -0.022509,0.405607 -6.381e-4,0.153494 0.013575,0.368248 0.031604,0.480322 0.018272,0.111642 0.051016,0.255735 0.073212,0.320213 0.022249,0.06446 0.067251,0.170366 0.099915,0.234837 0.032662,0.06447 0.1035388,0.174631 0.1577585,0.244424 0.054219,0.07 0.146448,0.164804 0.2051434,0.210706 0.058701,0.04612 0.1690687,0.114848 0.2455114,0.152858 0.076199,0.03823 0.2252211,0.100553 0.3308887,0.138767 0.1056571,0.03822 0.2587281,0.10439 0.3400674,0.147084 0.081344,0.04269 0.2102828,0.130418 0.2866983,0.194894 0.076415,0.06447 0.1731208,0.168008 0.2149707,0.229908 0.071733,0.106105 0.077285,0.109748 0.094348,0.06405 0.00978,-0.02668 0.013304,-0.158818 0.00774,-0.293958 -0.00801,-0.185518 -0.024097,-0.287128 -0.065949,-0.41628 -0.030748,-0.09393 -0.096073,-0.24294 -0.1453892,-0.33089 Q 7.6359832,21.474379 7.4523987,21.292934 C 7.3514255,21.193235 7.2162911,21.079658 7.1522495,21.040589 7.0882011,21.001736 6.935134,20.915275 6.8123943,20.848451 6.6872977,20.780352 6.533595,20.675753 6.4625051,20.609774 6.3929038,20.545308 6.2947086,20.434719 6.2443306,20.364291 6.1941567,20.293838 6.1055635,20.135229 6.0479272,20.012053 5.990083,19.888882 5.9324419,19.763787 5.9196268,19.734533 c -0.01276,-0.02924 -0.023838,-0.04376 -0.024639,-0.03203 z m 4.8484831,0.304201 c -0.02172,0.04397 -0.0602,0.132998 -0.08539,0.197463 -0.02518,0.06447 -0.08433,0.275817 -0.131722,0.469652 -0.04718,0.193835 -0.09671,0.433997 -0.109951,0.533693 -0.01343,0.102259 -0.0188,0.293316 -0.01195,0.437627 0.0064,0.140886 0.02734,0.337932 0.04633,0.437626 0.01908,0.0997 0.05914,0.258302 0.08923,0.352237 0.0301,0.09394 0.09371,0.257245 0.141309,0.362914 0.04782,0.105654 0.160328,0.32192 0.250411,0.48032 0.09008,0.158393 0.195106,0.355439 0.23375,0.437629 0.03842,0.08219 0.08817,0.202361 0.110582,0.266845 0.02225,0.06447 0.04055,0.127011 0.04035,0.138766 0,0.01167 -0.0506,0.03224 -0.112285,0.04548 -0.06168,0.0133 -0.189145,0.05614 -0.28307,0.09522 -0.09392,0.03885 -0.257245,0.128938 -0.362698,0.199821 -0.105653,0.07109 -0.311034,0.244424 -0.456627,0.385325 -0.1456012,0.140887 -0.3394302,0.356933 -0.4312232,0.480323 -0.091818,0.123168 -0.2107057,0.312956 -0.2640777,0.421616 -0.053376,0.108655 -0.1227489,0.281576 -0.1543408,0.38426 -0.049964,0.163532 -0.0572,0.224796 -0.058699,0.490996 -8.474e-4,0.187213 -0.00946,0.30442 -0.022784,0.30463 -0.011658,4.31e-4 -0.1030999,-0.04802 -0.2027976,-0.107585 C 8.8676517,26.762021 8.734446,26.663388 8.6714675,26.602335 8.6084805,26.541075 8.4906393,26.392715 8.4099593,26.272302 8.2965915,26.103445 8.2596701,26.06202 8.2485722,26.090837 c -0.00815,0.02038 -0.00282,0.200667 0.011674,0.400268 0.01431,0.199608 0.044842,0.473276 0.067676,0.60841 0.022783,0.135142 0.06511,0.341561 0.093509,0.458972 0.0286,0.117414 0.085388,0.309538 0.1261553,0.426953 0.040555,0.117414 0.1065254,0.290323 0.1464478,0.384256 0.039911,0.09393 0.1189066,0.25253 0.1756901,0.352232 0.056788,0.0997 0.1566996,0.253616 0.2222292,0.341562 0.065311,0.08817 0.2734634,0.318512 0.4623899,0.51235 0.1891453,0.193833 0.3646183,0.385967 0.3900223,0.426956 0.02542,0.04097 0.08092,0.180377 0.1233732,0.309541 0.04227,0.129155 0.106319,0.287764 0.142185,0.352236 0.03587,0.06447 0.110999,0.179743 0.166949,0.256183 0.05595,0.07642 0.162897,0.196405 0.237591,0.267061 0.07472,0.07045 0.212613,0.178896 0.306552,0.240797 0.09393,0.06191 0.372516,0.212189 0.619083,0.334094 0.268339,0.132564 0.486938,0.255099 0.544364,0.3057 0.05273,0.04632 0.241432,0.270472 0.419267,0.498252 0.177836,0.22779 0.471359,0.587062 0.652599,0.798405 0.18104,0.21134 0.466661,0.533053 0.634667,0.715147 0.167798,0.182099 0.469223,0.527713 0.669251,0.768516 0.200244,0.240794 0.432078,0.504235 0.51512,0.585569 0.08324,0.08134 0.247206,0.219448 0.364616,0.306766 0.117414,0.0873 0.275814,0.195105 0.352237,0.239524 0.0762,0.04439 0.229909,0.121255 0.341561,0.170578 0.111428,0.04932 0.289261,0.112061 0.394934,0.139191 0.105653,0.02712 0.312104,0.0602 0.458975,0.07321 0.191264,0.01696 0.330251,0.01748 0.491002,0.0012 0.123373,-0.01249 0.300999,-0.04313 0.39493,-0.0681 0.09392,-0.02517 0.257246,-0.08346 0.362911,-0.129793 0.105688,-0.04632 0.26408,-0.127663 0.352235,-0.180828 0.08794,-0.05294 0.208138,-0.132141 0.266849,-0.17569 0.0587,-0.04355 0.177811,-0.150501 0.264502,-0.237591 0.08668,-0.08709 0.226917,-0.244848 0.311676,-0.35053 0.08476,-0.105655 0.211554,-0.278587 0.28179,-0.38426 0.07024,-0.105653 0.181252,-0.283495 0.246571,-0.394932 0.06531,-0.111429 0.210283,-0.385324 0.32235,-0.608409 0.111856,-0.223074 0.267486,-0.55931 0.345621,-0.747167 0.07813,-0.187848 0.26855,-0.713868 0.423112,-1.168787 0.15434,-0.455135 0.283066,-0.824874 0.285841,-0.821887 0.0028,0.0028 -0.0056,0.125518 -0.01855,0.272184 -0.01303,0.146872 -0.01854,0.401337 -0.01249,0.565713 0.0064,0.16438 0.03118,0.40454 0.05529,0.533695 0.02411,0.129154 0.07536,0.34455 0.114005,0.478826 0.03842,0.134057 0.07962,0.247206 0.09136,0.251046 0.01167,0.0039 0.05889,-0.06253 0.104819,-0.147932 0.04589,-0.08519 0.126576,-0.222228 0.179106,-0.304417 0.05273,-0.08219 0.150925,-0.216666 0.218175,-0.29887 0.06747,-0.08219 0.188721,-0.212401 0.269193,-0.289259 0.08071,-0.07683 0.213912,-0.193622 0.296093,-0.259364 0.08219,-0.06574 0.2551,-0.178259 0.38426,-0.249987 0.129157,-0.07173 0.335587,-0.172273 0.458973,-0.223499 0.123373,-0.05122 0.274531,-0.108891 0.336227,-0.127881 0.06168,-0.01933 0.111428,-0.04206 0.110808,-0.0508 -6.91e-4,-0.0087 -0.06532,-0.04632 -0.144092,-0.08346 -0.07855,-0.03734 -0.21007,-0.119967 -0.292252,-0.183797 -0.08219,-0.06383 -0.193412,-0.168009 -0.247207,-0.231419 -0.05359,-0.06319 -0.139613,-0.177412 -0.19084,-0.253827 -0.05123,-0.07642 -0.129155,-0.215607 -0.17312,-0.309541 -0.04376,-0.09392 -0.109308,-0.276457 -0.14539,-0.405608 -0.03607,-0.129156 -0.07279,-0.295022 -0.08156,-0.368462 -0.0087,-0.07344 -0.0085,-0.133634 3.44e-4,-0.133418 0.0087,0 0.09051,0.06362 0.181465,0.140887 0.09092,0.0775 0.328752,0.249775 0.528353,0.382764 0.2075,0.138556 0.486299,0.30143 0.651104,0.381058 0.158395,0.07642 0.388954,0.172062 0.512344,0.2124 0.123399,0.04033 0.329823,0.09585 0.458979,0.123617 0.203449,0.04333 0.29481,0.05016 0.683123,0.0506 0.36526,5.2e-4 0.479898,-0.0072 0.619086,-0.0397 0.09393,-0.02198 0.228424,-0.05893 0.298868,-0.08176 0.07045,-0.02306 0.224136,-0.08346 0.341561,-0.134503 0.117414,-0.05102 0.333451,-0.156277 0.480322,-0.233963 0.146659,-0.07773 0.401337,-0.202151 0.565717,-0.276664 0.16438,-0.07452 0.366112,-0.159455 0.4483,-0.188724 0.08219,-0.02924 0.321923,-0.09991 0.532626,-0.157121 0.210705,-0.0572 0.397918,-0.114645 0.416277,-0.127879 0.0269,-0.01933 -0.0072,-0.03908 -0.180378,-0.104391 -0.117413,-0.04439 -0.244636,-0.09371 -0.28286,-0.109748 l -0.06938,-0.02882 c 0.103736,-0.09092 0.148805,-0.146236 0.167162,-0.181466 0.01828,-0.03522 0.0489,-0.126372 0.06789,-0.202813 l 0.03459,-0.138766 c 0.87504,-0.0225 1.032589,-0.0348 1.128654,-0.06191 0.07045,-0.02014 0.149653,-0.05016 0.176114,-0.06725 0.02648,-0.01697 0.07299,-0.05743 0.103748,-0.08967 0.03052,-0.03223 0.08346,-0.116327 0.117413,-0.186788 0.03392,-0.07045 0.09542,-0.262569 0.136619,-0.426951 0.04098,-0.16438 0.09798,-0.409238 0.126373,-0.544367 0.0284,-0.135142 0.06232,-0.341564 0.07558,-0.458974 0.01304,-0.117412 0.01748,-0.23269 0.0095,-0.256159 -0.01223,-0.03671 -0.02491,-0.04035 -0.09159,-0.02595 -0.04269,0.009 -0.11206,0.04269 -0.154553,0.07472 -0.04229,0.0318 -0.122314,0.111011 -0.177835,0.17548 -0.05531,0.06447 -0.142608,0.203873 -0.193623,0.309543 -0.05102,0.105654 -0.107797,0.228215 -0.126373,0.272184 -0.01827,0.04396 -0.04311,0.08004 -0.05485,0.08004 -0.01167,0 -0.03095,-0.04801 -0.04269,-0.106737 -0.01167,-0.0587 -0.02119,-0.248477 -0.02066,-0.421615 6.92e-4,-0.275173 -0.0039,-0.319362 -0.03734,-0.350101 -0.02092,-0.0196 -0.134055,-0.07109 -0.251467,-0.114644 -0.117414,-0.04354 -0.324059,-0.134477 -0.458979,-0.201728 -0.135142,-0.06745 -0.303136,-0.159241 -0.373583,-0.204084 -0.07045,-0.04461 -0.200245,-0.134057 -0.288192,-0.198522 -0.08818,-0.06469 -0.235684,-0.190206 -0.3279,-0.279441 -0.09243,-0.08903 -0.223076,-0.229063 -0.290548,-0.311249 -0.06746,-0.08219 -0.159452,-0.207078 -0.204719,-0.27752 -0.04526,-0.07045 -0.176961,-0.334519 -0.292676,-0.587061 -0.157758,-0.343484 -0.249141,-0.51277 -0.363555,-0.672454 -0.08412,-0.117414 -0.221168,-0.295238 -0.304417,-0.394931 -0.08325,-0.0997 -0.251682,-0.276451 -0.374011,-0.392583 -0.122314,-0.116125 -0.244001,-0.224375 -0.270478,-0.240161 -0.04528,-0.02734 -0.05848,-0.01933 -0.224162,0.137045 -0.09692,0.09137 -0.23375,0.201304 -0.304204,0.244425 -0.07045,0.04311 -0.209859,0.108022 -0.309543,0.143878 -0.09991,0.03608 -0.186152,0.06083 -0.192139,0.05506 -0.0061,-0.0057 0.03392,-0.09501 0.08861,-0.197886 0.05464,-0.103116 0.144728,-0.28841 0.200244,-0.411583 0.05552,-0.123169 0.137046,-0.325126 0.181252,-0.448303 0.04418,-0.123169 0.101176,-0.320215 0.126577,-0.437628 0.02542,-0.117414 0.05999,-0.309541 0.07663,-0.426954 0.01667,-0.117413 0.03052,-0.319148 0.03052,-0.4483 3.5e-4,-0.129154 -0.0099,-0.297162 -0.0225,-0.373584 -0.01249,-0.07642 -0.02754,-0.143667 -0.03351,-0.149441 -0.0061,-0.0057 -0.03139,0.01827 -0.05659,0.05337 -0.02491,0.03522 -0.103545,0.125097 -0.174419,0.199819 -0.07089,0.07494 -0.234386,0.214972 -0.363554,0.311464 -0.129156,0.0965 -0.388526,0.277307 -0.576384,0.401765 -0.187849,0.124458 -0.422899,0.291607 -0.522377,0.371662 -0.09928,0.08004 -0.237167,0.212852 -0.306126,0.295024 -0.07109,0.08476 -0.16523,0.232692 -0.217329,0.341565 -0.05038,0.105653 -0.11315,0.273889 -0.139191,0.373582 -0.02595,0.0997 -0.05889,0.28243 -0.07279,0.405606 l -0.02543,0.224163 c -0.07514,-0.198521 -0.119328,-0.342631 -0.146871,-0.448303 -0.02755,-0.105653 -0.05679,-0.273888 -0.06511,-0.373585 -0.0093,-0.10995 -0.005,-0.257244 0.01061,-0.373584 0.01377,-0.105687 0.05102,-0.26898 0.08241,-0.36291 0.03161,-0.09393 0.09798,-0.235684 0.14793,-0.31488 l 0.09092,-0.144092 c -0.306126,-0.144937 -0.505515,-0.230544 -0.64043,-0.28371 -0.135143,-0.05337 -0.404114,-0.150076 -0.597738,-0.215182 -0.193836,-0.06511 -0.553971,-0.17548 -0.800539,-0.245696 -0.24657,-0.07004 -0.556318,-0.156911 -0.688462,-0.192987 -0.132142,-0.03607 -0.240372,-0.05849 -0.240796,-0.04973 -3.47e-4,0.0087 0.08283,0.08817 0.18467,0.176115 0.101808,0.08817 0.266419,0.24657 0.365899,0.352235 0.09949,0.105654 0.241431,0.283284 0.315947,0.394933 0.0743,0.111642 0.170577,0.279654 0.213909,0.373583 0.04333,0.09392 0.101605,0.247628 0.129577,0.341563 0.02797,0.09392 0.06149,0.252557 0.07408,0.352239 0.01508,0.11763 0.01667,0.237804 0.0041,0.34156 -0.01061,0.08817 -0.0284,0.158183 -0.03971,0.15564 -0.0114,-0.0025 -0.09265,-0.03439 -0.18059,-0.07109 -0.08818,-0.0365 -0.270687,-0.09839 -0.405606,-0.137467 -0.135142,-0.03907 -0.365685,-0.09137 -0.512344,-0.116571 -0.146872,-0.02515 -0.391731,-0.05142 -0.544366,-0.0587 -0.169279,-0.0081 -0.385753,-0.0024 -0.555039,0.01431 -0.152644,0.01484 -0.369958,0.04759 -0.482673,0.07258 l -0.205354,0.04528 c -0.195136,-0.175909 -0.329851,-0.255529 -0.560835,-0.367187 -0.182099,-0.08794 -0.378921,-0.182312 -0.437627,-0.209831 -0.0587,-0.02754 -0.178895,-0.09735 -0.266846,-0.155191 -0.08817,-0.05784 -0.217752,-0.157759 -0.288195,-0.221803 -0.07045,-0.06427 -0.185516,-0.192776 -0.255972,-0.285847 -0.07024,-0.09307 -0.167162,-0.245934 -0.214971,-0.339853 -0.04801,-0.09393 -0.110583,-0.250201 -0.138978,-0.347329 -0.0286,-0.09691 -0.05679,-0.176539 -0.06253,-0.176751 -0.0061,-1.47e-4 -0.04825,0.07452 -0.09414,0.165864 -0.04589,0.09136 -0.106522,0.233327 -0.134707,0.31552 -0.0284,0.08219 -0.07472,0.259787 -0.103319,0.394929 -0.02902,0.137893 -0.05186,0.318085 -0.05186,0.410946 -3.45e-4,0.09092 0.01456,0.235048 0.03244,0.320215 0.01774,0.08519 0.08476,0.308474 0.148805,0.496332 0.06405,0.187847 0.130881,0.403898 0.148595,0.480326 0.01774,0.07642 0.03243,0.203661 0.03266,0.282855 0,0.0792 -0.01456,0.213699 -0.03266,0.298866 -0.01801,0.08519 -0.05401,0.19725 -0.08004,0.249351 -0.02595,0.05211 -0.09519,0.136621 -0.153917,0.187847 -0.06063,0.05294 -0.15286,0.108022 -0.213488,0.127216 -0.07388,0.02358 -0.146025,0.0301 -0.23481,0.02145 -0.101605,-0.01006 -0.152435,-0.02946 -0.24506,-0.09371 -0.06426,-0.04461 -0.165017,-0.143455 -0.224163,-0.219872 -0.05893,-0.07633 -0.23208,-0.263548 -0.384711,-0.416194 -0.152647,-0.152646 -0.349674,-0.331102 -0.437628,-0.396851 -0.08817,-0.06554 -0.241855,-0.167162 -0.341563,-0.225646 -0.09991,-0.05828 -0.263203,-0.140884 -0.362909,-0.183158 -0.09991,-0.0425 -0.388098,-0.135986 -0.640431,-0.207924 -0.252581,-0.07173 -0.511969,-0.150291 -0.576439,-0.174208 -0.06469,-0.02383 -0.194258,-0.08198 -0.288192,-0.129156 -0.09392,-0.04697 -0.237802,-0.130213 -0.319577,-0.184881 -0.08198,-0.05464 -0.253402,-0.200242 -0.381268,-0.323417 -0.127689,-0.12317 -0.2784,-0.286488 -0.334971,-0.362912 -0.05659,-0.07642 -0.150713,-0.234838 -0.209408,-0.352236 -0.05849,-0.117413 -0.139615,-0.309543 -0.179956,-0.426954 -0.04033,-0.117414 -0.08861,-0.283074 -0.107379,-0.368248 -0.0188,-0.08519 -0.04418,-0.154765 -0.05636,-0.154765 -0.01223,0 -0.03991,0.03607 -0.06168,0.08004 z M 7.7726851,31.587832 c -0.058904,0.120413 -0.1216756,0.276454 -0.1394024,0.346899 -0.017743,0.07045 -0.032227,0.192986 -0.032227,0.272182 2.063e-4,0.0792 0.014838,0.213697 0.033083,0.298872 0.018014,0.08519 0.06831,0.226915 0.1118611,0.314875 0.052306,0.105901 0.1295766,0.213063 0.2286384,0.316798 0.082403,0.08624 0.2023617,0.191474 0.26706,0.233962 0.064466,0.0425 0.2085601,0.122111 0.3202151,0.177172 0.1114263,0.05506 0.3757152,0.162659 0.5870599,0.239102 0.2113433,0.07619 0.4707143,0.175901 0.5763856,0.221167 0.105688,0.04548 0.264079,0.123617 0.3522412,0.173996 0.08796,0.05018 0.246569,0.1554 0.352235,0.233963 0.105653,0.07835 0.283922,0.233961 0.396424,0.345829 0.112286,0.111856 0.234835,0.241881 0.272183,0.288836 0.03759,0.04697 0.06831,0.07109 0.06852,0.05337 1.91e-4,-0.01775 -0.02039,-0.09929 -0.04528,-0.181465 -0.02517,-0.08219 -0.0843,-0.22628 -0.131503,-0.320218 -0.04718,-0.09392 -0.125098,-0.228426 -0.173121,-0.298866 -0.04782,-0.07045 -0.154766,-0.198946 -0.237167,-0.285843 -0.08261,-0.08667 -0.222228,-0.212613 -0.310183,-0.279869 -0.08817,-0.06703 -0.246569,-0.178261 -0.3522342,-0.246996 -0.105682,-0.06875 -0.3938648,-0.222871 -0.6404272,-0.342422 -0.2465701,-0.119749 -0.510851,-0.26151 -0.5870608,-0.315309 -0.076411,-0.0538 -0.204296,-0.162869 -0.284354,-0.242305 -0.080044,-0.07942 -0.1803777,-0.197252 -0.2232879,-0.261931 -0.042689,-0.06469 -0.1056563,-0.184645 -0.1398252,-0.266848 -0.034169,-0.08219 -0.075356,-0.211765 -0.091375,-0.288192 -0.015896,-0.07642 -0.029025,-0.19876 -0.029241,-0.272184 -2.077e-4,-0.07344 -0.00978,-0.133419 -0.021191,-0.133419 -0.011404,0 -0.068949,0.09839 -0.1280967,0.218813 z m 21.4546369,2.782669 c -0.01456,0.0457 -0.07452,0.179319 -0.133418,0.296737 -0.05893,0.117414 -0.156911,0.290325 -0.217965,0.384257 -0.06104,0.09393 -0.173569,0.242942 -0.249986,0.330887 -0.07642,0.08817 -0.205567,0.210493 -0.286915,0.272185 -0.08133,0.06168 -0.220083,0.149441 -0.308044,0.195343 -0.08817,0.0457 -0.236955,0.107379 -0.330892,0.136834 -0.09393,0.02945 -0.271544,0.06596 -0.394934,0.08134 -0.179954,0.02199 -0.2852,0.02252 -0.533692,0.0013 -0.170127,-0.01431 -0.492062,-0.05421 -0.715145,-0.08861 -0.223077,-0.03437 -0.511276,-0.07388 -0.640432,-0.08772 -0.134708,-0.01456 -0.339427,-0.01985 -0.480322,-0.01249 -0.135143,0.0072 -0.327257,0.02712 -0.426953,0.04439 -0.09991,0.01748 -0.272823,0.06127 -0.384259,0.09778 -0.111429,0.03629 -0.274957,0.104593 -0.362911,0.151984 -0.08818,0.04718 -0.231207,0.140249 -0.318291,0.207076 -0.08688,0.06661 -0.199397,0.169069 -0.249987,0.22779 -0.05061,0.0587 -0.09243,0.114007 -0.09286,0.122749 -3.48e-4,0.0087 0.05936,-0.01696 0.13278,-0.0572 0.07344,-0.04012 0.210283,-0.09905 0.304205,-0.130636 0.09392,-0.0316 0.242729,-0.07024 0.330889,-0.08602 0.08903,-0.01589 0.311888,-0.02902 0.501669,-0.02946 0.19982,-5.21e-4 0.421407,0.01223 0.533696,0.03033 0.105653,0.01696 0.307404,0.06426 0.448299,0.104819 0.140886,0.04077 0.347541,0.107164 0.458974,0.14772 0.111427,0.04055 0.322781,0.108021 0.469652,0.150076 0.146659,0.04185 0.367606,0.09691 0.490993,0.122111 0.187875,0.03842 0.27411,0.04418 0.533693,0.03607 0.261933,-0.0082 0.337508,-0.0188 0.490999,-0.06831 0.0997,-0.03203 0.262992,-0.10012 0.362911,-0.151134 0.09969,-0.05102 0.253404,-0.153707 0.341562,-0.228216 0.08794,-0.07451 0.222443,-0.218175 0.298867,-0.319361 0.0762,-0.101176 0.18337,-0.273675 0.237801,-0.383401 0.05444,-0.109725 0.119748,-0.266633 0.144938,-0.348821 0.02517,-0.08219 0.05999,-0.231208 0.07728,-0.33089 0.0188,-0.108654 0.0303,-0.301219 0.0286,-0.480323 -0.0013,-0.16438 -0.0099,-0.326835 -0.01854,-0.360778 l -0.01589,-0.06211 z"
       style="fill:#333333;stroke-width:0.0213476" />
    <path
       id="Path 5-6-2-6-2-4-3"
       class="s1"
       d="m 19.555962,23.056873 c -0.02945,0.0041 -0.120617,0.01828 -0.202812,0.03096 -0.08219,0.01275 -0.235896,0.04633 -0.341561,0.07451 -0.105654,0.02819 -0.254465,0.07557 -0.330891,0.105654 -0.07642,0.02988 -0.201091,0.0888 -0.277521,0.130636 -0.07642,0.04185 -0.196402,0.116991 -0.266842,0.166736 -0.07045,0.04996 -0.190418,0.152197 -0.266849,0.227342 -0.07642,0.07513 -0.197249,0.213487 -0.268554,0.307407 -0.0713,0.09392 -0.249352,0.348608 -0.395361,0.565712 -0.146024,0.217117 -0.337294,0.505301 -0.425247,0.640432 -0.08775,0.135142 -0.245722,0.360776 -0.350956,0.501673 -0.105236,0.140884 -0.29268,0.35736 -0.416281,0.481174 -0.123808,0.123834 -0.284989,0.265567 -0.358427,0.314879 -0.07344,0.04953 -0.207926,0.1283 -0.298865,0.175053 -0.09092,0.04697 -0.237381,0.100973 -0.325551,0.120413 -0.118908,0.02623 -0.220507,0.03243 -0.394931,0.02383 -0.190205,-0.0093 -0.269192,-0.02383 -0.41628,-0.07728 -0.0997,-0.0363 -0.257668,-0.111858 -0.350956,-0.167797 -0.0933,-0.05595 -0.174418,-0.116123 -0.180166,-0.13384 -0.0082,-0.02517 5.88e-4,-0.0286 0.0414,-0.01668 0.0286,0.0082 0.145813,0.02517 0.260239,0.03738 0.145599,0.01536 0.270687,0.01509 0.41628,-10e-4 0.114425,-0.01276 0.265775,-0.04249 0.336221,-0.06617 0.07045,-0.02358 0.173758,-0.06621 0.229487,-0.09434 0.09223,-0.04654 0.100121,-0.05659 0.08817,-0.10995 -0.0074,-0.03223 -0.04973,-0.125952 -0.09392,-0.208137 -0.04418,-0.08219 -0.131938,-0.206017 -0.194893,-0.274959 -0.06277,-0.06914 -0.16716,-0.153704 -0.231631,-0.188085 -0.06447,-0.03439 -0.170367,-0.09434 -0.234836,-0.133202 -0.06447,-0.03908 -0.141311,-0.09434 -0.17079,-0.123168 -0.02924,-0.02883 -0.130879,-0.133202 -0.225856,-0.232268 -0.0948,-0.09885 -0.229275,-0.217752 -0.29887,-0.264077 -0.06937,-0.04632 -0.188722,-0.106105 -0.265138,-0.133 -0.07642,-0.02671 -0.181888,-0.0489 -0.234835,-0.04932 -0.05294,-4.33e-4 -0.149019,0.01484 -0.213489,0.03351 -0.06447,0.0188 -0.215818,0.07642 -0.336228,0.128299 l -0.21881,0.09414 c -0.388741,-0.08519 -0.578522,-0.115485 -0.67245,-0.122109 -0.120413,-0.0085 -0.217963,-0.0015 -0.33089,0.02358 -0.102688,0.02278 -0.219446,0.06979 -0.325552,0.131301 -0.101176,0.05828 -0.245299,0.172272 -0.370596,0.29289 -0.112702,0.108653 -0.278585,0.288619 -0.36846,0.400269 -0.08967,0.111642 -0.204296,0.284566 -0.25425,0.384257 -0.05016,0.0997 -0.1052372,0.24869 -0.1223152,0.33089 -0.01696,0.08219 -0.03119,0.197463 -0.03139,0.256158 -1.9e-4,0.0587 0.01484,0.193198 0.03372,0.29887 0.0188,0.105654 0.04269,0.213698 0.05337,0.240159 0.01061,0.02648 0.02883,0.04801 0.04054,0.04801 0.01167,0 0.06404,-0.03117 0.1161502,-0.06937 0.05231,-0.03823 0.193836,-0.14282 0.314879,-0.232691 0.121052,-0.09008 0.316157,-0.247629 0.43357,-0.350742 0.117413,-0.102901 0.247205,-0.219022 0.288195,-0.257879 0.04098,-0.03908 0.08198,-0.07109 0.09073,-0.07109 0.0087,-1.45e-4 0.01037,0.02623 0.0037,0.05848 -0.0069,0.03223 -0.04144,0.116328 -0.07728,0.18679 -0.03565,0.07045 -0.111428,0.195317 -0.168644,0.27752 -0.057,0.08219 -0.192987,0.247206 -0.301855,0.36675 -0.108857,0.119532 -0.289046,0.316799 -0.400695,0.438696 -0.111643,0.121689 -0.233116,0.278372 -0.270477,0.34839 -0.03714,0.06979 -0.08369,0.189356 -0.1035452,0.265778 -0.02595,0.0997 -0.0333,0.189782 -0.02595,0.320213 0.0061,0.105688 0.03033,0.239313 0.05806,0.320216 0.02595,0.07642 0.07705,0.181887 0.1133682,0.234835 0.03629,0.05294 0.148143,0.192986 0.248477,0.311461 0.100533,0.118473 0.215606,0.276886 0.255735,0.352246 0.04035,0.07536 0.105439,0.237801 0.144938,0.360982 0.04419,0.138131 0.106319,0.276667 0.161598,0.360781 0.04953,0.07536 0.143033,0.184431 0.207502,0.242729 0.06447,0.05828 0.194257,0.15156 0.288191,0.207503 0.09392,0.05614 0.319789,0.173968 0.501672,0.262355 0.181887,0.08814 0.393224,0.201304 0.469648,0.251047 0.07642,0.04997 0.19982,0.149441 0.274532,0.221169 0.07451,0.07151 0.213674,0.230969 0.309326,0.354366 0.09544,0.123399 0.239098,0.31061 0.319148,0.416284 0.08026,0.105653 0.29161,0.360134 0.470079,0.565286 0.178258,0.205355 0.38639,0.440613 0.462818,0.523229 0.07642,0.08241 0.211764,0.23142 0.300787,0.331102 0.08923,0.09991 0.182098,0.205593 0.206439,0.234836 0.02437,0.02946 0.178474,0.211765 0.342418,0.405605 0.163957,0.193835 0.374438,0.42439 0.467726,0.512346 0.0933,0.08813 0.197675,0.182524 0.232056,0.209832 0.03417,0.02755 0.13919,0.100758 0.233114,0.163109 0.09393,0.06211 0.252555,0.14666 0.352235,0.187847 0.0997,0.04097 0.258305,0.09159 0.352238,0.11206 0.136621,0.02988 0.232903,0.03522 0.480326,0.02595 0.224586,-0.0082 0.352027,-0.02358 0.464315,-0.05614 0.08519,-0.02463 0.214759,-0.07216 0.288194,-0.105237 0.07343,-0.03308 0.200668,-0.104592 0.282856,-0.158817 0.08219,-0.05421 0.235894,-0.179318 0.34156,-0.277947 0.105654,-0.09864 0.246147,-0.245722 0.312319,-0.326831 0.06617,-0.08112 0.187213,-0.248267 0.268979,-0.371663 0.08198,-0.123373 0.205356,-0.329823 0.274533,-0.458975 0.06895,-0.129156 0.194046,-0.378923 0.277732,-0.555041 0.08369,-0.176115 0.18851,-0.406674 0.23269,-0.512343 0.04439,-0.105688 0.116356,-0.283499 0.160328,-0.394935 0.04396,-0.111428 0.132998,-0.366112 0.197886,-0.565715 0.0649,-0.199607 0.158183,-0.502309 0.207291,-0.672453 0.04931,-0.170128 0.145362,-0.540094 0.213698,-0.821885 0.06831,-0.281787 0.163109,-0.718777 0.210283,-0.971322 0.04739,-0.252557 0.114848,-0.6415 0.150076,-0.864585 0.03522,-0.223075 0.07387,-0.477544 0.08602,-0.565707 0.01194,-0.08797 0.0316,-0.270475 0.04333,-0.405605 0.01167,-0.135143 0.02712,-0.360778 0.03439,-0.501668 0.0072,-0.140886 0.0028,-0.337936 -0.009,-0.437627 -0.01195,-0.0997 -0.02776,-0.239102 -0.03501,-0.309542 l -0.0133,-0.128098 c 0.08666,0.09928 0.163744,0.23375 0.227127,0.362909 0.06362,0.129156 0.139402,0.306981 0.168645,0.394935 0.02924,0.08817 0.07045,0.258516 0.09159,0.37892 l 0.03842,0.219023 c 0.297799,0.21688 0.504446,0.359921 0.651101,0.457693 0.146872,0.09798 0.355652,0.226917 0.464313,0.286913 0.108654,0.05999 0.30079,0.158181 0.426955,0.217964 0.126155,0.05999 0.344766,0.154978 0.485658,0.21113 0.140886,0.05636 0.361845,0.136197 0.491002,0.177624 0.129155,0.04119 0.364615,0.109083 0.523015,0.150501 0.158392,0.0414 0.35053,0.08624 0.426954,0.0997 0.07642,0.0133 0.254039,0.03777 0.394933,0.05421 0.140885,0.01669 0.434,0.0301 0.651104,0.0301 0.217118,0 0.481391,-0.0099 0.587059,-0.02172 0.105687,-0.01223 0.288195,-0.04143 0.40561,-0.0649 0.117413,-0.02357 0.328752,-0.07683 0.46965,-0.118051 0.140884,-0.04119 0.333023,-0.111856 0.426953,-0.1567 0.09798,-0.04718 0.183159,-0.103318 0.199608,-0.132142 0.01589,-0.02775 0.02819,-0.08409 0.02712,-0.125095 -0.001,-0.04291 -0.01933,-0.09286 -0.04313,-0.117415 -0.02278,-0.02358 -0.09734,-0.06873 -0.165864,-0.100758 -0.06852,-0.03203 -0.249351,-0.106961 -0.401979,-0.166525 -0.152645,-0.05979 -0.46004,-0.19831 -0.683121,-0.308044 -0.223077,-0.109748 -0.501673,-0.254039 -0.619086,-0.321068 -0.117413,-0.06683 -0.30954,-0.179744 -0.426951,-0.250836 -0.117412,-0.07109 -0.343059,-0.211976 -0.501459,-0.312956 -0.158182,-0.100974 -0.621648,-0.404539 -1.029812,-0.674587 -0.408171,-0.270048 -0.831068,-0.548211 -0.939726,-0.61823 -0.108653,-0.06979 -0.403898,-0.263865 -0.656439,-0.431007 -0.252529,-0.167162 -0.492706,-0.332387 -0.533692,-0.367184 -0.04098,-0.03459 -0.07004,-0.06852 -0.06405,-0.07514 0.0061,-0.0066 0.13088,0.0114 0.277521,0.04013 0.181252,0.03544 0.342201,0.05231 0.501669,0.05294 0.154554,4.35e-4 0.274959,-0.01117 0.352236,-0.03371 0.06469,-0.0188 0.151136,-0.05444 0.192139,-0.07921 0.04101,-0.02463 0.105901,-0.06937 0.144089,-0.09929 0.03823,-0.02988 0.06937,-0.06168 0.06937,-0.07045 0,-0.0087 -0.08409,-0.06257 -0.186789,-0.119529 -0.102699,-0.05679 -0.292463,-0.159454 -0.421617,-0.227791 -0.129155,-0.06852 -0.306764,-0.170154 -0.39493,-0.22607 -0.08797,-0.05595 -0.308904,-0.195316 -0.490998,-0.309755 -0.1821,-0.114426 -0.455773,-0.268124 -0.608408,-0.341561 -0.152648,-0.07344 -0.354373,-0.162897 -0.448302,-0.199186 -0.09393,-0.03607 -0.28606,-0.09413 -0.426954,-0.128938 -0.140886,-0.0348 -0.337933,-0.07321 -0.437628,-0.08519 -0.0997,-0.01195 -0.306338,-0.02039 -0.458975,-0.01907 -0.152647,0.0018 -0.301432,0.0063 -0.330891,0.01061 z"
       style="fill:#fbbf0c;fill-opacity:1;stroke-width:0.0213476" />
    <path
       id="Path 6-1-2-1-6-8-1"
       class="s2"
       d="m 25.981616,24.668408 c -0.06469,0.02304 -0.148566,0.06083 -0.186789,0.08389 -0.03822,0.02278 -0.08476,0.07279 -0.103319,0.110999 -0.03095,0.06278 -0.03095,0.07751 -0.0012,0.154766 0.01801,0.04697 0.06937,0.12169 0.114007,0.166075 0.04632,0.04589 0.11805,0.09051 0.166709,0.103544 0.04697,0.01249 0.157548,0.03523 0.245512,0.05061 0.08817,0.01536 0.203447,0.03927 0.256158,0.05337 0.05273,0.01378 0.206442,0.0775 0.341567,0.141308 0.135142,0.06362 0.247841,0.115486 0.250833,0.115269 0.0028,-1.49e-4 0.0053,-0.06768 0.0053,-0.149864 0,-0.08219 -0.01538,-0.195106 -0.03439,-0.250836 -0.0188,-0.05572 -0.05979,-0.153069 -0.09073,-0.216453 -0.03139,-0.06405 -0.108226,-0.163533 -0.173785,-0.224799 -0.07258,-0.06789 -0.158181,-0.12382 -0.224161,-0.146659 -0.06915,-0.0241 -0.16671,-0.03629 -0.277519,-0.03522 -0.11206,0.0013 -0.21113,0.01616 -0.288195,0.04397 z M 9.8498138,26.661857 c 0,0.08219 0.0039,0.111011 0.0085,0.06405 0.0044,-0.04697 0.0044,-0.11421 -1.91e-4,-0.149441 -0.0047,-0.03522 -0.0085,0.0031 -0.0082,0.0854 z m 11.3578212,0.27752 c 0,0.117414 0.0037,0.160539 0.0081,0.09607 0.0041,-0.06447 0.0041,-0.160539 -3.46e-4,-0.213488 -0.0041,-0.05294 -0.0081,0 -0.0076,0.117412 z"
       style="fill:#d82624;stroke-width:0.0213476" />
    <path
       id="Path 7-8-8-0-6-1-7"
       class="s0"
       d="m 18.680068,24.468382 -0.138131,0.14409 c 0.223712,-0.215183 0.288408,-0.279867 0.288408,-0.282857 -3.46e-4,-0.0028 -0.0028,-0.0053 -0.0061,-0.0053 -0.0031,0 -0.0681,0.0649 -0.144092,0.144091 z m -4.218301,5.481014 c 1.46e-4,0.129156 0.0037,0.177173 0.0081,0.106748 0.0041,-0.07045 0.0041,-0.176115 0,-0.23481 -0.0044,-0.05873 -0.0081,-0.001 -0.0081,0.128096 z"
       style="fill:#161616;stroke-width:0.0213476" />
    <path
       id="Path 8-7-9-6-4-0-5"
       class="s2"
       d="m 19.684049,23.653114 c 0.01775,0.0039 0.101616,0.01006 0.186788,0.01378 0.08497,0.0034 0.154767,-8.8e-4 0.154767,-0.0095 0,-0.0087 -0.08412,-0.01484 -0.186788,-0.01358 -0.102699,0.0013 -0.172486,0.0056 -0.154767,0.0093 z m -4.453338,7.043451 c 0,0.152646 0.0034,0.210283 0.0074,0.128095 0.0039,-0.08219 0.0039,-0.207075 0,-0.277519 -0.0041,-0.07045 -0.0074,-0.0031 -0.0074,0.149441 z"
       style="fill:#d82624;stroke-width:0.0213476" />
    <path
       id="Path 9-9-7-3-9-3-9"
       class="s3"
       d="m 19.37451,23.69538 c -0.09393,0.01589 -0.242943,0.05421 -0.33089,0.08539 -0.08818,0.03118 -0.222441,0.09092 -0.298869,0.13278 -0.07642,0.04185 -0.196404,0.119965 -0.266844,0.173545 -0.07045,0.05359 -0.175056,0.145813 -0.232689,0.20472 -0.05743,0.05889 -0.172699,0.198522 -0.256187,0.309968 -0.08325,0.111642 -0.233325,0.330248 -0.333022,0.486089 -0.09991,0.155613 -0.324703,0.501457 -0.499754,0.768515 -0.175055,0.266847 -0.395359,0.610117 -0.489716,0.762753 -0.09414,0.152645 -0.251892,0.416922 -0.350532,0.587063 -0.0984,0.170367 -0.268767,0.492059 -0.378494,0.71514 -0.109748,0.223076 -0.247631,0.535398 -0.306765,0.693797 -0.05889,0.158394 -0.14176,0.408383 -0.184008,0.555042 -0.04229,0.14687 -0.09519,0.372517 -0.117848,0.501672 -0.0225,0.129156 -0.05122,0.335801 -0.06342,0.458975 -0.01223,0.1234 -0.02119,0.368248 -0.02014,0.544366 l 0.0019,0.32022 c 0.07599,-0.347328 0.124459,-0.534764 0.1567,-0.640435 0.03223,-0.105687 0.116327,-0.34583 0.186576,-0.533689 0.07045,-0.187874 0.194045,-0.485665 0.275171,-0.661782 0.08092,-0.176114 0.246569,-0.507437 0.368035,-0.736497 0.121675,-0.228849 0.360561,-0.656438 0.53113,-0.94997 0.170553,-0.293526 0.413935,-0.701693 0.540951,-0.90727 0.126793,-0.205356 0.389814,-0.637657 0.5845,-0.960647 0.194682,-0.322778 0.372523,-0.615881 0.395363,-0.651103 0.02278,-0.03522 0.08772,-0.126372 0.144302,-0.202814 0.05659,-0.07642 0.172273,-0.208984 0.25682,-0.295025 0.08476,-0.08602 0.249987,-0.221592 0.367392,-0.301432 0.117413,-0.07984 0.295237,-0.189357 0.394933,-0.243364 0.0997,-0.05401 0.263205,-0.13194 0.362914,-0.173122 l 0.181464,-0.07494 c -0.34754,0.0027 -0.525154,0.01643 -0.619083,0.03203 z m -5.011581,6.154109 c -0.03095,0.113788 -0.07045,0.293103 -0.08796,0.398774 -0.01721,0.105688 -0.0378,0.268981 -0.04548,0.362912 -0.0076,0.09392 -0.0028,0.305271 0.01038,0.469648 0.01358,0.164382 0.03757,0.361416 0.0538,0.437629 0.01616,0.07642 0.05529,0.220534 0.08688,0.320216 0.0316,0.09991 0.09265,0.258303 0.135986,0.352235 0.04311,0.09392 0.125097,0.242942 0.181887,0.330888 0.05659,0.08817 0.137257,0.203447 0.178896,0.256184 0.04164,0.05273 0.129156,0.151348 0.194469,0.219022 0.06532,0.06767 0.125952,0.122952 0.13471,0.122749 0.0087,-3.49e-4 -0.02775,-0.09864 -0.08134,-0.219023 -0.05359,-0.120413 -0.158395,-0.386824 -0.232692,-0.592401 -0.07449,-0.205356 -0.155426,-0.445527 -0.179742,-0.533693 -0.02437,-0.08794 -0.07299,-0.299507 -0.107797,-0.469649 -0.03502,-0.170154 -0.07898,-0.429515 -0.09755,-0.576389 -0.0188,-0.146661 -0.03822,-0.447235 -0.04333,-0.667969 -0.005,-0.220507 -0.01721,-0.404754 -0.02709,-0.409238 -0.0095,-0.0047 -0.04291,0.08455 -0.07388,0.198101 z"
       style="fill:#333333;stroke-width:0.0213476" />
  </g>
</svg>
