<?xml version="1.0" encoding="UTF-8" standalone="no"?>
<!-- Created with Inkscape (http://www.inkscape.org/) -->

<svg
   width="206.1283mm"
   height="204.24983mm"
   viewBox="0 0 206.1283 204.24983"
   version="1.1"
   id="svg1"
   sodipodi:docname="logo.svg"
   inkscape:version="1.4.4 (dcaf3e7d9e, 2026-05-05)"
   inkscape:export-filename="Logotipo -  Alas Carbon y Cerdo.pdf"
   inkscape:export-xdpi="96"
   inkscape:export-ydpi="96"
   xmlns:inkscape="http://www.inkscape.org/namespaces/inkscape"
   xmlns:sodipodi="http://sodipodi.sourceforge.net/DTD/sodipodi-0.dtd"
   xmlns="http://www.w3.org/2000/svg"
   xmlns:svg="http://www.w3.org/2000/svg">
  <sodipodi:namedview
     id="namedview1"
     pagecolor="#505050"
     bordercolor="#eeeeee"
     borderopacity="1"
     inkscape:showpageshadow="0"
     inkscape:pageopacity="0"
     inkscape:pagecheckerboard="0"
     inkscape:deskcolor="#505050"
     inkscape:document-units="mm"
     inkscape:zoom="0.36391344"
     inkscape:cx="256.92923"
     inkscape:cy="820.25"
     inkscape:window-width="1920"
     inkscape:window-height="1022"
     inkscape:window-x="0"
     inkscape:window-y="0"
     inkscape:window-maximized="1"
     inkscape:current-layer="layer1" />
  <defs
     id="defs1">
    <rect
       x="3076"
       y="160"
       width="1848"
       height="176"
       id="rect8" />
    <rect
       x="3076"
       y="160"
       width="1528"
       height="356"
       id="rect9" />
  </defs>
  <g
     inkscape:label="Capa 1"
     inkscape:groupmode="layer"
     id="layer1"
     transform="translate(-2.1678788,-9.4722453)">
    <path
       id="Path 1-0-7-5-6-5-4"
       class="s1"
       d="m 33.076658,84.049135 c -0.156405,0.0085 -0.321388,0.0248 -0.456995,0.04698 -0.271213,0.04563 -0.53503,0.0606 -0.585574,0.03342 -0.05053,-0.02591 -0.304534,0.4092 -0.563421,0.968885 -0.258884,0.559686 -1.055216,1.904653 -1.768999,2.989508 -0.712551,1.084852 -1.825855,2.860065 -2.471837,3.944908 -0.645979,1.084846 -1.327599,2.278185 -1.514983,2.650475 -0.187383,0.3723 -0.528877,1.20443 -0.759408,1.849175 -0.230532,0.644739 -0.532503,1.614943 -0.670575,2.157366 -0.139305,0.542423 -0.283726,1.540968 -0.32071,2.219028 -0.03823,0.68542 -0.0022,1.80727 0.08282,2.52721 0.08383,0.71132 0.258664,1.70989 0.389339,2.21903 0.130676,0.5079 0.480823,1.42387 0.779159,2.0341 0.297101,0.61022 0.920977,1.63595 1.383273,2.27945 0.463527,0.64353 1.314138,1.66293 1.891082,2.26452 0.576943,0.60283 1.409075,1.36591 1.84918,1.6963 0.440105,0.33038 1.217994,0.81752 1.725901,1.08134 0.507909,0.26257 1.257443,0.57438 1.664262,0.6915 0.40682,0.11834 1.129147,0.3044 1.606235,0.41534 0.563383,0.13069 1.015817,0.32565 1.294426,0.55741 0.235463,0.19725 0.59429,0.58437 0.7977,0.86174 0.363672,0.49558 0.368604,0.52633 0.308196,1.67776 -0.03328,0.64474 -0.06047,2.00447 -0.05923,3.02152 0,1.46577 0.04801,1.98973 0.228016,2.52722 0.124511,0.37353 0.521517,1.28827 0.881492,2.03409 0.505443,1.04541 0.88021,1.61125 1.633442,2.46557 0.537497,0.61024 1.573026,1.63715 2.301602,2.28065 0.728577,0.64353 1.555825,1.32401 1.836901,1.51018 0.282308,0.18614 0.928313,0.47456 1.437454,0.63975 0.507908,0.16643 1.867671,0.55102 3.020327,0.85428 1.152656,0.30203 2.899515,0.71756 3.883279,0.92099 0.983764,0.2034 2.508721,0.49184 3.390163,0.63855 0.881444,0.14792 2.101901,0.40326 2.71213,0.56846 0.610231,0.1652 1.913287,0.51655 2.89705,0.78037 0.983764,0.26382 2.036565,0.57072 2.342296,0.68044 0.30573,0.10972 0.776654,0.33163 1.047866,0.4931 0.271215,0.1615 1.103346,0.88642 1.849181,1.6113 0.745837,0.72488 1.771516,1.67284 2.280656,2.10802 0.800079,0.68419 0.991161,0.79021 1.417705,0.79145 0.271214,0.002 0.559588,-0.0691 0.640951,-0.15796 0.08137,-0.0875 0.185054,-0.32535 0.230665,-0.52875 0.05301,-0.23917 -0.0085,-0.65215 -0.177458,-1.17116 -0.14177,-0.44132 -0.625195,-1.43866 -1.071465,-2.21901 -0.446268,-0.78035 -0.904827,-1.51998 -1.018244,-1.64573 -0.114649,-0.12573 -0.83954,-0.65337 -1.612498,-1.17114 -0.774189,-0.519 -1.772747,-1.26726 -2.219016,-1.66546 -0.447501,-0.39696 -1.230272,-1.05537 -1.73818,-1.46466 -0.509141,-0.40806 -1.230321,-0.89612 -1.602623,-1.08349 -0.372301,-0.18862 -1.538517,-0.54511 -2.588852,-0.7929 -1.050334,-0.24656 -2.299147,-0.59043 -2.77377,-0.76301 -0.474624,-0.1726 -1.071292,-0.39071 -1.325245,-0.48686 -0.253956,-0.095 -1.003489,-0.42661 -1.664262,-0.73727 -0.660775,-0.31065 -1.590295,-0.7051 -2.064919,-0.87523 -0.474623,-0.17135 -1.359887,-0.56955 -1.967651,-0.88391 -0.80501,-0.41914 -1.357088,-0.82231 -2.042518,-1.49789 -0.732275,-0.71994 -1.054131,-1.15634 -1.454786,-1.97244 -0.283542,-0.57572 -0.638658,-1.49168 -0.787825,-2.0341 -0.247791,-0.89748 -0.272483,-1.27348 -0.276181,-4.19147 -0.0037,-2.05754 0.06176,-3.80192 0.180109,-4.86951 0.102322,-0.91473 0.183771,-2.66283 0.181307,-3.88328 -0.0011,-1.32402 -0.07038,-2.59131 -0.170236,-3.14361 -0.09245,-0.50916 -0.300763,-1.31292 -0.463492,-1.78755 -0.161495,-0.47461 -0.583059,-1.38935 -0.936867,-2.03411 -0.510375,-0.93199 -0.893857,-1.42265 -1.876388,-2.403937 -0.678034,-0.678042 -1.539726,-1.411635 -1.912028,-1.629828 -0.372302,-0.219434 -0.84446,-0.433771 -1.047869,-0.479388 -0.283541,-0.06158 -0.435173,-0.01984 -0.647213,0.182272 -0.152865,0.144245 -0.276231,0.387199 -0.273765,0.540055 0.0011,0.152874 0.223134,0.763093 0.493114,1.356069 0.268748,0.592967 0.573272,1.397977 0.676825,1.787527 0.103554,0.38958 0.222014,1.18103 0.262694,1.75674 0.04316,0.59791 0.01464,1.41772 -0.0655,1.91083 -0.09123,0.5597 -0.271078,1.06882 -0.509006,1.44854 -0.203409,0.32174 -0.600356,0.73843 -0.883896,0.92457 -0.437638,0.28725 -0.678032,0.34645 -1.571803,0.38959 -1.014583,0.0493 -1.095984,0.0334 -2.042764,-0.41294 -0.712551,-0.3353 -1.182243,-0.66449 -1.695082,-1.19089 -0.47832,-0.49065 -0.86655,-1.05778 -1.195704,-1.74445 -0.306964,-0.64352 -0.583306,-1.4929 -0.752198,-2.31148 -0.220668,-1.075 -0.254988,-1.56688 -0.203214,-2.897059 0.03822,-0.978833 0.168733,-2.082155 0.33516,-2.835392 0.149166,-0.678039 0.620177,-2.204219 1.044257,-3.390154 0.424077,-1.187159 0.944241,-2.767585 1.153814,-3.513423 0.209573,-0.74584 0.471072,-1.772747 0.579557,-2.280657 0.108486,-0.509138 0.207022,-1.346178 0.219351,-1.860249 0.01479,-0.682968 -0.0296,-0.99119 -0.163975,-1.139118 -0.101088,-0.112185 -0.351343,-0.218165 -0.554753,-0.237895 -0.101705,-0.0092 -0.24954,-0.0087 -0.405956,0 z M 186.39439,107.02351 c -0.32389,-0.008 -0.4746,0.0296 -0.55042,0.12566 -0.0752,0.0937 -0.17509,0.28118 -0.2244,0.41679 -0.0481,0.13561 -0.13918,0.99609 -0.20081,1.91083 -0.0616,0.91473 -0.21827,2.0797 -0.3465,2.58885 -0.12944,0.5079 -0.41543,1.28456 -0.63733,1.7259 -0.22066,0.44134 -0.63611,1.10581 -0.92458,1.47935 -0.28724,0.37353 -0.84833,0.98631 -1.24652,1.36231 -0.39819,0.37724 -0.9738,0.85661 -1.2783,1.06618 -0.3045,0.20958 -1.02691,0.61638 -1.60261,0.90485 -0.57695,0.28846 -1.40909,0.65971 -1.8492,0.8249 -0.44133,0.1652 -1.35605,0.43274 -2.03409,0.59424 -0.79515,0.18986 -1.93424,0.33648 -3.20525,0.41414 -1.20936,0.074 -2.21163,0.20099 -2.58885,0.32674 -0.33901,0.11343 -0.81118,0.30442 -1.04787,0.42401 -0.23793,0.11958 -0.73597,0.46484 -1.10951,0.76689 -0.37354,0.30078 -0.92828,0.93071 -1.23278,1.39916 -0.30451,0.46846 -0.77922,1.40659 -1.05414,2.08587 -0.27368,0.67926 -0.72356,1.56682 -0.9997,1.97366 -0.27615,0.40682 -0.74571,0.96392 -1.04282,1.23759 -0.2971,0.27369 -0.90127,0.74231 -1.34137,1.04066 -0.44134,0.29956 -1.35607,0.80864 -2.0341,1.13287 -0.70023,0.33407 -1.71235,0.69898 -2.3423,0.84198 -0.75446,0.1726 -1.91822,0.29207 -3.63672,0.37466 -1.39059,0.0665 -2.86006,0.18125 -3.26688,0.25522 -0.40683,0.074 -1.10089,0.24533 -1.54099,0.38093 -0.44133,0.1356 -1.85535,0.7718 -3.14361,1.41409 -1.28826,0.64228 -2.84157,1.36464 -3.4518,1.60503 -0.61023,0.24039 -1.16243,0.48568 -1.22651,0.54608 -0.0641,0.0592 -0.21698,0.10859 -0.33903,0.10859 -0.12203,0 -0.222,0.0554 -0.222,0.12328 0,0.0678 -0.11096,0.12327 -0.24656,0.12327 -0.16026,0 -0.44619,0.27121 -0.81478,0.7705 -0.31191,0.42408 -0.74962,1.13046 -0.97275,1.5718 -0.22191,0.44133 -0.4932,1.09224 -0.6029,1.44852 -0.1085,0.35627 -0.1565,0.73711 -0.10597,0.84683 0.0703,0.15163 0.19725,0.18259 0.52395,0.12833 0.2367,-0.0394 1.17977,-0.31562 2.09574,-0.61518 0.91473,-0.29835 2.35707,-0.88148 3.20524,-1.29323 0.84692,-0.41299 2.01191,-0.87154 2.58885,-1.01825 0.57571,-0.14792 1.6581,-0.30213 2.40393,-0.34528 0.74584,-0.0418 2.32627,-0.032 3.51346,0.0211 1.18593,0.0542 3.48877,0.0779 5.11605,0.0519 2.75528,-0.0418 3.04375,-0.0678 4.19147,-0.37972 0.67804,-0.18369 1.8985,-0.5599 2.71214,-0.83356 0.81363,-0.27492 1.8122,-0.65572 2.21902,-0.84803 0.40682,-0.19354 1.01589,-0.56214 1.35245,-0.82225 0.33778,-0.25888 1.1427,-1.10833 1.79116,-1.88868 0.64721,-0.78036 1.40425,-1.7222 1.68039,-2.09573 0.27614,-0.37354 0.66801,-1.01089 0.87018,-1.41773 0.20218,-0.4068 0.50058,-1.07133 0.66454,-1.47691 0.16396,-0.40436 0.5535,-1.01458 0.86416,-1.35607 0.35381,-0.38709 0.83953,-0.74464 1.29442,-0.95421 0.40066,-0.18492 1.3943,-0.47446 2.20795,-0.64336 0.81364,-0.16888 1.97861,-0.50431 2.58884,-0.74593 0.61023,-0.24163 1.74196,-0.75683 2.51615,-1.14514 0.93773,-0.47011 1.65687,-0.93454 2.15737,-1.39315 0.41299,-0.37846 1.11078,-1.18346 1.54965,-1.78754 0.44011,-0.60529 1.13526,-1.76535 1.547,-2.57898 0.41051,-0.81364 0.89392,-1.92315 1.07267,-2.46558 0.17876,-0.54243 0.38333,-1.45839 0.45483,-2.03409 0.0727,-0.57572 0.0998,-1.35237 0.0628,-1.7259 -0.0382,-0.37231 -0.15522,-1.06637 -0.26125,-1.54099 -0.10602,-0.47462 -0.3663,-1.29435 -0.57834,-1.82197 -0.21081,-0.5264 -0.46837,-0.98873 -0.56946,-1.02572 -0.10232,-0.0371 -0.54611,-0.0988 -0.98621,-0.137 -0.1501,-0.0126 -0.27729,-0.0206 -0.38526,-0.0233 z"
       style="fill:#d82624;fill-opacity:1;stroke-width:0.123278"
       inkscape:export-filename="logo.png"
       inkscape:export-xdpi="96"
       inkscape:export-ydpi="96" />
    <path
       id="Path 2-6-5-0-8-9-7"
       class="s2"
       d="m 51.432704,14.234748 c -0.09085,0.0042 -0.407042,0.367903 -0.72547,0.837904 -0.335318,0.493114 -0.847009,1.285708 -1.136716,1.760345 -0.290937,0.47462 -0.846801,1.50152 -1.237594,2.280657 -0.389561,0.780355 -0.856997,1.778899 -1.039449,2.219012 -0.181221,0.441339 -0.542427,1.384427 -0.801311,2.09574 -0.258886,0.71132 -0.611351,1.820822 -0.785175,2.465573 -0.172589,0.644751 -0.404341,1.614947 -0.514061,2.157374 -0.108483,0.542419 -0.2775,1.735768 -0.374888,2.650491 -0.09616,0.915952 -0.177436,2.358325 -0.178668,3.205251 -0.0011,0.848152 0.08141,2.331187 0.183721,3.297703 0.102322,0.966508 0.30313,2.297905 0.447366,2.958688 0.143004,0.660773 0.388341,1.618648 0.543671,2.126558 0.155331,0.509136 0.541342,1.563164 0.856935,2.342292 0.316827,0.780355 0.855406,1.944103 1.198121,2.588854 0.343948,0.644751 0.959291,1.670415 1.368578,2.280657 0.409285,0.610217 1.270892,1.803565 1.915639,2.65049 0.645982,0.848162 1.508994,1.984791 1.918279,2.52721 0.410517,0.542418 1.152494,1.623573 1.650541,2.403936 0.496813,0.780356 1.228065,2.083407 1.62501,2.897053 0.395726,0.813636 0.858007,1.867672 1.028131,2.342293 0.168892,0.47462 0.452323,1.417707 0.631076,2.095739 0.177522,0.678031 0.404306,1.926845 0.505394,2.773771 0.09985,0.848153 0.180135,2.235035 0.178902,3.081961 -0.0011,0.877743 -0.08016,1.912049 -0.18371,2.403928 -0.09985,0.474629 -0.345205,1.195811 -0.543682,1.602625 -0.198479,0.406822 -0.586808,1.003488 -0.862952,1.325245 -0.42901,0.499285 -0.532527,0.562158 -0.700186,0.431479 -0.108486,-0.08507 -0.510375,-0.697644 -0.89377,-1.360888 C 55.123039,74.013452 54.421534,72.86438 53.946924,72.123477 53.4723,71.383809 52.752255,70.401152 52.3479,69.940091 51.943547,69.480258 51.250719,68.780084 50.806918,68.386829 50.364347,67.992339 49.724615,67.485826 49.3856,67.260222 c -0.339017,-0.22436 -1.004721,-0.607814 -1.479345,-0.850668 -0.474622,-0.241626 -1.362228,-0.610301 -1.972458,-0.818646 -0.61023,-0.208338 -1.692616,-0.510271 -2.403934,-0.671769 -0.711318,-0.161495 -1.93301,-0.356435 -2.712131,-0.435337 -0.779122,-0.07762 -2.056289,-0.124483 -2.83541,-0.103526 l -1.417705,0.03826 c 1.224158,0.668171 2.084668,1.284516 2.70106,1.799815 0.616394,0.515307 1.3179,1.15266 1.559526,1.4177 0.241626,0.263819 0.790105,0.952998 1.216649,1.528706 0.427777,0.575717 0.992332,1.478109 1.256148,2.003277 0.262583,0.525168 0.641111,1.441128 0.839589,2.034104 0.198478,0.592965 0.446393,1.495367 0.549948,2.003276 0.103554,0.509138 0.251475,1.42387 0.329141,2.034094 0.07766,0.610234 0.183649,2.96855 0.23789,5.239347 0.07273,3.138679 0.157724,4.544055 0.352503,5.85574 0.140538,0.949241 0.31938,2.058748 0.397045,2.465564 0.07766,0.406817 0.305645,1.322765 0.506588,2.034086 0.200944,0.711317 0.556074,1.751772 0.787837,2.311463 0.232998,0.559682 0.67182,1.516325 0.977551,2.126537 0.30573,0.61024 0.922026,1.650705 1.37076,2.311478 0.447501,0.660757 1.206912,1.674127 1.683999,2.249837 0.478321,0.57571 1.608873,1.78262 2.513738,2.68133 0.903633,0.8987 1.643318,1.66181 1.643318,1.69509 0,0.0332 -0.09739,0.0628 -0.215738,0.0641 -0.118348,0.003 -0.590505,-0.13684 -1.047869,-0.3082 -0.457363,-0.17012 -1.289508,-0.54001 -1.849193,-0.81984 -0.559684,-0.27985 -1.558204,-0.87652 -2.22021,-1.32526 -0.662008,-0.44874 -1.226562,-0.78765 -1.256149,-0.75437 -0.02836,0.0332 0.08755,0.47834 0.256432,0.98625 0.170125,0.50913 0.616282,1.53482 0.99105,2.28066 0.374767,0.74583 1.045403,1.91081 1.489206,2.58885 0.443803,0.67803 1.114452,1.62111 1.489219,2.09573 0.374767,0.47462 1.213012,1.4102 1.861458,2.07959 0.648446,0.66942 1.706227,1.6619 2.350973,2.20556 0.644748,0.54488 1.863975,1.44485 2.712132,2.00207 0.846924,0.55721 2.401468,1.5078 3.451804,2.11188 1.210595,0.69529 3.085664,1.60241 5.116065,2.47399 1.762884,0.75693 3.87095,1.69013 4.684588,2.076 1.19827,0.56706 1.432499,0.71876 1.232788,0.79889 -0.135607,0.0542 -1.356066,0.16641 -2.712131,0.24776 -1.356065,0.0825 -2.510028,0.18489 -2.565504,0.22681 -0.05424,0.0431 0.416682,0.63859 1.04787,1.32525 0.631186,0.68543 1.619942,1.68655 2.195666,2.22528 0.575711,0.53873 1.851647,1.66553 2.835409,2.50506 0.983764,0.83952 2.564198,2.10796 3.513443,2.81929 0.949245,0.71008 2.198058,1.59531 2.773769,1.96885 0.575712,0.37229 1.797399,1.07382 2.712132,1.55831 0.914724,0.48448 2.343529,1.19702 3.174423,1.58288 0.830903,0.38587 2.078473,0.91719 2.773763,1.18101 0.69529,0.26382 2.040257,0.72963 2.989497,1.03535 0.949249,0.30574 2.391592,0.69665 3.205232,0.86802 0.813637,0.17259 2.062443,0.39939 2.773744,0.50418 0.711347,0.10602 1.405394,0.1898 1.540994,0.18734 0.13561,-0.004 -0.0592,-0.1048 -0.43147,-0.22562 -0.372297,-0.11958 -1.150202,-0.42766 -1.725904,-0.68286 -0.575712,-0.25519 -1.407842,-0.67319 -1.849175,-0.93085 -0.441324,-0.25642 -1.356053,-0.87882 -2.034081,-1.38303 -0.678029,-0.5042 -1.624802,-1.30195 -2.105589,-1.77163 -0.479554,-0.4697 -1.818468,-1.99093 -2.974827,-3.38151 -1.155116,-1.39058 -2.895766,-3.38645 -3.864737,-4.43803 -0.970199,-1.05156 -2.619486,-2.90938 -3.664887,-4.12984 -1.046636,-1.22046 -2.741754,-3.29528 -3.768665,-4.61066 -1.026912,-1.31539 -2.115537,-2.60979 -2.421268,-2.87731 -0.331632,-0.29217 -1.593993,-0.99983 -3.143606,-1.76539 -1.423868,-0.70392 -3.032655,-1.57185 -3.575082,-1.92936 -0.542438,-0.35751 -1.338732,-0.98367 -1.770208,-1.3905 -0.431474,-0.40804 -1.049212,-1.10085 -1.372204,-1.54218 -0.322988,-0.44134 -0.756966,-1.10706 -0.964075,-1.47935 -0.207109,-0.3723 -0.576968,-1.28827 -0.82106,-2.0341 -0.245325,-0.74582 -0.56575,-1.55085 -0.712453,-1.78754 -0.146712,-0.2367 -1.160002,-1.3462 -2.252251,-2.46559 -1.091017,-1.11936 -2.292996,-2.44955 -2.670229,-2.9587 -0.378464,-0.5079 -0.955434,-1.396737 -1.283355,-1.972455 -0.327922,-0.575714 -0.784114,-1.491672 -1.014645,-2.034077 -0.230531,-0.542432 -0.611377,-1.540986 -0.845606,-2.219012 -0.235463,-0.678039 -0.563407,-1.787528 -0.728602,-2.465567 -0.16396,-0.678027 -0.408162,-1.870121 -0.540071,-2.650472 -0.131908,-0.780357 -0.308185,-2.360788 -0.390781,-3.513439 -0.08383,-1.15266 -0.113293,-2.193129 -0.06645,-2.311475 0.06411,-0.166431 0.27744,0.07271 0.932049,1.047866 0.465993,0.695289 1.146492,1.552187 1.510164,1.905997 0.363672,0.352584 1.134051,0.922063 1.709776,1.266014 0.575711,0.34395 1.103343,0.623682 1.171147,0.621211 0.07642,-8.47e-4 0.127014,-0.677973 0.131945,-1.75912 0.0086,-1.537289 0.05054,-1.891099 0.339017,-2.835414 0.182452,-0.592968 0.583157,-1.59153 0.891356,-2.219015 0.308195,-0.627492 0.994757,-1.723433 1.524857,-2.434755 0.530098,-0.712548 1.649371,-1.960135 2.49013,-2.773771 0.840762,-0.813637 2.026776,-1.814762 2.637006,-2.225275 0.608996,-0.409285 1.552103,-0.929452 2.094541,-1.15382 0.542415,-0.225595 1.278363,-0.473266 1.634638,-0.549698 0.356275,-0.07643 0.648422,-0.19488 0.648422,-0.262686 0.0011,-0.0678 -0.104627,-0.429007 -0.232837,-0.801304 -0.129443,-0.372306 -0.41688,-1.066359 -0.638781,-1.540989 -0.223135,-0.47462 -0.829579,-1.612485 -1.349803,-2.527209 -0.520247,-0.914724 -1.169976,-2.163537 -1.44612,-2.773762 -0.274912,-0.610234 -0.642184,-1.553312 -0.816006,-2.095739 -0.173823,-0.542428 -0.40555,-1.458388 -0.515268,-2.034104 -0.109707,-0.575708 -0.230729,-1.713574 -0.268945,-2.52721 -0.03945,-0.843227 -0.0086,-1.930543 0.07151,-2.52721 0.07643,-0.575716 0.370021,-1.990951 0.649864,-3.143612 0.281075,-1.152653 0.711317,-2.562964 0.955409,-3.133745 0.245325,-0.572009 0.500424,-1.057667 0.568228,-1.081088 0.0678,-0.02345 0.229348,0.361166 0.357558,0.854281 0.129443,0.491888 0.425299,1.449737 0.658297,2.127768 0.232996,0.678032 0.701417,1.787543 1.039201,2.465574 0.339016,0.678032 0.882736,1.592764 1.209425,2.034096 0.326689,0.441339 1.196975,1.384425 1.934181,2.095738 0.73844,0.711322 1.728281,1.552129 2.201671,1.867723 0.472158,0.315596 1.303142,0.796395 1.845581,1.067605 0.542414,0.272445 1.29196,0.607617 1.664261,0.745686 0.372302,0.138075 1.870125,0.591763 3.328529,1.005984 1.458369,0.415446 3.12263,0.955429 3.698356,1.200754 0.575699,0.24409 1.52003,0.721199 2.095738,1.057743 0.5757,0.337788 1.463305,0.924628 1.972442,1.303095 0.507909,0.379694 1.645778,1.410292 2.527211,2.291735 0.881447,0.881443 1.881175,1.962599 2.221425,2.40393 0.341475,0.441339 0.923355,1.012205 1.294416,1.269864 0.535034,0.371061 0.82848,0.483084 1.415284,0.54103 0.512831,0.05052 0.929513,0.01235 1.356053,-0.123281 0.350106,-0.110949 0.882683,-0.428888 1.232803,-0.734615 0.339,-0.295874 0.73978,-0.784155 0.88895,-1.084956 0.1504,-0.3008 0.35874,-0.947962 0.46229,-1.439841 0.10479,-0.491888 0.18853,-1.268535 0.18853,-1.725905 -0.002,-0.457354 -0.0863,-1.192095 -0.18853,-1.633434 -0.10232,-0.441341 -0.48829,-1.688918 -0.85814,-2.773772 -0.36983,-1.084854 -0.75701,-2.374346 -0.85933,-2.866225 -0.10356,-0.491887 -0.188567,-1.324018 -0.187327,-1.849187 0,-0.536257 0.131867,-1.576733 0.299517,-2.373111 0.1652,-0.780355 0.43271,-1.806036 0.59666,-2.280656 0.16272,-0.47462 0.5129,-1.294342 0.77796,-1.821974 0.26298,-0.523518 0.50665,-0.952347 0.54296,-0.957824 0,0 0,0 0.002,0 0,8e-6 0,0 0,0 0.0351,0.0085 0.19678,0.465353 0.36068,1.020661 0.16397,0.560915 0.52516,1.463272 0.80254,2.00569 0.27613,0.542428 0.83587,1.425098 1.24145,1.962589 0.40683,0.537494 1.07132,1.279707 1.47815,1.650778 0.40682,0.369833 1.15512,0.946617 1.66426,1.280698 0.50792,0.33409 1.20196,0.737392 1.54098,0.896424 0.33903,0.159034 1.47566,0.703924 2.52722,1.211834 1.33388,0.644742 2.11185,1.104534 2.57537,1.522452 l 0.6631,0.597851 c 1.83686,-0.405586 3.0919,-0.594152 3.97334,-0.680452 0.9776,-0.09615 2.22764,-0.12819 3.20524,-0.08261 0.88144,0.04189 2.29668,0.19355 3.14361,0.339024 0.84693,0.145465 2.17834,0.447374 2.95868,0.672978 0.78036,0.225596 1.83441,0.583275 2.3423,0.794085 0.50915,0.212036 0.97771,0.395488 1.04305,0.410284 0.0653,0.01481 0.16882,-0.389438 0.22923,-0.898583 0.0715,-0.599129 0.0627,-1.293191 -0.0248,-1.972459 -0.0727,-0.575708 -0.26613,-1.491667 -0.42763,-2.034095 -0.16148,-0.542427 -0.49807,-1.430032 -0.74833,-1.972458 -0.25026,-0.542428 -0.80619,-1.512634 -1.2352,-2.157376 -0.43026,-0.644751 -1.25014,-1.670431 -1.82462,-2.280656 -0.57448,-0.610234 -1.52503,-1.524958 -2.11309,-2.034095 -0.58803,-0.50791 -1.06737,-0.966508 -1.06616,-1.017056 0.003,-0.05052 0.62742,0.07889 1.3905,0.28724 0.7631,0.208347 2.55186,0.709976 3.97573,1.114326 1.42389,0.405595 3.50359,1.043152 4.62296,1.419156 1.11938,0.375995 2.67145,0.934462 3.45181,1.242661 0.78035,0.306961 1.93055,0.801083 2.55803,1.098184 l 1.14033,0.540074 c -0.81365,1.289493 -1.19697,2.108063 -1.37943,2.650491 -0.18121,0.542426 -0.39589,1.485513 -0.47601,2.095738 -0.0887,0.671871 -0.11322,1.522495 -0.0602,2.157376 0.0481,0.575717 0.21683,1.547151 0.37586,2.157376 0.15902,0.610233 0.41412,1.442364 0.56822,1.849187 l 0.28003,0.739659 c 0.22683,-2.005732 0.41664,-3.061003 0.56703,-3.636711 0.15041,-0.575717 0.51279,-1.547152 0.80373,-2.157376 0.3008,-0.628719 0.84444,-1.483043 1.25494,-1.972459 0.3982,-0.474628 1.19455,-1.241467 1.7678,-1.703763 0.57448,-0.462297 1.93185,-1.427577 3.0167,-2.146297 1.08487,-0.71871 2.5827,-1.762919 3.32854,-2.320141 0.74584,-0.557214 1.69005,-1.365914 2.09935,-1.798622 0.40928,-0.431478 0.86294,-0.9504 1.00716,-1.153802 0.14549,-0.203412 0.29224,-0.341479 0.32675,-0.308199 0.0345,0.03326 0.12209,0.421601 0.19358,0.862958 0.0726,0.44133 0.13078,1.411529 0.12955,2.157376 0,0.74582 -0.0803,1.910815 -0.17649,2.588845 -0.0962,0.678041 -0.29586,1.787542 -0.44256,2.465573 -0.1467,0.67804 -0.47581,1.815898 -0.731,2.527218 -0.25519,0.711313 -0.72615,1.877534 -1.04666,2.588855 -0.32053,0.711313 -0.84063,1.781278 -1.15623,2.376708 -0.3156,0.594202 -0.54616,1.109696 -0.51165,1.142978 0.0345,0.03326 0.5338,-0.109713 1.1095,-0.31806 0.57572,-0.207101 1.38072,-0.581911 1.78754,-0.830928 0.40682,-0.249025 1.19705,-0.88405 1.75673,-1.41169 0.95664,-0.9024 1.03309,-0.949232 1.29442,-0.791435 0.15287,0.09121 0.85554,0.716248 1.56193,1.386883 0.7064,0.670633 1.67901,1.691473 2.1598,2.26718 0.48078,0.575709 1.2722,1.602617 1.75791,2.280648 0.66078,0.922131 1.18858,1.899727 2.0996,3.883282 0.66817,1.458386 1.42868,2.983343 1.69004,3.390166 0.26132,0.406815 0.79264,1.127996 1.18221,1.602617 0.38956,0.474628 1.14418,1.28333 1.67798,1.797402 0.53256,0.515308 1.38558,1.240172 1.89347,1.613713 0.50916,0.372298 1.25747,0.888935 1.66428,1.146585 0.40683,0.258885 1.37702,0.788802 2.15737,1.178366 0.78037,0.38832 1.97246,0.913641 2.6505,1.165128 0.67803,0.251488 1.33132,0.548488 1.45214,0.661908 0.19231,0.177518 0.21944,0.432756 0.21573,2.021821 -0.003,0.999789 0.052,2.095729 0.11967,2.434756 0.0678,0.339009 0.17875,0.616371 0.24655,0.616371 0.0678,0 0.21085,-0.208328 0.31687,-0.462289 0.10725,-0.253945 0.43516,-0.961566 0.72981,-1.57179 0.29462,-0.610234 0.79888,-1.415236 1.11818,-1.787541 0.32052,-0.372306 0.78282,-0.829762 1.0269,-1.013452 0.24534,-0.184916 0.64604,-0.379694 0.89258,-0.431477 0.38464,-0.08261 0.45847,-0.06154 0.52873,0.150502 0.0456,0.135603 0.0199,0.801311 -0.0553,1.479344 -0.0764,0.67803 -0.27257,1.87014 -0.43653,2.650485 -0.16395,0.780352 -0.49311,2.194351 -0.7298,3.143584 -0.23793,0.94924 -0.59301,2.058754 -0.78903,2.465564 -0.19601,0.406817 -0.50175,0.892541 -0.67803,1.078685 -0.17752,0.186156 -0.4462,0.419052 -0.59907,0.517668 -0.15285,0.09862 -0.61022,0.272485 -1.01703,0.388372 -0.55477,0.156568 -1.46452,0.228157 -3.62807,0.28363 l -2.88958,0.07394 c -0.30943,1.242638 -0.4858,1.769055 -0.59182,1.972465 -0.10603,0.20341 -0.36604,0.52269 -0.57933,0.70885 l -0.38609,0.33903 c 0.62131,0.25889 1.35606,0.54369 2.0341,0.8001 0.99978,0.37724 1.19693,0.49197 1.0416,0.60293 -0.10602,0.0764 -1.18718,0.40783 -2.40393,0.73823 -1.21677,0.33039 -2.6011,0.73859 -3.07572,0.90749 -0.47462,0.1689 -1.6396,0.65953 -2.58884,1.08978 -0.94925,0.43024 -2.41873,1.14884 -3.26689,1.59756 -0.84692,0.44873 -2.09573,1.05662 -2.77377,1.35125 -0.67804,0.29464 -1.56564,0.64338 -1.97245,0.77654 -0.40683,0.13189 -1.18348,0.34517 -1.72591,0.47213 -0.80378,0.18862 -1.46579,0.23194 -3.57508,0.22947 -2.24244,-0.003 -2.77008,-0.042 -3.94491,-0.29229 -0.74585,-0.16026 -1.93794,-0.48068 -2.6505,-0.71368 -0.71255,-0.233 -2.04396,-0.78543 -2.95869,-1.22677 -0.95171,-0.45983 -2.56173,-1.4004 -3.76001,-2.20048 -1.15265,-0.76802 -2.52598,-1.76285 -3.05114,-2.21035 -0.52516,-0.44627 -0.99733,-0.8136 -1.04787,-0.8136 -0.0505,-0.002 -0.0518,0.34641 -0.002,0.7705 0.0505,0.42409 0.26264,1.38194 0.47099,2.12777 0.20833,0.74583 0.58662,1.79988 0.83934,2.3423 0.25394,0.54242 0.70409,1.3462 0.99997,1.78754 0.29586,0.44133 0.79261,1.10094 1.10202,1.46586 0.31067,0.36612 0.95297,0.96773 1.42758,1.33633 0.47463,0.36861 1.23397,0.8456 1.68763,1.06134 0.45491,0.21451 0.82843,0.4315 0.83214,0.48203 0.004,0.0505 -0.28348,0.18256 -0.63977,0.29354 -0.35627,0.10971 -1.22908,0.44233 -1.94164,0.7382 -0.71255,0.29587 -1.90466,0.87661 -2.65049,1.29081 -0.74583,0.41422 -1.74439,1.06402 -2.21901,1.44373 -0.47463,0.37969 -1.24378,1.05383 -1.70977,1.49763 -0.46475,0.44381 -1.16516,1.1959 -1.55471,1.67053 -0.38833,0.47462 -0.95525,1.25128 -1.25974,1.7259 -0.30327,0.47463 -0.76935,1.26605 -1.0344,1.75793 -0.26504,0.49312 -0.53752,0.87771 -0.60532,0.85428 -0.0678,-0.0222 -0.30564,-0.67553 -0.52754,-1.44973 -0.22314,-0.77543 -0.51898,-2.01926 -0.65829,-2.7651 -0.13931,-0.74584 -0.28253,-2.13273 -0.31951,-3.08197 -0.0357,-0.94925 -0.004,-2.41873 0.0716,-3.26688 0.0751,-0.84694 0.12464,-1.55455 0.10737,-1.57181 -0.0159,-0.0173 -0.75946,2.11794 -1.65076,4.74623 -0.89254,2.62708 -1.99224,5.66465 -2.44343,6.74951 -0.4512,1.08486 -1.34985,3.02649 -1.99582,4.31474 -0.64721,1.28827 -1.48423,2.86994 -1.86145,3.51345 -0.37724,0.64351 -1.01838,1.67043 -1.42397,2.28066 -0.40558,0.61023 -1.13895,1.60879 -1.62838,2.21902 -0.49065,0.61022 -1.25863,1.48428 -1.70735,1.94164 -0.44998,0.45735 -1.08128,1.04045 -1.40304,1.29563 -0.32174,0.25395 -1.11319,0.77667 -1.75671,1.16007 -0.64351,0.38339 -1.59904,0.88147 -2.12175,1.10831 -0.52269,0.22683 -0.93814,0.4265 -0.92457,0.44375 0.0148,0.0173 0.4698,-0.0555 1.01221,-0.16276 0.54243,-0.10725 1.76291,-0.38692 2.71214,-0.62363 0.94925,-0.23546 2.39161,-0.65353 3.20524,-0.92843 0.81364,-0.27615 2.1167,-0.78268 2.89706,-1.12662 0.78034,-0.34271 1.94533,-0.89887 2.58884,-1.23542 0.64352,-0.33532 1.69878,-0.91584 2.3423,-1.28937 0.64352,-0.37354 1.53111,-0.93207 1.97247,-1.24026 0.44133,-0.30944 1.57795,-1.1809 2.5272,-1.93537 1.02198,-0.81364 2.22888,-1.92201 2.95869,-2.7184 0.67805,-0.74091 1.48914,-1.65069 1.80103,-2.02423 0.31312,-0.37353 1.18855,-1.59275 1.94548,-2.71213 0.75816,-1.11936 1.80586,-2.64311 2.32857,-3.38895 0.52394,-0.7446 1.39561,-1.80238 1.93803,-2.35096 0.54244,-0.54736 1.51387,-1.34252 2.15738,-1.76659 0.64352,-0.42408 1.7259,-1.03924 2.40394,-1.36716 0.67802,-0.32791 1.73206,-0.78767 2.34229,-1.02066 0.61024,-0.23423 1.71973,-0.60288 2.46558,-0.81986 0.74583,-0.21696 1.85534,-0.55709 2.46556,-0.75435 0.61024,-0.19847 1.94164,-0.50179 2.95869,-0.67561 1.01705,-0.1726 2.43106,-0.45748 3.14361,-0.63254 0.71255,-0.17382 1.84919,-0.5252 2.52721,-0.77914 0.67803,-0.25519 1.84302,-0.76054 2.58886,-1.12421 0.74584,-0.36367 1.99341,-1.01086 2.77378,-1.43986 0.78034,-0.42901 1.8615,-0.99124 2.40393,-1.25013 0.54241,-0.25887 1.54098,-0.67927 2.21901,-0.93446 0.67804,-0.25518 2.07847,-0.6791 3.11278,-0.94169 1.03432,-0.26381 2.14383,-0.57693 2.46558,-0.69897 0.32176,-0.12082 0.83583,-0.36378 1.14034,-0.54008 0.30449,-0.17628 0.79394,-0.56226 1.08735,-0.85813 0.29339,-0.29709 0.65078,-0.78763 0.79625,-1.09337 0.15163,-0.3193 0.29113,-0.91974 0.33058,-1.4141 0.0641,-0.8309 0.0776,-0.86046 0.4363,-0.94676 0.20342,-0.0481 0.75815,-0.14779 1.23279,-0.22176 0.49926,-0.0778 1.2525,-0.32052 1.78753,-0.5757 0.68421,-0.32668 1.15008,-0.67193 1.79236,-1.322837 0.54736,-0.554756 1.03312,-1.200777 1.31297,-1.744435 0.24409,-0.474615 0.58448,-1.306742 0.7546,-1.849166 0.17013,-0.542423 0.48453,-1.846703 0.69657,-2.897032 0.21203,-1.050329 0.51892,-2.742936 0.68165,-3.759983 0.16272,-1.017051 0.33152,-2.209155 0.37344,-2.650494 0.0432,-0.441339 0.0137,-1.18964 -0.0628,-1.66426 -0.0778,-0.47462 -0.2626,-1.134209 -0.41054,-1.467063 -0.14793,-0.331618 -0.50417,-0.817343 -0.79263,-1.078692 -0.28848,-0.261349 -0.73228,-0.530088 -0.98624,-0.596659 -0.25395,-0.0678 -0.73968,-0.124449 -1.07869,-0.125683 -0.34518,-0.0025 -1.15758,0.162622 -1.84918,0.37465 -1.07499,0.329154 -1.29936,0.361387 -1.75671,0.249203 -0.28848,-0.07152 -1.42511,-0.495631 -2.52722,-0.943115 -1.10212,-0.447501 -2.33613,-0.982623 -2.74296,-1.188497 -0.4068,-0.205874 -1.07251,-0.596548 -1.47933,-0.867757 -0.40681,-0.271209 -1.07136,-0.77806 -1.47693,-1.123239 -0.40683,-0.346413 -0.98238,-0.878894 -1.28071,-1.184621 -0.29833,-0.305736 -0.87532,-0.970206 -1.28214,-1.479344 -0.50298,-0.627492 -1.03564,-1.538517 -1.66066,-2.835416 -0.50543,-1.050328 -1.16999,-2.41009 -1.47573,-3.020324 -0.30573,-0.610233 -0.90116,-1.635906 -1.32525,-2.280656 -0.42407,-0.644742 -1.02937,-1.503992 -1.3462,-1.910815 -0.3156,-0.406821 -0.57308,-0.781582 -0.57183,-0.832131 0.002,-0.05052 0.44737,-0.689127 0.99103,-1.417707 0.54366,-0.728571 1.2316,-1.797402 1.52871,-2.373112 0.29709,-0.575714 0.71492,-1.574269 0.9282,-2.219019 0.21327,-0.644742 0.47213,-1.643312 0.5757,-2.219011 0.10232,-0.575717 0.18751,-1.769065 0.18998,-2.65049 0.002,-0.943088 -0.0765,-2.034104 -0.19118,-2.650491 -0.10601,-0.575717 -0.32796,-1.436202 -0.49191,-1.910824 -0.16274,-0.474636 -0.33036,-0.960336 -0.37104,-1.078692 -0.0418,-0.118345 -0.11704,-0.218087 -0.16759,-0.220549 -0.0505,-0.0025 -0.35019,0.205874 -0.66454,0.462287 -0.31559,0.256423 -1.4251,1.159965 -2.46557,2.006891 -1.04171,0.845699 -2.47538,1.971137 -3.18792,2.500005 -0.71255,0.528867 -1.32155,0.960279 -1.35606,0.957816 -0.0345,-0.0025 -0.0998,-0.739549 -0.14544,-1.63825 -0.0469,-0.898703 -0.16761,-2.021772 -0.2687,-2.496392 -0.10109,-0.474621 -0.33282,-1.306751 -0.51527,-1.849178 -0.18122,-0.542428 -0.48461,-1.291964 -0.67322,-1.664261 -0.18862,-0.372305 -0.59303,-1.010885 -0.90124,-1.417707 -0.30695,-0.406823 -0.77908,-0.961575 -1.04907,-1.232791 l -0.49057,-0.493116 c -0.73598,0.998562 -1.28199,1.775303 -1.68883,2.369506 -0.40681,0.595438 -1.23894,1.585315 -1.84917,2.200475 -0.76186,0.768022 -1.65069,1.480502 -2.83541,2.273182 -0.94924,0.63489 -2.19806,1.49673 -2.77377,1.915875 -0.57573,0.417919 -1.17239,0.823328 -1.32524,0.900996 -0.24163,0.122045 -0.47833,0.03225 -1.84919,-0.7062 -0.86418,-0.465996 -2.15368,-1.101055 -2.86623,-1.410481 -0.71255,-0.309433 -2.23751,-0.906098 -3.39016,-1.325243 -1.15265,-0.419148 -2.53953,-0.898541 -3.08196,-1.064972 -0.54244,-0.165197 -2.04028,-0.599172 -3.32854,-0.964079 -1.28827,-0.3649 -2.97963,-0.880326 -3.75999,-1.145381 -0.78034,-0.265048 -1.88986,-0.695231 -2.46558,-0.957807 -0.5757,-0.261358 -1.38072,-0.667021 -1.78754,-0.901249 -0.40681,-0.23423 -1.01704,-0.629812 -1.35605,-0.878836 -0.33902,-0.247788 -0.98017,-0.807517 -1.42398,-1.241457 -0.4438,-0.43517 -1.06123,-1.123087 -1.37436,-1.529911 -0.31189,-0.406822 -0.83712,-1.266071 -1.16874,-1.910822 -0.33039,-0.644742 -0.72735,-1.476873 -0.88268,-1.849179 l -0.281,-0.678031 c -0.37106,0.716249 -0.6116,1.381956 -0.77555,1.941641 -0.16397,0.559685 -0.38587,1.640841 -0.49311,2.403929 -0.10726,0.763096 -0.19602,1.928081 -0.19479,2.588854 0,0.660773 0.11589,1.867672 0.25643,2.681308 0.13929,0.813654 0.40802,1.923164 0.59664,2.465574 0.18862,0.542428 0.54866,1.430048 0.79891,1.972459 0.25149,0.542427 0.82236,1.540989 1.26985,2.21902 0.58928,0.895002 1.29806,1.714809 2.5814,2.989505 1.58413,1.573035 1.73326,1.7567 1.42999,1.757934 -0.18616,8.48e-4 -0.75447,-0.104803 -1.26362,-0.235474 -0.5079,-0.130676 -1.28456,-0.398205 -1.72589,-0.595454 -0.44134,-0.197241 -1.16128,-0.601549 -1.60263,-0.896187 -0.44133,-0.295857 -1.18095,-0.902349 -1.64571,-1.347387 -0.46477,-0.44503 -1.11081,-1.142842 -1.43505,-1.549657 -0.32422,-0.406822 -1.15521,-1.654391 -1.84556,-2.77377 -0.69036,-1.11937 -1.54824,-2.422415 -1.90696,-2.897052 -0.35875,-0.474621 -1.20071,-1.410218 -1.87135,-2.078388 -0.67063,-0.668172 -1.71857,-1.548556 -2.32881,-1.955378 -0.61024,-0.40805 -1.66427,-1.009625 -2.3423,-1.336317 -0.67804,-0.327919 -1.8985,-0.824572 -2.71216,-1.105642 -0.81363,-0.279852 -1.978614,-0.748511 -2.588843,-1.039451 -0.610221,-0.29094 -1.524951,-0.859072 -2.03409,-1.260961 -0.507906,-0.403113 -1.284559,-1.126862 -1.725893,-1.608879 -0.441333,-0.483255 -1.063919,-1.311618 -1.385667,-1.841713 -0.320527,-0.530095 -0.746992,-1.435009 -0.947939,-2.011961 -0.200932,-0.576943 -0.422818,-1.409074 -0.494316,-1.849178 -0.07025,-0.440103 -0.129544,-1.147726 -0.129544,-1.571799 -8.46e-4,-0.42408 -0.04317,-0.772838 -0.09366,-0.775301 -0.05052,-0.0025 -0.343823,0.261348 -0.652022,0.585569 -0.308197,0.325457 -0.789217,0.89612 -1.06906,1.268417 -0.279842,0.372304 -0.755495,1.177316 -1.056295,1.787542 -0.302028,0.610233 -0.637421,1.386889 -0.747143,1.725905 -0.108485,0.339016 -0.283608,1.115672 -0.387167,1.725898 -0.104788,0.610233 -0.189733,1.664261 -0.189733,2.342292 0,0.678032 0.08379,1.718508 0.186118,2.311473 0.102324,0.592977 0.327988,1.453461 0.50058,1.910824 0.173821,0.457361 0.681731,1.470719 1.130458,2.249838 0.447493,0.779119 1.083493,1.944104 1.412639,2.588853 0.330391,0.644743 0.720073,1.531121 0.868009,1.97246 0.147939,0.441348 0.271041,1.108189 0.27474,1.482949 0.0051,0.493115 -0.07881,0.846978 -0.301952,1.282155 -0.199703,0.388328 -0.46106,0.681763 -0.739667,0.830929 -0.236692,0.12698 -0.653375,0.265055 -0.924593,0.308198 -0.32422,0.05052 -0.7261,0.0025 -1.171129,-0.140625 -0.372323,-0.119565 -0.983783,-0.42646 -1.356089,-0.681646 C 87.044966,52.019222 86.392816,51.456996 85.968736,51.025518 85.544664,50.59404 84.90731,49.843402 84.551037,49.35645 84.194763,48.869496 83.572137,47.953537 83.166551,47.322347 82.760965,46.689928 82.051054,45.674065 81.587526,45.063832 81.123998,44.453607 80.423615,43.621477 80.032822,43.214654 79.640794,42.807841 78.992411,42.175346 78.591756,41.810438 78.19111,41.444258 77.336775,40.771288 76.692028,40.315161 76.04728,39.857791 75.048723,39.23283 74.473011,38.925867 73.8973,38.618906 72.87039,38.143015 72.192358,37.869336 71.514323,37.594418 69.794586,37.056783 68.370717,36.67338 66.946849,36.291223 65.393537,35.837526 64.918914,35.667403 64.44421,35.49601 63.501128,35.083163 62.823097,34.747845 62.145063,34.412528 61.146506,33.84046 60.604081,33.47556 c -0.542426,-0.364907 -1.534907,-1.179703 -2.205542,-1.810895 -0.671871,-0.631182 -1.591541,-1.647069 -2.043974,-2.257302 -0.452432,-0.610226 -1.02198,-1.442364 -1.263605,-1.849179 -0.24286,-0.406822 -0.691569,-1.238953 -0.9973,-1.849178 -0.306964,-0.610234 -0.779097,-1.775217 -1.049078,-2.588854 -0.271213,-0.813645 -0.607801,-2.034104 -0.748338,-2.712134 -0.140538,-0.678033 -0.337636,-1.759188 -0.437491,-2.40393 -0.101088,-0.64475 -0.205926,-1.741843 -0.234279,-2.438369 -0.02836,-0.710085 -0.107364,-1.294571 -0.180098,-1.329089 -0.0033,-0.0017 -0.0071,-0.0017 -0.01159,-0.0017 z m 32.110478,21.890157 c -8.4e-5,2.5e-5 0,0 0,0 v 0 0 c -0.01515,0.01507 -0.02574,0.287053 -0.02574,0.740387 0,0.435711 0.0096,0.690811 0.02387,0.705725 v 0 0 0 0 0 0 0 0 0 c 0.0059,-0.0059 0.01353,-0.0545 0.0209,-0.151211 0.02463,-0.339017 0.02463,-0.865412 0,-1.171148 -0.0068,-0.07643 -0.0127,-0.116356 -0.01829,-0.123271 -8.3e-5,-1.02e-4 0,-8.47e-4 0,-8.47e-4 v 0 0 0 0 0 z M 23.502145,110.35043 c -0.02752,0.005 -0.179026,0.27196 -0.350334,0.61808 -0.179986,0.36615 -0.417829,1.08121 -0.527547,1.59035 -0.132326,0.61639 -0.175573,1.21223 -0.12954,1.78754 0.03821,0.47462 0.184967,1.19582 0.326737,1.60263 0.141771,0.40681 0.434089,1.07253 0.651061,1.47935 0.216969,0.40681 0.782721,1.1292 1.257343,1.60382 0.474622,0.47585 1.437355,1.25251 2.140043,1.72589 0.702689,0.47463 1.51147,1.11201 1.795012,1.41651 0.284773,0.3045 0.663302,0.80501 0.83959,1.10951 0.17752,0.30449 0.432659,0.8876 0.567032,1.29442 0.134373,0.40682 0.282357,1.18348 0.326737,1.72591 0.04809,0.57077 0.128125,0.93444 0.18853,0.86294 0.05917,-0.0678 0.271227,-0.45613 0.47217,-0.86294 0.202178,-0.40681 0.453766,-1.07254 0.561017,-1.47934 0.10602,-0.40683 0.195964,-1.18349 0.197197,-1.72591 0.0024,-0.54243 -0.05183,-1.29072 -0.120875,-1.66426 -0.06781,-0.37353 -0.316913,-1.06636 -0.551142,-1.54099 -0.235463,-0.47462 -0.726061,-1.1958 -1.090966,-1.60261 -0.364906,-0.40683 -1.267219,-1.15637 -2.006891,-1.66428 -0.739673,-0.50913 -1.761641,-1.34126 -2.270781,-1.84918 -0.532565,-0.53255 -1.090979,-1.2377 -1.316579,-1.66426 -0.214506,-0.40682 -0.511558,-1.18346 -0.659492,-1.7259 -0.147935,-0.54243 -0.281149,-1.00846 -0.294723,-1.03559 -9.8e-5,0 0,0 0,0 v 0 0 0 0 0 0 0 c -8.6e-5,-1e-5 -0.0011,2e-5 -0.0011,0 0,2e-5 -0.0011,-4e-5 -0.0011,0 z m 136.533525,6.95177 c -0.0649,0.005 -0.22525,0.4774 -0.36623,1.08036 -0.14671,0.62749 -0.39087,1.44605 -0.54126,1.81958 -0.15164,0.37353 -0.5313,1.09348 -0.84322,1.60262 -0.31682,0.51531 -0.91723,1.24386 -1.35487,1.64451 -0.43146,0.39573 -1.08966,0.89761 -1.4632,1.11458 -0.37353,0.21821 -0.98254,0.52501 -1.35607,0.68405 -0.37353,0.15779 -1.70495,0.60416 -2.95868,0.99249 -1.25498,0.3871 -2.91923,0.96647 -3.69837,1.28576 -0.78034,0.32052 -1.94532,0.86169 -2.58885,1.20316 -0.64351,0.34148 -1.53235,0.88879 -1.97245,1.21424 -0.44133,0.3267 -1.25005,1.05533 -1.79741,1.62117 -0.54737,0.56462 -1.21683,1.35979 -1.48681,1.76661 -0.26999,0.40681 -0.60636,1.01704 -0.7469,1.35605 -0.14176,0.33902 -0.296,0.81119 -0.34406,1.04788 l -0.0874,0.43146 c 1.30922,-1.26853 2.0488,-1.89733 2.49014,-2.21539 0.4401,-0.3193 1.5225,-0.93179 2.40392,-1.3645 0.88145,-0.43147 2.35093,-1.03326 3.2669,-1.33776 1.09101,-0.36244 2.51364,-0.70755 4.12983,-0.99972 1.35607,-0.24533 2.82554,-0.53512 3.26688,-0.6436 0.44011,-0.10972 1.18965,-0.35618 1.66427,-0.54849 0.47462,-0.19355 1.16745,-0.53132 1.54098,-0.75075 0.37354,-0.21945 1.17847,-0.89874 1.79116,-1.50895 0.85062,-0.8494 1.20956,-1.3117 1.52269,-1.97246 0.2256,-0.47463 0.49172,-1.25129 0.59158,-1.72591 0.12329,-0.58312 0.15654,-1.16252 0.10353,-1.78754 -0.043,-0.50915 -0.16136,-1.2291 -0.26244,-1.60263 -0.10231,-0.37352 -0.32067,-1.05279 -0.48708,-1.51017 -0.16521,-0.45735 -0.34894,-0.86045 -0.40934,-0.89496 -0.003,-0.002 -0.004,-0.002 -0.007,-0.002 z m 27.48875,5.59835 c -0.0864,0.002 -0.20903,0.1563 -0.37731,0.47481 -0.16889,0.31805 -0.58928,0.88522 -0.93447,1.25999 -0.34642,0.376 -0.95664,0.85793 -1.35607,1.07244 -0.40065,0.21326 -1.22666,0.58056 -1.83689,0.81479 -0.61023,0.23423 -1.45592,0.60036 -1.88,0.8124 -0.42409,0.21326 -1.02446,0.62262 -1.33513,0.91109 -0.31066,0.28847 -0.69289,0.74583 -0.84946,1.01706 -0.15657,0.27121 -0.37473,0.7976 -0.48444,1.17114 -0.10973,0.37355 -0.19466,1.01089 -0.18973,1.41771 0.005,0.40681 0.0506,0.85062 0.10113,0.98623 0.0826,0.2256 0.11585,0.20956 0.3809,-0.18492 0.15903,-0.2367 0.48812,-0.64473 0.73221,-0.90484 0.24287,-0.26012 0.70637,-0.60654 1.02813,-0.7705 0.32175,-0.16273 1.18223,-0.47105 1.91081,-0.6831 0.7286,-0.21203 1.72714,-0.57325 2.21902,-0.8013 0.56955,-0.26506 1.13038,-0.6508 1.5446,-1.06255 0.35874,-0.35628 0.80255,-0.96651 0.98622,-1.35607 0.18492,-0.38956 0.39699,-0.99979 0.47218,-1.35607 0.0764,-0.35628 0.11712,-1.10201 0.0925,-1.658 -0.0247,-0.55599 -0.10097,-1.06768 -0.16999,-1.1367 -0.0161,-0.0158 -0.0343,-0.024 -0.0542,-0.0237 z m -152.322118,2.6642 -0.199613,0.49313 c -0.109717,0.27121 -0.315679,1.03431 -0.458684,1.69508 -0.170123,0.78405 -0.260043,1.64084 -0.260043,2.46558 0.0011,0.69529 0.08145,1.76287 0.181305,2.37311 0.09862,0.61023 0.320564,1.59522 0.49192,2.18819 0.172591,0.59297 0.48811,1.4251 0.701382,1.84917 0.213271,0.42409 0.53133,0.99119 0.708851,1.26242 0.17629,0.26997 0.403073,0.60026 0.505393,0.73342 0.101089,0.13313 0.517772,0.59683 0.924591,1.03077 0.406821,0.43393 1.072525,1.0416 1.479344,1.34979 0.406821,0.30943 1.183475,0.77168 1.725902,1.02933 0.542425,0.25643 1.596458,0.62254 2.342295,0.8124 1.275934,0.32422 1.510165,0.34535 3.944918,0.34165 2.254766,-0.003 2.828013,-0.0458 4.438032,-0.33298 1.017047,-0.18123 2.556801,-0.41553 3.420983,-0.52034 0.864184,-0.10478 2.084642,-0.18973 2.712131,-0.18973 0.627488,0 1.639606,0.0616 2.249836,0.13556 0.610229,0.074 1.746859,0.29703 2.527213,0.49553 0.850623,0.21574 1.935475,0.6079 2.712131,0.9802 0.711317,0.34026 1.516328,0.76676 1.787541,0.94675 0.271212,0.17999 0.627489,0.44 0.791448,0.57931 l 0.29953,0.25282 c -0.447501,-0.76432 -0.841907,-1.34621 -1.164898,-1.78754 -0.322988,-0.44134 -0.825966,-1.0293 -1.119369,-1.30791 -0.293402,-0.27861 -0.809953,-0.72241 -1.150201,-0.98624 -0.339018,-0.26381 -1.060198,-0.71138 -1.602624,-0.99367 -0.541194,-0.28356 -1.401716,-0.65333 -1.909612,-0.82468 -0.509152,-0.17014 -1.368392,-0.42408 -1.910819,-0.56462 -0.542438,-0.13931 -1.458386,-0.34157 -2.034099,-0.44882 -0.708852,-0.13068 -2.346005,-0.22806 -5.054437,-0.29832 -2.47297,-0.063 -4.407212,-0.17269 -5.054426,-0.28365 -0.576945,-0.0986 -1.547147,-0.30557 -2.157376,-0.45843 -0.610229,-0.1541 -1.497836,-0.4413 -1.972459,-0.63855 -0.474623,-0.19847 -1.195803,-0.56222 -1.602623,-0.80879 -0.406821,-0.24655 -1.094751,-0.78398 -1.528693,-1.19448 -0.433941,-0.41053 -1.184598,-1.27359 -1.669082,-1.91708 -0.484484,-0.64353 -1.145284,-1.69879 -1.468274,-2.34231 -0.322991,-0.64351 -0.748314,-1.69876 -0.944327,-2.34229 -0.197245,-0.64351 -0.430329,-1.53112 -0.520322,-1.97245 z m 32.650541,7.70371 c -0.0011,1.1e-4 -0.0016,0 -0.0022,0.002 0,9e-5 0,0 -0.0011,0 0,0 -0.0011,0.002 -0.0011,0.002 -0.01774,0.0341 0.31572,0.40844 0.76809,0.86199 0.474623,0.47587 0.891304,0.86535 0.924591,0.86535 0.03452,0 -0.30937,-0.38951 -0.763035,-0.86414 -0.454898,-0.47585 -0.870347,-0.86414 -0.92459,-0.86536 0,0 -0.0011,-4e-5 -0.0011,0 z m 95.627167,13.97481 c -0.40481,0 -0.64873,0.0104 -0.66359,0.0256 v 0 0 0 0 c 0,8e-5 0,0.002 0,0.002 v 0 0 0 0 0 c 0.006,0.006 0.041,0.0122 0.10884,0.0185 0.27119,0.0259 0.74336,0.0259 1.04785,0 0.086,-0.007 0.13017,-0.0144 0.13653,-0.0204 v 0 0 0 0 0 0 0 0 0 0 0 c -0.0147,-0.014 -0.24224,-0.024 -0.62988,-0.024 z"
       style="fill:#d82624;fill-opacity:1;stroke-width:0.123278" />
    <path
       id="Path 3-2-9-3-9-8-6"
       class="s3"
       d="m 73.559316,19.298571 c -0.113417,0.271209 -0.371069,1.00595 -0.570781,1.633442 -0.200944,0.627483 -0.448734,1.626046 -0.551055,2.219013 -0.102322,0.592975 -0.184919,1.688926 -0.183684,2.434755 0.0024,0.840764 0.09122,1.777681 0.23546,2.465572 0.126977,0.610234 0.346414,1.415247 0.486952,1.787544 0.139304,0.372305 0.48695,1.03924 0.770491,1.479342 0.284774,0.440105 0.800078,1.078693 1.146492,1.417708 0.346413,0.339017 1.40661,1.16991 2.354623,1.845479 0.948012,0.676805 2.133953,1.619884 2.633232,2.095741 0.500511,0.477083 1.237718,1.365924 1.637141,1.976156 0.400655,0.610226 0.851856,1.428797 1.002252,1.818361 0.1504,0.389563 0.300801,0.710085 0.335317,0.711321 0.03326,8.46e-4 0.172593,-0.456135 0.308198,-1.017056 0.205882,-0.853087 0.245326,-1.420171 0.237928,-3.485084 -0.0086,-2.424894 -0.01481,-2.484068 -0.398188,-3.636719 -0.213274,-0.644751 -0.5979,-1.531128 -0.854321,-1.971232 C 81.858436,30.569938 81.17424,29.766162 80.31622,28.915539 79.562988,28.168473 78.287053,26.91966 77.48081,26.14054 76.64005,25.328131 75.84367,24.433129 75.614371,24.0448 c -0.219436,-0.372305 -0.558452,-1.066359 -0.753233,-1.540988 -0.194779,-0.47462 -0.480786,-1.389345 -0.634885,-2.034095 -0.154098,-0.64475 -0.321756,-1.282095 -0.371069,-1.417708 -0.07766,-0.213271 -0.117113,-0.179982 -0.295868,0.246562 z M 40.208735,47.159554 c -0.0049,0.0678 -0.06534,0.456127 -0.134374,0.862949 -0.06903,0.406822 -0.12821,1.460849 -0.130675,2.342293 -0.0037,0.886376 0.07767,2.126558 0.182453,2.77377 0.104787,0.64475 0.294636,1.476881 0.422846,1.849178 0.12821,0.372306 0.388327,0.983766 0.576956,1.356072 0.188604,0.372297 0.597889,1.008414 0.911017,1.411537 0.313128,0.404352 0.845704,0.951713 1.184721,1.21676 0.339015,0.266283 0.976355,0.663236 1.417704,0.882679 0.440093,0.220669 1.300579,0.580643 1.91082,0.801313 0.610217,0.220669 1.494126,0.602827 1.963816,0.849389 0.469693,0.246552 1.214296,0.753226 1.655633,1.125532 0.441338,0.372297 0.999789,0.970198 1.241417,1.327709 0.414228,0.612696 0.446268,0.633653 0.544892,0.369842 0.05671,-0.154098 0.07643,-0.917196 0.04438,-1.697551 -0.04562,-1.071295 -0.139305,-1.658099 -0.38093,-2.403937 -0.177521,-0.542427 -0.554755,-1.402913 -0.839529,-1.910814 Q 50.263344,57.391682 49.20316,56.343816 C 48.620051,55.7681 47.839697,55.112261 47.469861,54.886657 47.100026,54.662288 46.216117,54.163011 45.507265,53.777146 44.784839,53.383892 43.897244,52.779829 43.486728,52.398899 43.084826,52.026594 42.517756,51.388013 42.226807,50.981192 41.937101,50.574369 41.425495,49.658409 41.092654,48.947096 40.75857,48.235774 40.425705,47.513358 40.35175,47.344472 40.27778,47.175578 40.213666,47.091748 40.208735,47.159554 Z m 27.999053,1.756716 c -0.125743,0.253958 -0.347645,0.768031 -0.493115,1.140328 -0.145456,0.372305 -0.486951,1.592763 -0.760629,2.712135 -0.272446,1.11937 -0.55844,2.506252 -0.634886,3.081968 -0.07764,0.590504 -0.108472,1.693843 -0.06903,2.527211 0.03698,0.813635 0.157797,1.951501 0.267515,2.527208 0.109717,0.575717 0.341481,1.491677 0.515305,2.034105 0.173821,0.542426 0.541205,1.485505 0.816117,2.095739 0.276131,0.610225 0.925811,1.859038 1.446058,2.773761 0.520224,0.914725 1.126756,2.052589 1.349888,2.527211 0.221915,0.474629 0.509143,1.168682 0.638586,1.540988 0.128209,0.372297 0.234228,0.733506 0.233008,0.801304 0,0.0678 -0.292182,0.186152 -0.648458,0.262585 -0.356276,0.07643 -1.092249,0.324228 -1.634663,0.549824 -0.542438,0.224369 -1.485521,0.744602 -2.094518,1.153888 -0.610229,0.410521 -1.796169,1.411545 -2.63693,2.225182 -0.840761,0.813636 -1.960131,2.061223 -2.490229,2.773771 -0.530098,0.711321 -1.216762,1.807263 -1.524958,2.434756 -0.308196,0.627485 -0.708851,1.626046 -0.891305,2.219014 -0.288471,0.944314 -0.330386,1.298125 -0.339017,2.835415 -0.0049,1.081146 -0.05547,1.757951 -0.131907,1.759186 -0.06781,0.0025 -0.595435,-0.277379 -1.171146,-0.621329 -0.576945,-0.343942 -1.346204,-0.913498 -1.709876,-1.266074 -0.363672,-0.35381 -1.044171,-1.210597 -1.510164,-1.905887 -0.65461,-0.975134 -0.867883,-1.214297 -0.931987,-1.047865 -0.04685,0.118346 -0.01726,1.158815 0.06657,2.311474 0.0826,1.152652 0.258886,2.733083 0.390795,3.513442 0.131908,0.780352 0.375999,1.972446 0.539961,2.650472 0.165193,0.678039 0.493114,1.787528 0.728577,2.465567 0.234229,0.678027 0.615159,1.67658 0.84569,2.219013 0.230533,0.542404 0.686663,1.458362 1.014584,2.034076 0.327922,0.575715 0.904865,1.464562 1.283332,1.972452 0.377233,0.50916 1.5792,1.83934 2.670217,2.95871 1.092248,1.11938 2.105599,2.22888 2.252299,2.46558 0.146703,0.2367 0.467227,1.04172 0.712553,1.78755 0.244091,0.74583 0.613927,1.66179 0.821035,2.03409 0.207108,0.3723 0.641049,1.03801 0.964039,1.47935 0.32299,0.44133 0.940615,1.13415 1.372093,1.54222 0.431473,0.40682 1.227854,1.03306 1.77028,1.39057 0.542427,0.35752 2.151213,1.22539 3.575082,1.92933 1.549613,0.76555 2.811986,1.47316 3.143607,1.76535 0.304497,0.2675 1.39428,1.56193 2.421193,2.87731 1.026911,1.31539 2.721992,3.39017 3.768628,4.61063 1.045404,1.22045 2.69487,3.07827 3.665076,4.12983 0.968971,1.05158 2.709664,3.04745 3.864788,4.43803 1.156351,1.39059 2.495159,2.91186 2.974713,3.38155 0.480787,0.46968 1.42756,1.2673 2.105589,1.7715 0.678027,0.50421 1.592756,1.12676 2.03409,1.38319 0.4401,0.25642 1.3277,0.70022 1.972444,0.985 0.643507,0.28476 1.670428,0.64721 2.280658,0.80378 0.61024,0.15656 1.80235,0.34765 2.65051,0.42284 1.10457,0.0986 1.90713,0.1011 2.83543,0.007 0.71254,-0.0715 1.73821,-0.24904 2.28065,-0.39327 0.54242,-0.14546 1.48551,-0.48202 2.09573,-0.74954 0.61023,-0.2675 1.52496,-0.7372 2.0341,-1.04417 0.5079,-0.30573 1.20197,-0.76309 1.54099,-1.01459 0.33902,-0.25149 1.0269,-0.86911 1.52741,-1.37207 0.50052,-0.50298 1.31046,-1.41401 1.79986,-2.02424 0.48943,-0.61023 1.22171,-1.6088 1.62729,-2.21902 0.40558,-0.61024 1.04664,-1.63713 1.42387,-2.28066 0.37723,-0.64351 1.2143,-2.22518 1.86151,-3.51344 0.64598,-1.28826 1.54468,-3.2299 1.99589,-4.31475 0.45119,-1.08486 1.55083,-4.12244 2.44338,-6.74951 0.89131,-2.62831 1.63467,-4.76349 1.6507,-4.74623 0.0172,0.0173 -0.032,0.72488 -0.10725,1.5718 -0.0751,0.84816 -0.10726,2.31765 -0.0716,3.26689 0.0371,0.94925 0.17998,2.33613 0.31929,3.08197 0.13931,0.74582 0.43517,1.98971 0.65832,2.76513 0.2219,0.77419 0.45983,1.42757 0.52763,1.44975 0.0678,0.0235 0.34024,-0.3612 0.6053,-0.85431 0.26504,-0.49189 0.73104,-1.28333 1.03431,-1.75795 0.30449,-0.47463 0.87157,-1.25129 1.25991,-1.72591 0.38955,-0.47463 1.08977,-1.22662 1.55453,-1.67042 0.46601,-0.44381 1.23526,-1.11814 1.70989,-1.49784 0.47461,-0.3797 1.47317,-1.02938 2.21901,-1.44359 0.74583,-0.41422 1.93794,-0.99486 2.65049,-1.29072 0.71254,-0.29589 1.58536,-0.62874 1.94164,-0.73844 0.35628,-0.11095 0.64351,-0.24286 0.63983,-0.29342 -0.004,-0.0505 -0.37724,-0.26751 -0.83215,-0.48201 -0.45367,-0.21573 -1.21305,-0.69283 -1.68769,-1.06142 -0.47461,-0.36862 -1.1169,-0.97022 -1.42756,-1.33635 -0.30942,-0.3649 -0.80623,-1.02445 -1.10211,-1.46579 -0.29586,-0.44134 -0.74584,-1.24511 -0.99979,-1.78754 -0.25271,-0.54243 -0.63119,-1.59647 -0.83952,-2.3423 -0.20835,-0.74583 -0.42039,-1.7037 -0.47094,-2.12779 -0.0505,-0.42408 -0.0493,-0.77175 0.002,-0.7705 0.0505,0 0.5227,0.36737 1.04788,0.81365 0.52515,0.44749 1.89849,1.44236 3.05114,2.21039 1.19825,0.80008 2.80828,1.7407 3.76,2.20053 0.91473,0.44133 2.24613,0.99362 2.95868,1.22662 0.71255,0.233 1.90466,0.55351 2.65051,0.71378 1.17483,0.25026 1.70247,0.28971 3.94491,0.29216 2.10929,0.003 2.7713,-0.0406 3.57508,-0.22928 0.54242,-0.12699 1.31907,-0.34025 1.72591,-0.47215 0.40681,-0.13315 1.29441,-0.48204 1.97245,-0.77667 0.67804,-0.29463 1.92562,-0.9024 2.77376,-1.35114 0.84693,-0.44873 2.31764,-1.16744 3.2669,-1.59768 0.94923,-0.43025 2.11423,-0.9209 2.58885,-1.0898 0.47461,-0.16888 1.85904,-0.57695 3.07581,-0.90733 1.21675,-0.33039 2.29791,-0.66202 2.40392,-0.73845 0.15534,-0.11095 -0.0418,-0.22559 -1.0417,-0.60282 -0.67803,-0.25642 -1.41277,-0.5412 -1.63346,-0.63367 l -0.40064,-0.16642 c 0.59915,-0.52517 0.85926,-0.84447 0.96527,-1.04787 0.10603,-0.20342 0.28231,-0.729817 0.39202,-1.171157 l 0.19972,-0.801298 c 5.0532,-0.129448 5.96299,-0.200943 6.51776,-0.357502 0.40681,-0.115887 0.86417,-0.289707 1.01704,-0.388335 0.15287,-0.09863 0.42161,-0.331615 0.59913,-0.517771 0.17629,-0.186144 0.48203,-0.671859 0.67803,-1.078666 0.19602,-0.406829 0.55106,-1.516324 0.78899,-2.465555 0.23669,-0.949261 0.56584,-2.36326 0.72981,-3.143602 0.16396,-0.780346 0.35997,-1.972462 0.43641,-2.650493 0.0752,-0.678032 0.10108,-1.34374 0.0555,-1.479343 -0.0703,-0.212036 -0.14423,-0.232994 -0.52886,-0.1504 -0.24656,0.05179 -0.64722,0.24656 -0.89254,0.431477 -0.24409,0.183682 -0.70639,0.641052 -1.0269,1.013349 -0.3193,0.372305 -0.82351,1.177308 -1.11815,1.787542 -0.29464,0.610222 -0.62257,1.317842 -0.72981,1.571806 -0.10602,0.253942 -0.24903,0.46228 -0.31682,0.46228 -0.0678,0 -0.17876,-0.277362 -0.24656,-0.61639 -0.0678,-0.339008 -0.12204,-1.434955 -0.11959,-2.434743 0.004,-1.589065 -0.0234,-1.844253 -0.21573,-2.021772 -0.12082,-0.11342 -0.77419,-0.410521 -1.45222,-0.662009 -0.67803,-0.251488 -1.87137,-0.776655 -2.6505,-1.164983 -0.78036,-0.389556 -1.75056,-0.919659 -2.15738,-1.178545 -0.40681,-0.25765 -1.15635,-0.774185 -1.66426,-1.146492 -0.50914,-0.373533 -1.36099,-1.098413 -1.89355,-1.613713 -0.53381,-0.514079 -1.28827,-1.322782 -1.67784,-1.797411 -0.38956,-0.47462 -0.92088,-1.195802 -1.18223,-1.602616 -0.26136,-0.406822 -1.02199,-1.93178 -1.69015,-3.390166 -0.91104,-1.983555 -1.43867,-2.961152 -2.09944,-3.883282 -0.48573,-0.678031 -1.27717,-1.704939 -1.75796,-2.280648 -0.48078,-0.575708 -1.45345,-1.596454 -2.15984,-2.267096 -0.70639,-0.670634 -1.40906,-1.295654 -1.56195,-1.386882 -0.26135,-0.157797 -0.33778,-0.110948 -1.29441,0.791451 -0.55969,0.527632 -1.34991,1.162514 -1.75673,1.411539 -0.40682,0.249024 -1.21183,0.623792 -1.78754,0.830894 -0.57694,0.208346 -1.07499,0.351348 -1.10951,0.318058 -0.0345,-0.03326 0.19602,-0.548588 0.51161,-1.142791 0.3156,-0.595439 0.83584,-1.665497 1.15635,-2.376809 0.32052,-0.711321 0.79145,-1.877533 1.04664,-2.588855 0.25519,-0.711321 0.58434,-1.849177 0.73104,-2.527208 0.1467,-0.678042 0.34641,-1.787542 0.44258,-2.465575 0.0961,-0.678039 0.17628,-1.843015 0.17628,-2.588854 0.002,-0.745838 -0.0567,-1.716044 -0.12944,-2.157375 -0.0715,-0.441339 -0.15902,-0.829667 -0.19355,-0.862958 -0.0345,-0.03326 -0.18121,0.104788 -0.3267,0.308199 -0.14422,0.203411 -0.59789,0.722417 -1.00717,1.153887 -0.40929,0.432714 -1.3536,1.241416 -2.09945,1.798638 -0.74582,0.557223 -2.24366,1.60139 -3.32851,2.320109 -1.08486,0.718711 -2.44216,1.683982 -3.01663,2.146279 -0.57325,0.462296 -1.36963,1.229093 -1.76782,1.703712 -0.41051,0.489416 -0.95418,1.34374 -1.25497,1.97246 -0.29095,0.610223 -0.65338,1.581667 -0.80378,2.157374 -0.1504,0.575709 -0.34025,1.630979 -0.42039,2.342293 l -0.14669,1.294428 c -0.43394,-1.146491 -0.68914,-1.978622 -0.84816,-2.588855 -0.15903,-0.610225 -0.32792,-1.581659 -0.376,-2.157375 -0.053,-0.634882 -0.0284,-1.485506 0.0605,-2.157377 0.0801,-0.610225 0.29464,-1.553311 0.47585,-2.095739 0.18245,-0.542426 0.56586,-1.360989 0.85432,-1.81836 l 0.52517,-0.83213 c -1.76781,-0.837056 -2.91924,-1.331406 -3.69835,-1.63837 -0.78037,-0.308197 -2.33368,-0.866654 -3.45182,-1.24265 -1.11936,-0.376005 -3.19907,-1.01335 -4.62295,-1.418936 -1.42387,-0.404359 -3.21263,-0.906099 -3.97573,-1.114445 -0.76309,-0.208337 -1.38812,-0.33778 -1.39059,-0.28724 -0.002,0.05053 0.47833,0.509146 1.06637,1.017056 0.58804,0.509137 1.53852,1.423869 2.113,2.034095 0.57447,0.610233 1.39427,1.635905 1.82453,2.280656 0.429,0.644751 0.98499,1.614948 1.23524,2.157375 0.25026,0.542428 0.58682,1.430032 0.7483,1.972459 0.16149,0.542427 0.35505,1.458388 0.42778,2.034104 0.0875,0.679259 0.0962,1.373322 0.0247,1.972458 -0.0605,0.509137 -0.16397,0.913488 -0.2293,0.898703 -0.0653,-0.01481 -0.53504,-0.198486 -1.04295,-0.410522 -0.50912,-0.21081 -1.56316,-0.56832 -2.34229,-0.793914 -0.78034,-0.225605 -2.11176,-0.527633 -2.95868,-0.673106 -0.84817,-0.145467 -2.26217,-0.297102 -3.14361,-0.339017 -0.9776,-0.04563 -2.22764,-0.01353 -3.20524,0.08261 -0.88144,0.08629 -2.13643,0.274908 -2.78734,0.419146 l -1.18594,0.261349 c -1.12676,-1.015812 -1.90465,-1.475646 -3.23853,-2.120396 -1.05156,-0.507902 -2.18819,-1.0528 -2.52721,-1.211825 -0.33902,-0.159034 -1.03308,-0.562149 -1.54098,-0.896237 -0.50915,-0.334083 -1.25744,-0.911027 -1.66427,-1.280869 -0.40683,-0.371061 -1.07129,-1.113201 -1.47811,-1.650701 -0.4056,-0.537492 -0.96528,-1.420171 -1.24142,-1.96259 -0.27739,-0.542427 -0.6386,-1.444828 -0.80257,-2.005748 -0.16517,-0.559686 -0.32791,-1.019511 -0.36119,-1.020747 -0.0345,-8.46e-4 -0.27862,0.430243 -0.54366,0.957875 -0.26505,0.527632 -0.61517,1.347439 -0.77789,1.822058 -0.16397,0.47462 -0.43149,1.500302 -0.59667,2.280656 -0.16767,0.796378 -0.299567,1.836854 -0.299567,2.373112 -0.002,0.525168 0.0838,1.357299 0.187377,1.849187 0.10232,0.491878 0.48942,1.78137 0.85926,2.866225 0.36983,1.084854 0.75569,2.332431 0.85802,2.773771 0.10232,0.441339 0.18738,1.17608 0.18861,1.633435 0,0.45737 -0.0838,1.234025 -0.18861,1.725905 -0.10356,0.491879 -0.31191,1.139092 -0.46231,1.439893 -0.14916,0.3008 -0.54981,0.788988 -0.88884,1.084853 -0.3501,0.305735 -0.882677,0.623794 -1.232788,0.734742 -0.42654,0.135604 -0.843213,0.17382 -1.356053,0.12328 -0.586803,-0.05797 -0.880212,-0.17013 -1.415237,-0.541199 -0.371059,-0.25765 -0.952939,-0.828432 -1.294414,-1.269771 C 94.908155,70.572727 93.90837,69.491572 93.026934,68.610129 92.145501,67.728686 91.007636,66.698079 90.499726,66.318385 89.99058,65.939917 89.102991,65.353112 88.527275,65.015324 87.950332,64.67878 87.007253,64.201687 86.431536,63.957597 85.854592,63.712272 84.190331,63.172308 82.73318,62.75686 81.274491,62.342623 79.776655,61.888951 79.404354,61.750884 79.030818,61.612806 78.282517,61.27749 77.740091,61.005045 77.197664,60.733827 76.366767,60.253044 75.89461,59.937449 c -0.47339,-0.315595 -1.463318,-1.15635 -2.201757,-1.867672 -0.73736,-0.711321 -1.607709,-1.654408 -1.934397,-2.095748 -0.326689,-0.441331 -0.870346,-1.356064 -1.209364,-2.034094 -0.337783,-0.678032 -0.806242,-1.787542 -1.03924,-2.465573 -0.232995,-0.678032 -0.511604,-1.63468 -0.620091,-2.126558 -0.108485,-0.491879 -0.255187,-0.893768 -0.325455,-0.893768 -0.07027,0 -0.230532,0.208339 -0.356289,0.462288 z m -17.154227,66.87867 c -0.340237,0.69529 -0.702688,1.59645 -0.804998,2.00327 -0.102333,0.40682 -0.186164,1.11442 -0.186164,1.57179 0.0012,0.45737 0.08631,1.23402 0.191096,1.72592 0.103541,0.49186 0.39448,1.31045 0.645968,1.81835 0.302044,0.61145 0.748301,1.23032 1.320314,1.82945 0.475855,0.49805 1.168681,1.10581 1.542229,1.35114 0.372301,0.24532 1.204432,0.70516 1.849179,1.02321 0.643503,0.31806 2.169693,0.93939 3.390164,1.38072 1.220447,0.44011 2.718282,1.01582 3.328525,1.27718 0.610217,0.26257 1.524945,0.71378 2.034097,1.00471 0.507897,0.28971 1.423856,0.89747 2.034097,1.35115 0.610218,0.45242 1.639597,1.35113 2.289274,1.9971 0.648446,0.64598 1.356066,1.39675 1.571803,1.66797 0.21697,0.27121 0.394505,0.41051 0.395737,0.30819 0.0011,-0.10232 -0.117127,-0.57325 -0.261364,-1.04787 -0.145455,-0.47462 -0.486936,-1.30676 -0.759382,-1.84919 -0.272447,-0.54242 -0.722426,-1.31907 -0.999803,-1.7259 -0.276132,-0.40682 -0.893771,-1.14894 -1.369614,-1.65069 -0.4771,-0.50051 -1.283343,-1.22786 -1.79124,-1.61619 -0.509153,-0.38709 -1.423868,-1.02937 -2.034098,-1.42632 -0.610242,-0.39697 -2.274503,-1.28704 -3.69836,-1.9774 -1.423869,-0.69159 -2.950059,-1.51017 -3.390164,-1.82083 -0.441338,-0.31065 -1.179789,-0.94061 -1.642083,-1.39921 -0.462296,-0.4586 -1.041694,-1.13909 -1.289495,-1.51263 -0.246559,-0.37354 -0.610218,-1.06636 -0.807463,-1.54099 -0.197259,-0.47462 -0.435188,-1.22292 -0.527645,-1.66426 -0.09121,-0.44133 -0.167647,-1.14773 -0.16888,-1.5718 -0.0012,-0.42408 -0.05673,-0.77048 -0.122047,-0.77048 -0.06534,0 -0.398202,0.5683 -0.739683,1.26361 z M 174.94986,131.8643 c -0.0838,0.26382 -0.43024,1.03554 -0.77049,1.71359 -0.34026,0.67802 -0.90611,1.67657 -1.25868,2.21901 -0.35258,0.54241 -1.00226,1.40291 -1.44359,1.91081 -0.44134,0.50914 -1.18718,1.21554 -1.65688,1.57181 -0.4697,0.35628 -1.27099,0.86294 -1.77889,1.128 -0.50917,0.26382 -1.3684,0.62009 -1.91084,0.79021 -0.54242,0.17012 -1.5681,0.38092 -2.28066,0.46969 -1.03922,0.12698 -1.64699,0.12944 -3.08197,0.008 -0.98252,-0.0825 -2.84156,-0.31314 -4.12982,-0.51162 -1.28826,-0.19847 -2.95252,-0.42654 -3.69836,-0.50667 -0.77789,-0.0838 -1.96013,-0.11465 -2.77378,-0.0715 -0.78035,0.0406 -1.88985,0.15657 -2.46556,0.25643 -0.57695,0.10109 -1.5755,0.3538 -2.21902,0.56461 -0.64351,0.20958 -1.58783,0.60407 -2.09574,0.87775 -0.50914,0.27244 -1.33511,0.80993 -1.83808,1.19579 -0.50175,0.38464 -1.15142,0.97638 -1.44359,1.31539 -0.29218,0.33902 -0.53379,0.65831 -0.53626,0.70885 -0.002,0.0505 0.34271,-0.0974 0.76678,-0.33038 0.42408,-0.23176 1.21429,-0.57202 1.75672,-0.75447 0.54243,-0.18245 1.40169,-0.40559 1.91083,-0.49682 0.51407,-0.0925 1.80109,-0.16767 2.89704,-0.17012 1.15389,-0.003 2.43353,0.0703 3.08198,0.17506 0.61022,0.0986 1.77521,0.37107 2.58884,0.6053 0.81364,0.23546 2.00699,0.61886 2.65049,0.85309 0.64353,0.23422 1.86399,0.62379 2.71213,0.86664 0.84692,0.24163 2.12286,0.55969 2.8354,0.70516 1.08486,0.2219 1.58292,0.25519 3.08197,0.20833 1.51265,-0.0481 1.94904,-0.10847 2.83543,-0.39448 0.5757,-0.18492 1.51878,-0.57818 2.09573,-0.87281 0.57572,-0.29464 1.46332,-0.88761 1.97246,-1.31786 0.5079,-0.43023 1.28457,-1.2599 1.72589,-1.84425 0.44011,-0.58434 1.05898,-1.58042 1.37333,-2.21407 0.31436,-0.63366 0.6916,-1.53976 0.83707,-2.01438 0.14546,-0.47464 0.3464,-1.33511 0.44627,-1.91082 0.10848,-0.62749 0.17505,-1.73947 0.16519,-2.77377 -0.008,-0.94925 -0.0567,-1.8874 -0.10726,-2.08341 l -0.0913,-0.35875 z"
       style="fill:#333333;stroke-width:0.123278" />
    <path
       id="Path 5-6-2-6-2-4-3"
       class="s1"
       d="m 119.09968,66.530331 c -0.17013,0.02463 -0.69652,0.104786 -1.17115,0.178754 -0.47461,0.07397 -1.36222,0.26751 -1.97245,0.430242 -0.61023,0.162724 -1.46949,0.436406 -1.91082,0.610225 -0.44134,0.172586 -1.16128,0.512837 -1.60263,0.754464 -0.44134,0.241628 -1.13416,0.675568 -1.54097,0.962809 -0.40683,0.288468 -1.09965,0.878972 -1.541,1.312913 -0.44134,0.433942 -1.13909,1.232791 -1.55084,1.775218 -0.41174,0.542427 -1.4399,2.013138 -2.28313,3.266886 -0.84323,1.253739 -1.94781,2.918 -2.45572,3.698356 -0.50668,0.780354 -1.41893,2.083406 -2.0267,2.897052 -0.60777,0.813637 -1.690168,2.063687 -2.40395,2.778698 -0.715001,0.715021 -1.645748,1.53359 -2.069834,1.818359 -0.424073,0.286015 -1.200723,0.740913 -1.72589,1.010887 -0.525156,0.271217 -1.370856,0.583114 -1.879985,0.695299 -0.686663,0.151627 -1.27347,0.18738 -2.280656,0.138067 -1.098415,-0.05298 -1.554531,-0.138067 -2.40392,-0.446266 -0.575708,-0.209573 -1.487978,-0.645986 -2.026715,-0.968971 -0.53871,-0.322993 -1.007186,-0.670634 -1.040467,-0.772958 -0.04808,-0.145473 0.0034,-0.165194 0.239155,-0.09616 0.165205,0.04809 0.841991,0.145474 1.502781,0.215744 0.840765,0.08876 1.563174,0.08753 2.403937,-0.0059 0.660757,-0.07271 1.534802,-0.245326 1.941624,-0.382157 0.406823,-0.13684 1.003483,-0.382166 1.325241,-0.544899 0.532567,-0.268746 0.578179,-0.326682 0.50914,-0.63488 -0.04322,-0.186152 -0.287229,-0.727345 -0.542417,-1.201964 -0.255195,-0.474631 -0.761869,-1.189641 -1.125542,-1.587831 -0.362435,-0.399426 -0.965271,-0.887615 -1.337568,-1.086091 -0.372305,-0.198478 -0.98375,-0.544891 -1.356055,-0.769258 -0.372305,-0.225596 -0.816107,-0.54489 -0.986229,-0.711323 -0.168895,-0.166421 -0.755698,-0.769257 -1.304288,-1.341266 -0.547362,-0.570783 -1.324027,-1.257447 -1.725906,-1.524959 -0.40065,-0.267517 -1.089788,-0.612697 -1.531119,-0.768021 -0.441339,-0.154099 -1.050333,-0.282315 -1.356064,-0.284778 -0.305732,-0.0025 -0.860485,0.08507 -1.232787,0.19355 -0.372301,0.108485 -1.246359,0.441331 -1.941639,0.740903 L 77.43151,77.42473 c -2.244903,-0.491879 -3.340851,-0.666935 -3.883277,-0.705151 -0.695292,-0.04933 -1.258675,-0.0086 -1.910819,0.135605 -0.592972,0.131913 -1.267306,0.403123 -1.88,0.758163 -0.584341,0.336551 -1.416473,0.994861 -2.14013,1.691387 -0.650901,0.627484 -1.608776,1.666724 -2.127779,2.311475 -0.517782,0.644751 -1.179789,1.643305 -1.468248,2.219013 -0.289718,0.575717 -0.607764,1.436203 -0.706387,1.910824 -0.09862,0.474619 -0.179987,1.140327 -0.181219,1.479343 -0.0011,0.339016 0.0863,1.115672 0.194768,1.725906 0.108497,0.610224 0.246556,1.234017 0.308197,1.386882 0.06041,0.152856 0.166438,0.277378 0.234242,0.277378 0.06778,0 0.369835,-0.179995 0.670634,-0.400658 0.302033,-0.22067 1.119371,-0.824735 1.818362,-1.343733 0.698989,-0.520243 1.825756,-1.43004 2.50379,-2.02547 0.678033,-0.594202 1.427554,-1.264844 1.664261,-1.489213 0.236695,-0.225595 0.473391,-0.410513 0.523935,-0.410513 0.05052,-8.46e-4 0.06041,0.151636 0.02217,0.33778 -0.03945,0.186152 -0.23916,0.67187 -0.446269,1.078694 -0.205875,0.406821 -0.643514,1.127995 -0.973901,1.602624 -0.329142,0.474619 -1.114439,1.427559 -1.743148,2.117921 -0.628721,0.690356 -1.669194,1.829448 -2.313942,2.533372 -0.644746,0.702672 -1.346215,1.60754 -1.561953,2.011885 -0.214492,0.40312 -0.483238,1.093476 -0.597888,1.534819 -0.150401,0.575704 -0.192315,1.095936 -0.149168,1.849165 0.03573,0.610221 0.175056,1.381937 0.335318,1.849175 0.1504,0.441337 0.445024,1.050347 0.654597,1.356067 0.209586,0.30574 0.855567,1.11445 1.434978,1.79864 0.580641,0.68421 1.245113,1.59894 1.476878,2.03413 0.232984,0.43516 0.608995,1.37332 0.837062,2.08462 0.255186,0.79763 0.613928,1.5977 0.933219,2.08343 0.285995,0.43516 0.825967,1.06512 1.198269,1.40168 0.372302,0.33655 1.121824,0.87527 1.664263,1.19827 0.542427,0.32424 1.846714,1.00471 2.897047,1.5151 1.050335,0.50913 2.270794,1.16251 2.712133,1.44975 0.441324,0.28847 1.153887,0.86295 1.585363,1.27719 0.430229,0.41296 1.234006,1.33385 1.786295,2.04639 0.551068,0.71256 1.380734,1.79371 1.843031,2.40395 0.463515,0.61023 1.683982,2.07971 2.714598,3.26442 1.029372,1.18594 2.231336,2.54446 2.672675,3.02155 0.441339,0.47586 1.222931,1.33636 1.736985,1.91205 0.515309,0.57696 1.051573,1.18719 1.192104,1.35609 0.140539,0.17011 1.030614,1.2229 1.977391,2.34229 0.946772,1.11937 2.162298,2.45077 2.701023,2.9587 0.538724,0.50912 1.141546,1.05401 1.34003,1.21181 0.197238,0.15903 0.803778,0.58188 1.346195,0.94185 0.542416,0.35874 1.458388,0.84693 2.034095,1.08485 0.57571,0.23669 1.49169,0.52887 2.03411,0.64721 0.78899,0.1726 1.34497,0.20342 2.77378,0.15041 1.29691,-0.0469 2.03288,-0.1356 2.68133,-0.32423 0.49187,-0.143 1.24017,-0.41668 1.66426,-0.60776 0.42407,-0.19109 1.15881,-0.60407 1.63344,-0.9172 0.4746,-0.31312 1.36222,-1.03554 1.97245,-1.60509 0.61023,-0.56955 1.42141,-1.41893 1.80357,-1.88739 0.38216,-0.46847 1.08116,-1.43374 1.55331,-2.14628 0.47339,-0.71254 1.18593,-1.90466 1.58537,-2.65048 0.39819,-0.74585 1.12059,-2.18821 1.60385,-3.20525 0.48326,-1.01706 1.08855,-2.34846 1.34374,-2.95869 0.25642,-0.61024 0.67187,-1.63715 0.92582,-2.28066 0.25396,-0.64352 0.76803,-2.11423 1.1428,-3.26689 0.37476,-1.15266 0.91348,-2.90075 1.19703,-3.88329 0.28478,-0.98252 0.83952,-3.11893 1.23402,-4.74622 0.3945,-1.62727 0.94185,-4.15079 1.21429,-5.60919 0.27369,-1.45839 0.66324,-3.704537 0.86666,-4.992801 0.2034,-1.288251 0.42653,-2.757733 0.49682,-3.266855 0.069,-0.507925 0.18243,-1.561939 0.25024,-2.342284 0.0678,-0.780352 0.15656,-2.083418 0.19848,-2.897042 0.0407,-0.813641 0.0173,-1.951506 -0.0519,-2.527223 -0.069,-0.575708 -0.16025,-1.380719 -0.20218,-1.787533 l -0.0764,-0.739677 c 0.50052,0.573245 0.94556,1.349902 1.31168,2.095739 0.36737,0.745839 0.80502,1.772748 0.97391,2.280658 0.16889,0.509138 0.40683,1.492895 0.52886,2.188192 l 0.2219,1.264832 c 1.71974,1.252508 2.91309,2.078467 3.76,2.643081 0.84816,0.56584 2.05382,1.310439 2.68132,1.656863 0.62749,0.346403 1.73699,0.913487 2.46556,1.258654 0.72859,0.346422 1.99096,0.895003 2.8046,1.219227 0.81364,0.325462 2.08957,0.786529 2.83542,1.025679 0.74583,0.23793 2.10559,0.62995 3.02032,0.86913 0.91473,0.23915 2.02424,0.49804 2.46557,0.57571 0.44134,0.0765 1.46702,0.2182 2.28066,0.31314 0.81363,0.0961 2.50626,0.17381 3.76,0.17381 1.25374,0 2.77994,-0.0567 3.39015,-0.12575 0.61024,-0.0703 1.66427,-0.23916 2.34231,-0.37476 0.67803,-0.13684 1.89849,-0.44381 2.71213,-0.68174 0.81364,-0.23793 1.92315,-0.64598 2.46557,-0.90487 0.56584,-0.272437 1.05774,-0.596667 1.15266,-0.763097 0.0925,-0.160263 0.16272,-0.485713 0.15656,-0.722406 -0.006,-0.247806 -0.11218,-0.536255 -0.24902,-0.678039 -0.13191,-0.135604 -0.56216,-0.396943 -0.95788,-0.581854 -0.39573,-0.184927 -1.43989,-0.617631 -2.32134,-0.961575 -0.88144,-0.345176 -2.65665,-1.145257 -3.9449,-1.778905 -1.28827,-0.633657 -2.89706,-1.46701 -3.57509,-1.854097 -0.67805,-0.385862 -1.78755,-1.038003 -2.46557,-1.448517 -0.67804,-0.410526 -1.9811,-1.224159 -2.89583,-1.807266 -0.91349,-0.58311 -3.58988,-2.336135 -5.94696,-3.895608 -2.3571,-1.559476 -4.79924,-3.165799 -5.42673,-3.570152 -0.62749,-0.403123 -2.33243,-1.523721 -3.79081,-2.488994 -1.45838,-0.965271 -2.84528,-1.919455 -3.08196,-2.120395 -0.2367,-0.199713 -0.40436,-0.395727 -0.36984,-0.433941 0.0345,-0.03826 0.75569,0.06652 1.60262,0.231765 1.04663,0.204639 1.97616,0.302027 2.89704,0.305727 0.89255,0.0025 1.58784,-0.06408 2.0341,-0.194778 0.37353,-0.108486 0.87282,-0.31436 1.10951,-0.457363 0.2367,-0.141774 0.61146,-0.40066 0.83213,-0.573244 0.22067,-0.172593 0.40066,-0.356274 0.40066,-0.406823 0,-0.05052 -0.48572,-0.361208 -1.07869,-0.690364 -0.59297,-0.327918 -1.68892,-0.920886 -2.43476,-1.315383 -0.74583,-0.395719 -1.77151,-0.982531 -2.28064,-1.305516 -0.50792,-0.322994 -1.78385,-1.128004 -2.83541,-1.788778 -1.05157,-0.660773 -2.63201,-1.548377 -3.51346,-1.972458 -0.88143,-0.424081 -2.04642,-0.940616 -2.58884,-1.150188 -0.54244,-0.208339 -1.65193,-0.543656 -2.46557,-0.744595 -0.81365,-0.200948 -1.95151,-0.422853 -2.52722,-0.491887 -0.57573,-0.06907 -1.76904,-0.118347 -2.65049,-0.109714 -0.88144,0.0099 -1.7407,0.03699 -1.91083,0.06162 z"
       style="fill:#fbbf0c;fill-opacity:1;stroke-width:0.123278" />
    <path
       id="Path 6-1-2-1-6-8-1"
       class="s2"
       d="m 156.20656,75.836628 c -0.37353,0.133143 -0.85801,0.351349 -1.07869,0.48449 -0.22066,0.131906 -0.4894,0.420382 -0.59666,0.641053 -0.17876,0.362436 -0.17876,0.4475 -0.007,0.893765 0.10356,0.271218 0.40066,0.702688 0.65832,0.959111 0.2675,0.265047 0.68173,0.522697 0.96279,0.597901 0.27123,0.07152 0.90981,0.203411 1.41771,0.292166 0.50915,0.08876 1.17485,0.226833 1.47934,0.308198 0.30452,0.08016 1.19211,0.447501 1.97247,0.816108 0.78036,0.367371 1.43126,0.666934 1.44851,0.6657 0.0173,-8.47e-4 0.0308,-0.390792 0.0308,-0.865413 0,-0.47462 -0.0887,-1.126769 -0.19848,-1.448525 -0.10849,-0.321758 -0.34518,-0.883907 -0.52394,-1.250042 -0.18122,-0.369842 -0.62502,-0.944314 -1.00349,-1.298124 -0.41914,-0.392028 -0.91349,-0.715021 -1.29442,-0.846926 -0.39943,-0.139305 -0.96281,-0.209574 -1.60263,-0.203413 -0.64721,0.0077 -1.21922,0.09369 -1.66426,0.253951 z m -93.157984,11.51177 c 0,0.47462 0.02219,0.641052 0.04931,0.369833 0.0259,-0.271208 0.0259,-0.659537 -0.0011,-0.862948 -0.02711,-0.203411 -0.04931,0.01854 -0.04809,0.493115 z m 65.589184,1.602624 c 0,0.678037 0.0211,0.927059 0.0457,0.554752 0.0247,-0.372305 0.0247,-0.927057 -0.002,-1.232782 -0.0247,-0.305736 -0.0457,0 -0.0444,0.67803 z"
       style="fill:#d82624;stroke-width:0.123278" />
    <path
       id="Path 7-8-8-0-6-1-7"
       class="s0"
       d="m 114.04156,74.681514 -0.79762,0.83213 c 1.29197,-1.242652 1.6655,-1.616185 1.6655,-1.633443 -0.002,-0.01727 -0.0173,-0.0308 -0.0358,-0.0308 -0.0185,0 -0.39326,0.374768 -0.83213,0.832131 z M 89.681703,106.33329 c 8.46e-4,0.74583 0.02099,1.02321 0.04563,0.61639 0.02463,-0.40683 0.02463,-1.01704 0,-1.35606 -0.02591,-0.33902 -0.04563,-0.006 -0.04563,0.73967 z"
       style="fill:#161616;stroke-width:0.123278" />
    <path
       id="Path 8-7-9-6-4-0-5"
       class="s2"
       d="m 119.83935,69.973499 c 0.10233,0.02345 0.58681,0.05789 1.0787,0.07889 0.49064,0.01972 0.89376,-0.0051 0.89376,-0.05544 0,-0.05052 -0.48572,-0.08629 -1.07869,-0.0777 -0.59297,0.0077 -0.9961,0.03207 -0.89377,0.05425 z M 94.12219,110.64804 c 0,0.88145 0.0197,1.21429 0.04313,0.73967 0.02343,-0.47463 0.02343,-1.1958 0,-1.60263 -0.02467,-0.40681 -0.04313,-0.0185 -0.04313,0.86296 z"
       style="fill:#d82624;stroke-width:0.123278" />
    <path
       id="Path 9-9-7-3-9-3-9"
       class="s3"
       d="m 118.05182,70.217589 c -0.54244,0.09122 -1.40292,0.313132 -1.91083,0.493115 -0.50913,0.179991 -1.28456,0.525169 -1.7259,0.766795 -0.44134,0.241628 -1.13416,0.692828 -1.54098,1.002253 -0.40682,0.309433 -1.01088,0.84199 -1.34374,1.182243 -0.33161,0.340252 -0.99732,1.146489 -1.47934,1.790003 -0.4808,0.644752 -1.34744,1.907125 -1.92314,2.807063 -0.57696,0.8987 -1.87508,2.895816 -2.88598,4.438032 -1.01088,1.540982 -2.28312,3.5233 -2.82801,4.404743 -0.54366,0.881443 -1.45469,2.407637 -2.02425,3.390164 -0.568307,0.983756 -1.552078,2.84156 -2.185728,4.129808 -0.63365,1.288261 -1.430027,3.091818 -1.771511,4.006531 -0.340244,0.914734 -0.818556,2.358331 -1.062648,3.205251 -0.244096,0.84816 -0.549818,2.15123 -0.680496,2.89708 -0.130678,0.74583 -0.295862,1.93917 -0.366135,2.65048 -0.07028,0.71255 -0.122043,2.12656 -0.115876,3.14361 l 0.01109,1.8492 c 0.438877,-2.00576 0.718715,-3.08815 0.90487,-3.69838 0.186139,-0.61023 0.671861,-1.99711 1.077452,-3.08196 0.406803,-1.08487 1.120585,-2.80461 1.589046,-3.82166 0.467228,-1.01707 1.42386,-2.930342 2.125329,-4.253119 0.702687,-1.32153 2.082177,-3.790791 3.067177,-5.485877 0.98499,-1.695065 2.39038,-4.052148 3.12389,-5.239316 0.73228,-1.185942 2.25108,-3.682342 3.37537,-5.547545 1.12431,-1.863974 2.15123,-3.55659 2.28313,-3.76 0.1319,-0.203412 0.50668,-0.729816 0.83337,-1.171146 0.32669,-0.44134 0.99485,-1.2069 1.48304,-1.703714 0.48941,-0.496812 1.44359,-1.279632 2.12162,-1.740692 0.67803,-0.461069 1.70494,-1.093487 2.28066,-1.405383 0.57571,-0.311889 1.52002,-0.761862 2.09575,-0.99979 l 1.04785,-0.432706 c -2.00697,0.016 -3.03265,0.09492 -3.57507,0.184917 z M 89.110929,105.75634 c -0.178747,0.65708 -0.406814,1.69261 -0.507901,2.30285 -0.09986,0.61022 -0.218207,1.55331 -0.262585,2.09574 -0.04435,0.54242 -0.01727,1.76289 0.05916,2.71213 0.0777,0.94925 0.216971,2.08711 0.31066,2.52722 0.09369,0.44134 0.319295,1.27346 0.50175,1.84918 0.182445,0.57694 0.535012,1.49167 0.785272,2.03409 0.249016,0.54243 0.722409,1.4029 1.05033,1.91081 0.326691,0.50915 0.792686,1.17486 1.033081,1.47935 0.240386,0.3045 0.745834,0.87406 1.123062,1.26485 0.377228,0.39079 0.727341,0.71007 0.777878,0.70885 0.05058,-0.002 -0.160254,-0.56954 -0.46968,-1.26483 -0.309431,-0.69531 -0.914729,-2.23383 -1.343736,-3.42099 -0.430243,-1.18594 -0.897474,-2.57283 -1.038004,-3.08198 -0.14054,-0.5079 -0.421618,-1.72959 -0.622558,-2.71212 -0.202184,-0.98253 -0.456135,-2.48037 -0.563384,-3.32854 -0.108485,-0.84692 -0.22067,-2.58269 -0.250261,-3.85738 -0.02954,-1.27347 -0.09985,-2.33738 -0.156552,-2.36326 -0.05544,-0.0271 -0.24779,0.48819 -0.426545,1.14403 z"
       style="fill:#333333;stroke-width:0.123278" />
    <path
       style="font-size:192px;line-height:0.95;font-family:'Saira Stencil One';-inkscape-font-specification:'Saira Stencil One';text-align:center;letter-spacing:-3.89px;white-space:pre;fill:#d82624;stroke-width:0.107631"
       d="m 14.869747,188.75797 q 0.189356,-0.0237 0.591738,-0.0237 h 0.615407 q 1.585858,0 3.100706,0.2367 0.781093,0.11835 1.207145,0.2367 v 3.38473 q -0.355043,-0.0237 -1.183476,-0.11835 -1.112466,-0.11835 -1.940899,-0.11835 -0.923111,0 -1.49118,0.071 -0.544399,0.0474 -0.899441,0.18936 z m 1.207145,16.63966 q -2.366951,0 -3.763453,-0.40238 -1.372832,-0.42605 -2.082918,-1.3965 -0.6864157,-0.92311 -0.94678,-2.43796 -0.2366951,-1.53852 -0.2366951,-4.09483 0,-2.2486 0.1656866,-3.6451 0.189356,-1.3965 0.6627458,-2.34328 0.4970597,-0.97045 1.4438407,-1.49118 0.97045,-0.54439 2.556308,-0.73375 v 8.21331 q 0,1.3255 0.04734,2.55631 0.04734,0.94678 0.355043,1.42017 0.331373,0.4734 1.017789,0.59174 0.662747,0.14202 1.96457,0.14202 1.349162,0 2.295942,-0.11835 0.378713,-0.0237 0.92311,-0.11834 v 3.43207 q -1.159805,0.26036 -2.627314,0.35504 -0.804763,0.071 -1.775214,0.071 z m 10.053389,-16.47397 h 0.402382 l 1.86989,6.48544 -2.721993,9.79917 h -4.7339 z m 5.325639,13.39693 h -3.952807 l 0.994119,-3.6451 h 1.89356 l -2.793002,-9.75183 h 4.33152 l 5.183622,16.28461 h -4.828579 z m 6.763326,-13.39693 h 4.733902 v 16.28461 h -4.733902 z m 6.674801,10.74595 h -0.94678 v -3.62143 h 0.804763 q 0.733754,0 1.112467,-0.0474 0.378711,-0.071 0.591738,-0.23669 0.189356,-0.16569 0.260364,-0.49707 0.07101,-0.33137 0.07101,-0.97044 0,-0.63908 -0.07101,-0.97045 -0.07101,-0.35505 -0.260364,-0.52073 -0.189357,-0.16569 -0.568069,-0.21303 -0.355043,-0.0474 -1.136136,-0.0474 h -0.804763 v -3.62143 h 2.437959 q 1.680535,0 2.721993,0.33138 1.041458,0.33136 1.609527,1.01778 0.520729,0.63908 0.686415,1.58586 0.189356,0.94678 0.189356,2.43796 0,1.91723 -0.355042,2.95868 -0.49706,1.3255 -1.751544,1.8699 l 2.461629,6.08306 h -4.970596 z m 8.79888,-10.74595 h 4.733901 v 16.28461 h -4.733901 z m 5.72802,12.66319 h 0.97045 q 0.662745,0 0.994119,-0.0237 0.355043,-0.0474 0.520729,-0.18936 0.165686,-0.14202 0.213025,-0.40238 0.07101,-0.26037 0.07101,-0.75743 0,-0.52073 -0.07101,-0.78109 -0.04734,-0.26036 -0.213025,-0.40238 -0.284034,-0.2367 -1.514848,-0.2367 h -0.97045 v -3.62144 h 0.828433 q 0.662746,0 0.994119,-0.0237 0.355042,-0.0474 0.520729,-0.18936 0.165687,-0.14202 0.213026,-0.37871 0.07101,-0.26036 0.07101,-0.71008 0,-0.47339 -0.07101,-0.71009 -0.04734,-0.26037 -0.213026,-0.40238 -0.165687,-0.14202 -0.520729,-0.16569 -0.331373,-0.0474 -0.994119,-0.0474 h -0.828433 v -3.62143 h 2.698323 q 4.757571,0 4.757571,4.09482 0,1.72787 -0.686416,2.60365 -0.662745,0.87577 -2.130255,1.23082 v 0.0947 q 1.538518,0.35504 2.201264,1.11247 0.757424,0.89944 0.757424,2.793 0,2.17759 -1.159806,3.2664 -1.159805,1.08879 -3.716112,1.08879 h -2.721993 z m 18.692758,-4.52089 q 0,-2.05924 -0.02367,-2.69831 -0.04734,-0.97046 -0.260365,-1.39651 -0.213025,-0.44972 -0.686415,-0.5444 -0.47339,-0.071 -1.349162,-0.071 -1.017789,0 -1.325493,0.0947 V 188.758 q 0.213027,-0.0237 0.639078,-0.0237 h 0.686415 q 2.650985,0 4.094825,0.42605 1.467509,0.40237 2.130255,1.34916 0.615407,0.87577 0.757424,2.29594 0.165687,1.42017 0.165687,4.2605 0,2.4853 -0.118348,3.83447 -0.09468,1.32549 -0.520729,2.20126 -0.47339,0.99413 -1.467509,1.51485 -0.97045,0.52073 -2.721993,0.68642 z m -2.319612,8.33167 q -3.455748,0 -4.970596,-0.75743 -0.781094,-0.3787 -1.230814,-1.01778 -0.449721,-0.63908 -0.662747,-1.58586 -0.189356,-0.82843 -0.236695,-1.89356 -0.04734,-1.08879 -0.04734,-3.07704 0,-2.4853 0.09468,-3.81078 0.118348,-1.3255 0.544399,-2.22494 0.47339,-0.97045 1.44384,-1.49118 0.970449,-0.52072 2.745662,-0.71008 v 8.23698 q 0,1.39651 0.04734,2.67466 0.04734,0.97045 0.236695,1.42017 0.213026,0.44972 0.686416,0.52073 0.402382,0.0947 1.349162,0.0947 0.97045,0 1.325493,-0.071 v 3.66876 q -0.213026,0.0237 -0.639078,0.0237 z m 9.319609,-15.81123 v -0.66274 h 4.733901 l 9.136429,15.5982 v 0.68641 h -4.710231 z m 9.373124,5.2783 v -5.94104 h 4.497206 v 13.63363 z m -9.373124,-3.31372 4.497206,7.69259 v 5.9647 h -4.497206 z m 31.823198,0.66273 q -1.23081,-0.0473 -1.91723,-0.0473 -1.68053,0 -2.50897,0.14201 v -3.50308 q 0.80477,-0.071 1.77521,-0.071 2.17759,0 4.09483,0.28403 0.97045,0.11835 1.84622,0.28404 v 3.19537 z m -2.62732,13.18392 q -4.56821,0 -6.17774,-1.20714 -0.75742,-0.5444 -1.04146,-1.34917 -0.26037,-0.80476 -0.26037,-1.98823 0,-1.89356 0.75743,-2.793 0.66275,-0.75743 2.20127,-1.11248 v -0.0947 q -1.46751,-0.35505 -2.15393,-1.23082 -0.66275,-0.87578 -0.66275,-2.60365 0,-1.84622 0.92312,-2.76933 1.01778,-1.06512 3.62143,-1.37283 v 4.89959 q 0,0.52073 0.071,0.82842 0.071,0.28404 0.2367,0.44973 0.16569,0.14201 0.49706,0.21302 0.33138,0.0474 0.92312,0.0474 h 1.20714 v 3.3374 h -1.20714 q -0.63908,0 -0.99413,0.0474 -0.33137,0.0474 -0.52073,0.21303 -0.21302,0.16569 -0.28403,0.49706 -0.071,0.30769 -0.071,0.89943 0,0.56808 0.11835,0.87578 0.11835,0.3077 0.42605,0.47339 0.30771,0.16569 0.85211,0.2367 0.56807,0.071 1.53851,0.071 h 0.63908 v 3.43208 z m 1.6332,-10.08321 h 6.79315 v 3.33741 h -2.41429 v 6.17773 q -1.0888,0.2367 -2.69833,0.37871 -0.78109,0.0947 -1.68053,0.14202 z m 19.39668,-6.55645 q 0.18935,-0.0237 0.59174,-0.0237 h 0.6154 q 1.58586,0 3.1007,0.2367 0.7811,0.11835 1.20715,0.2367 v 3.38473 q -0.35504,-0.0237 -1.18348,-0.11835 -1.11246,-0.11835 -1.94089,-0.11835 -0.92312,0 -1.49118,0.071 -0.5444,0.0474 -0.89944,0.18936 z m 1.20714,16.63966 q -2.36695,0 -3.76345,-0.40238 -1.37283,-0.42605 -2.08291,-1.3965 -0.68642,-0.92311 -0.94679,-2.43796 -0.23669,-1.53852 -0.23669,-4.09483 0,-2.2486 0.16568,-3.6451 0.18936,-1.3965 0.66275,-2.34328 0.49706,-0.97045 1.44384,-1.49118 0.97045,-0.54439 2.5563,-0.73375 v 8.21331 q 0,1.3255 0.0474,2.55631 0.0474,0.94678 0.35505,1.42017 0.33137,0.4734 1.01779,0.59174 0.66275,0.14202 1.96457,0.14202 1.34915,0 2.29594,-0.11835 0.37871,-0.0237 0.92311,-0.11834 v 3.43207 q -1.15981,0.26036 -2.62731,0.35504 -0.80477,0.071 -1.77522,0.071 z m 6.36095,-16.47397 h 4.7339 v 16.28461 h -4.7339 z m 5.72801,0 h 6.01206 v 3.62143 h -6.01206 z m 0,6.24874 h 4.89959 v 3.62144 h -4.89959 z m 0,6.41445 h 6.01206 v 3.62142 h -6.01206 z m 8.37283,-12.66319 h 4.7339 v 16.28461 h -4.7339 z m 6.67481,10.74595 h -0.94678 v -3.62143 h 0.80476 q 0.73375,0 1.11246,-0.0474 0.37872,-0.071 0.59174,-0.23669 0.18936,-0.16569 0.26037,-0.49707 0.071,-0.33137 0.071,-0.97044 0,-0.63908 -0.071,-0.97045 -0.071,-0.35505 -0.26037,-0.52073 -0.18935,-0.16569 -0.56807,-0.21303 -0.35504,-0.0474 -1.13613,-0.0474 h -0.80476 v -3.62143 h 2.43796 q 1.68053,0 2.72199,0.33138 1.04145,0.33136 1.60952,1.01778 0.52073,0.63908 0.68642,1.58586 0.18936,0.94678 0.18936,2.43796 0,1.91723 -0.35505,2.95868 -0.49706,1.3255 -1.75154,1.8699 l 2.46163,6.08306 h -4.97059 z m 8.79888,-10.74595 h 4.7339 v 16.28461 h -4.7339 z m 5.72802,12.66319 h 0.18935 q 1.15981,0 1.6332,-0.0947 0.49706,-0.11835 0.73375,-0.52073 0.26037,-0.42606 0.28404,-1.34917 0.0474,-1.18347 0.0474,-2.55631 0,-1.34916 -0.0474,-2.57997 -0.0474,-0.92311 -0.3077,-1.34916 -0.2367,-0.42605 -0.7811,-0.52073 -0.5444,-0.071 -1.56219,-0.071 h -0.18935 v -3.62143 h 0.18935 q 1.89356,0 3.14805,0.16569 1.27815,0.16569 2.10659,0.52072 0.80475,0.35504 1.27814,0.97045 0.4734,0.61541 0.68642,1.53852 0.18936,0.82843 0.2367,1.96457 0.071,1.11247 0.071,2.98235 0,1.89357 -0.071,3.00603 -0.0474,1.11247 -0.2367,1.9409 -0.21302,0.92311 -0.68642,1.53852 -0.47339,0.61541 -1.27814,0.97045 -0.82844,0.35504 -2.10659,0.52073 -1.25449,0.16569 -3.14805,0.16569 h -0.18935 z m 18.92946,-4.52089 q 0,-2.05924 -0.0237,-2.69831 -0.0474,-0.97046 -0.26037,-1.39651 -0.21301,-0.44972 -0.68641,-0.5444 -0.47339,-0.071 -1.34916,-0.071 -1.01779,0 -1.32549,0.0947 V 188.758 q 0.21303,-0.0237 0.63908,-0.0237 h 0.68641 q 2.65098,0 4.09483,0.42605 1.4675,0.40237 2.13025,1.34916 0.61541,0.87577 0.75743,2.29594 0.16568,1.42017 0.16568,4.2605 0,2.4853 -0.11835,3.83447 -0.0947,1.32549 -0.52072,2.20126 -0.47339,0.99413 -1.46752,1.51485 -0.97044,0.52073 -2.72199,0.68642 z m -2.31961,8.33167 q -3.45574,0 -4.9706,-0.75743 -0.78109,-0.3787 -1.23081,-1.01778 -0.44972,-0.63908 -0.66275,-1.58586 -0.18935,-0.82843 -0.23669,-1.89356 -0.0474,-1.08879 -0.0474,-3.07704 0,-2.4853 0.0947,-3.81078 0.11835,-1.3255 0.5444,-2.22494 0.47339,-0.97045 1.44383,-1.49118 0.97046,-0.52072 2.74567,-0.71008 v 8.23698 q 0,1.39651 0.0474,2.67466 0.0473,0.97045 0.23669,1.42017 0.21303,0.44972 0.68642,0.52073 0.40238,0.0947 1.34916,0.0947 0.97045,0 1.32549,-0.071 v 3.66876 q -0.21302,0.0237 -0.63907,0.0237 z"
       id="text7"
       aria-label="CARBON &amp; CERDO" />
    <path
       style="font-size:384px;line-height:0.95;font-family:'Saira Stencil One';-inkscape-font-specification:'Saira Stencil One';text-align:center;letter-spacing:-3.89px;white-space:pre;fill:#fbbf0c;stroke-width:0.116397"
       d="m 53.919243,149.0563 h 0.87031 l 4.044382,14.02734 -5.887392,21.19461 H 42.707601 Z m 11.518809,28.9762 h -8.549517 l 2.150179,-7.88398 h 4.095577 L 57.093314,149.0563 h 9.368633 l 11.211642,35.22195 H 67.229868 Z m 15.146983,-28.9762 h 10.238942 v 35.22195 H 80.585035 Z m 12.38912,26.97961 h 10.955685 v 8.24234 H 92.974155 Z M 115.7492,149.0563 h 0.87031 l 4.04438,14.02734 -5.88738,21.19461 h -10.23897 z m 11.51881,28.9762 h -8.54952 l 2.15018,-7.88398 h 4.09558 l -6.04098,-21.09222 h 9.36864 l 11.21164,35.22195 h -10.44372 z m 39.41327,-20.88745 q -1.68942,-0.20477 -5.93858,-0.56313 -2.35496,-0.10239 -3.78841,-0.10239 -1.84301,0 -3.48124,0.10239 v -7.93519 h 1.27986 q 4.19797,0 8.7031,0.56315 1.43346,0.20477 3.22527,0.56314 z m -8.44712,16.74068 q 0,-1.07509 -0.15359,-1.53584 -0.15358,-0.51195 -0.51194,-0.66554 -0.35837,-0.20477 -1.22867,-0.30716 l -6.29696,-0.76792 q -5.58022,-0.61434 -7.52562,-3.63483 -0.87031,-1.27986 -1.17748,-3.12287 -0.30716,-1.84302 -0.30716,-4.50514 0,-5.68261 2.9181,-8.19115 2.35495,-2.04779 7.37203,-2.40615 v 10.29014 q 0,0.66553 0.0512,1.12627 0.0512,0.46076 0.20478,0.71674 0.15358,0.30716 0.51194,0.46074 0.35837,0.10239 1.07509,0.15359 l 7.06487,0.87031 q 2.20138,0.30717 3.58363,0.76792 1.38226,0.46075 2.35496,1.43345 2.30376,2.40615 2.30376,8.54952 0,6.50172 -2.86691,9.11266 -1.27986,1.17747 -3.12288,1.74062 -1.79181,0.51194 -4.24915,0.66553 z m -2.71332,10.80208 q -5.11947,0 -9.52222,-0.46075 -2.61093,-0.25597 -3.94199,-0.51195 v -7.47442 q 3.02048,0.25597 6.91128,0.51194 2.45735,0.10239 3.48125,0.10239 2.76451,0 3.63482,-0.15358 v 7.98637 z"
       id="text8"
       aria-label="ALAS" />
  </g>
</svg>
