<?xml version="1.0" encoding="UTF-8" standalone="no"?>
<!-- Created with Inkscape (http://www.inkscape.org/) -->

<svg
   width="206.12831mm"
   height="204.24982mm"
   viewBox="0 0 206.12831 204.24982"
   version="1.1"
   id="svg1"
   xmlns="http://www.w3.org/2000/svg"
   xmlns:svg="http://www.w3.org/2000/svg">
  <defs
     id="defs1">
    <rect
       x="3076"
       y="160"
       width="1848"
       height="176"
       id="rect8" />
    <rect
       x="3076"
       y="160"
       width="1528"
       height="356"
       id="rect9" />
  </defs>
  <g
     id="layer1"
     transform="translate(-2.1678788,-19.526418)">
    <path
       id="Path 1-0-7-5-6-5-4"
       class="s1"
       d="m 27.84254,94.120258 c -0.167112,0.0091 -0.34339,0.0265 -0.48828,0.0502 -0.289781,0.04875 -0.571658,0.06475 -0.625663,0.03571 -0.05399,-0.02768 -0.325382,0.437214 -0.601992,1.035215 -0.276607,0.598001 -1.127455,2.035044 -1.890104,3.194167 -0.761331,1.159121 -1.950852,3.05587 -2.641057,4.21499 -0.690203,1.15912 -1.418486,2.43416 -1.618698,2.83194 -0.200211,0.39779 -0.565084,1.28689 -0.811397,1.97578 -0.246314,0.68888 -0.568958,1.72551 -0.716482,2.30507 -0.148842,0.57956 -0.30315,1.64647 -0.342665,2.37094 -0.04085,0.73234 -0.0023,1.93098 0.08849,2.70021 0.08957,0.76001 0.276372,1.82694 0.415993,2.37093 0.139622,0.54268 0.51374,1.52135 0.8325,2.17336 0.31744,0.65199 0.984027,1.74794 1.477971,2.4355 0.49526,0.68758 1.404103,1.77677 2.020544,2.41955 0.616441,0.6441 1.50554,1.45942 1.975774,1.81242 0.470235,0.353 1.301377,0.87349 1.844056,1.15537 0.54268,0.28055 1.343526,0.6137 1.778196,0.73884 0.434671,0.12644 1.206448,0.32524 1.716197,0.44378 0.601952,0.13963 1.085359,0.34794 1.383041,0.59556 0.251583,0.21076 0.634975,0.62438 0.852311,0.92074 0.388568,0.52951 0.393838,0.56236 0.329294,1.79262 -0.03556,0.68888 -0.06461,2.14169 -0.06328,3.22837 0,1.56612 0.0513,2.12594 0.243626,2.70023 0.133035,0.3991 0.55722,1.37646 0.941838,2.17334 0.540045,1.11698 0.940469,1.72156 1.745267,2.63437 0.574293,0.65201 1.680714,1.74922 2.459168,2.43678 0.778455,0.68758 1.662336,1.41465 1.962654,1.61356 0.301635,0.19889 0.991865,0.50705 1.535861,0.68355 0.54268,0.17782 1.995531,0.58874 3.227097,0.91276 1.231567,0.32271 3.098014,0.76669 4.149126,0.98404 1.051112,0.21733 2.680467,0.52551 3.622252,0.68227 0.941787,0.15805 2.245796,0.43087 2.897801,0.60738 0.652007,0.17651 2.044269,0.55191 3.09538,0.83379 1.051112,0.28188 2.175987,0.60979 2.502648,0.72702 0.326661,0.11723 0.829824,0.35433 1.119603,0.52686 0.289782,0.17256 1.17888,0.9471 1.975775,1.72161 0.796896,0.7745 1.892793,1.78736 2.436788,2.25233 0.854852,0.73103 1.059015,0.84431 1.51476,0.84563 0.289781,0.002 0.597897,-0.0738 0.68483,-0.16877 0.08694,-0.0935 0.197723,-0.34762 0.246457,-0.56495 0.05664,-0.25554 -0.0091,-0.69679 -0.189607,-1.25134 -0.151476,-0.47153 -0.667996,-1.53714 -1.144817,-2.37092 -0.476819,-0.83377 -0.966771,-1.62403 -1.087952,-1.75839 -0.122498,-0.13434 -0.897015,-0.6981 -1.722889,-1.25132 -0.82719,-0.55453 -1.894108,-1.35401 -2.370929,-1.77947 -0.478136,-0.42414 -1.314495,-1.12763 -1.857174,-1.56493 -0.543997,-0.436 -1.314548,-0.95747 -1.712338,-1.15767 -0.397789,-0.20153 -1.643843,-0.58243 -2.766083,-0.84718 -1.12224,-0.26344 -2.456546,-0.63085 -2.963661,-0.81525 -0.507116,-0.18441 -1.144632,-0.41745 -1.415971,-0.52019 -0.271341,-0.10146 -1.072187,-0.45581 -1.778196,-0.78774 -0.706011,-0.33192 -1.699166,-0.75337 -2.206282,-0.93515 -0.507116,-0.18308 -1.452984,-0.60854 -2.102355,-0.94442 -0.860121,-0.44783 -1.449994,-0.8786 -2.182348,-1.60043 -0.782406,-0.76923 -1.126296,-1.23551 -1.55438,-2.10748 -0.302953,-0.61513 -0.68238,-1.5938 -0.841759,-2.17335 -0.264754,-0.95892 -0.291137,-1.36066 -0.295088,-4.47842 -0.0039,-2.19839 0.06599,-4.06219 0.192439,-5.20287 0.109327,-0.97735 0.196352,-2.84512 0.193719,-4.14913 -0.0012,-1.41466 -0.0752,-2.76871 -0.18189,-3.35882 -0.09878,-0.54401 -0.321353,-1.4028 -0.495222,-1.90992 -0.172551,-0.5071 -0.622975,-1.48446 -1.001005,-2.17335 -0.545315,-0.99579 -0.95505,-1.52004 -2.004844,-2.5685 -0.724452,-0.72446 -1.645135,-1.50828 -2.042924,-1.74141 -0.39779,-0.23446 -0.902272,-0.46347 -1.119606,-0.51221 -0.302952,-0.0658 -0.464965,-0.0212 -0.691521,0.19475 -0.16333,0.15412 -0.295141,0.41371 -0.292507,0.57703 0.0012,0.16334 0.23841,0.81534 0.526873,1.44891 0.287146,0.63356 0.612517,1.49368 0.72316,1.9099 0.110643,0.41624 0.237213,1.26187 0.280678,1.87699 0.04611,0.63884 0.01564,1.51477 -0.06998,2.04164 -0.09747,0.59801 -0.289636,1.14199 -0.543852,1.5477 -0.217335,0.34377 -0.641456,0.78898 -0.944407,0.98787 -0.467599,0.30691 -0.72445,0.37017 -1.679408,0.41626 -1.084041,0.0527 -1.171015,0.0357 -2.182611,-0.44121 -0.761331,-0.35826 -1.263178,-0.70998 -1.811126,-1.27242 -0.511066,-0.52424 -0.925873,-1.13019 -1.277561,-1.86387 -0.327979,-0.68757 -0.623239,-1.5951 -0.803693,-2.46971 -0.235775,-1.14859 -0.272445,-1.67414 -0.217126,-3.09538 0.04084,-1.04585 0.180284,-2.22471 0.358105,-3.02952 0.159378,-0.72446 0.662634,-2.35513 1.115746,-3.62226 0.453109,-1.26844 1.008883,-2.95707 1.232803,-3.75397 0.223921,-0.7969 0.503322,-1.894109 0.619233,-2.43679 0.115913,-0.543993 0.221195,-1.438336 0.234368,-1.9876 0.0158,-0.729724 -0.03163,-1.059047 -0.1752,-1.217102 -0.108009,-0.119865 -0.375396,-0.2331 -0.592732,-0.254181 -0.108667,-0.0098 -0.266623,-0.0093 -0.433747,0 z m 163.81373,24.547212 c -0.34606,-0.009 -0.50709,0.0316 -0.5881,0.13427 -0.0803,0.10012 -0.18707,0.30042 -0.23976,0.44532 -0.0514,0.14489 -0.14871,1.06428 -0.21456,2.04164 -0.0658,0.97735 -0.23321,2.22208 -0.37022,2.76608 -0.1383,0.54268 -0.44387,1.3725 -0.68096,1.84406 -0.23577,0.47155 -0.67966,1.18151 -0.98788,1.58062 -0.3069,0.39911 -0.9064,1.05384 -1.33185,1.45558 -0.42545,0.40306 -1.04047,0.91525 -1.36581,1.13917 -0.32535,0.22392 -1.09721,0.65857 -1.71233,0.96679 -0.61645,0.30821 -1.50555,0.70488 -1.97579,0.88138 -0.47155,0.1765 -1.44889,0.46236 -2.17334,0.63492 -0.84959,0.20285 -2.06666,0.35951 -3.42468,0.44249 -1.29216,0.0791 -2.36304,0.21475 -2.76609,0.34911 -0.36221,0.12119 -0.86671,0.32526 -1.1196,0.45303 -0.25422,0.12777 -0.78636,0.49667 -1.18547,0.81939 -0.39911,0.32138 -0.99183,0.99443 -1.31717,1.49495 -0.32536,0.50053 -0.83257,1.50289 -1.12631,2.22867 -0.29242,0.72576 -0.77309,1.67408 -1.06814,2.10877 -0.29505,0.43467 -0.79676,1.02991 -1.11421,1.32232 -0.31744,0.29242 -0.96297,0.79313 -1.4332,1.1119 -0.47155,0.32007 -1.44891,0.864 -2.17335,1.21043 -0.74817,0.35694 -1.82958,0.74683 -2.50265,0.89962 -0.80612,0.18441 -2.04954,0.31206 -3.88569,0.40031 -1.48579,0.0711 -3.05586,0.19366 -3.49053,0.27269 -0.43468,0.0791 -1.17626,0.26212 -1.64649,0.40701 -0.47154,0.14488 -1.98236,0.82464 -3.35882,1.5109 -1.37645,0.68625 -3.0361,1.45806 -3.6881,1.7149 -0.65201,0.25685 -1.24201,0.51893 -1.31048,0.58347 -0.0685,0.0633 -0.23183,0.11602 -0.36224,0.11602 -0.13039,0 -0.2372,0.0592 -0.2372,0.13172 0,0.0724 -0.11855,0.13171 -0.26344,0.13171 -0.17123,0 -0.47673,0.28978 -0.87056,0.82325 -0.33326,0.45311 -0.80094,1.20785 -1.03934,1.6794 -0.2371,0.47155 -0.52697,1.16702 -0.64418,1.54769 -0.11592,0.38066 -0.16721,0.78757 -0.11322,0.9048 0.0751,0.16201 0.21075,0.19509 0.55982,0.13712 0.2529,-0.0421 1.26054,-0.33723 2.23921,-0.6573 0.97735,-0.31877 2.51844,-0.94182 3.42467,-1.38176 0.9049,-0.44126 2.14965,-0.93121 2.76608,-1.08796 0.61512,-0.15805 1.77162,-0.32281 2.5685,-0.36892 0.7969,-0.0447 2.48553,-0.0342 3.75399,0.0225 1.26712,0.0579 3.72761,0.0832 5.4663,0.0555 2.9439,-0.0447 3.25212,-0.0724 4.47841,-0.40571 0.72446,-0.19627 2.02847,-0.59823 2.89781,-0.89063 0.86933,-0.29374 1.93626,-0.70061 2.37093,-0.90609 0.43468,-0.20679 1.08544,-0.60062 1.44504,-0.87854 0.36091,-0.2766 1.22093,-1.1842 1.91378,-2.01797 0.69152,-0.83379 1.50039,-1.84011 1.79543,-2.23921 0.29505,-0.39911 0.71374,-1.08009 0.92976,-1.51478 0.21602,-0.43465 0.53484,-1.14468 0.71003,-1.57802 0.17518,-0.43204 0.59139,-1.08404 0.92332,-1.44891 0.37803,-0.41359 0.897,-0.79562 1.38304,-1.01953 0.42808,-0.19758 1.48975,-0.50694 2.3591,-0.68741 0.86934,-0.18044 2.11406,-0.53883 2.76607,-0.79699 0.65201,-0.25817 1.86121,-0.80864 2.6884,-1.22354 1.00193,-0.50229 1.7703,-0.99852 2.30507,-1.48852 0.44126,-0.40437 1.18682,-1.26448 1.65574,-1.90992 0.47023,-0.64672 1.21297,-1.8862 1.6529,-2.75553 0.43862,-0.86934 0.95512,-2.05481 1.14611,-2.63437 0.19099,-0.57957 0.40957,-1.55823 0.48596,-2.17335 0.0777,-0.61513 0.10667,-1.44495 0.0671,-1.84405 -0.0408,-0.3978 -0.16584,-1.13937 -0.27913,-1.64649 -0.11328,-0.50711 -0.39138,-1.38296 -0.61794,-1.9467 -0.22524,-0.56243 -0.50043,-1.05642 -0.60844,-1.09594 -0.10932,-0.0396 -0.5835,-0.10554 -1.05373,-0.14638 -0.16037,-0.0135 -0.29627,-0.022 -0.41163,-0.0249 z"
       style="fill:#d82624;fill-opacity:1;stroke-width:0.131718" />
    <path
       id="Path 2-6-5-0-8-9-7"
       class="s2"
       d="m 47.45523,19.526418 c -0.09707,0.0045 -0.434907,0.39309 -0.775135,0.895266 -0.358273,0.526873 -0.904995,1.373727 -1.214535,1.880858 -0.310854,0.507112 -0.904772,1.604313 -1.322319,2.436789 -0.41623,0.833778 -0.915666,1.900682 -1.110609,2.370924 -0.193627,0.471553 -0.579561,1.479204 -0.856168,2.239213 -0.276609,0.760017 -0.653204,1.945475 -0.838928,2.634365 -0.184404,0.68889 -0.432022,1.725506 -0.549253,2.305067 -0.11591,0.579553 -0.296497,1.854597 -0.400553,2.831942 -0.102741,0.978657 -0.189583,2.519774 -0.190899,3.42468 -0.0012,0.906217 0.08698,2.490779 0.196298,3.523462 0.109327,1.032675 0.323882,2.455219 0.477993,3.161238 0.152794,0.70601 0.414926,1.72946 0.58089,2.272141 0.165965,0.543992 0.578402,1.670178 0.9156,2.502644 0.338517,0.833778 0.913967,2.077196 1.280144,2.766086 0.367494,0.68889 1.024964,1.78477 1.46227,2.436789 0.437305,0.651992 1.357897,1.927036 2.046783,2.831941 0.690205,0.906227 1.612299,2.120669 2.049603,2.700222 0.438621,0.579551 1.231393,1.734721 1.763536,2.568508 0.530825,0.833778 1.312138,2.226036 1.736257,3.095383 0.422817,0.869337 0.916746,1.995532 1.098517,2.502645 0.180454,0.507113 0.483288,1.514763 0.674279,2.239212 0.189675,0.724449 0.431984,2.058756 0.539993,2.963662 0.106691,0.906217 0.192466,2.388044 0.191149,3.29295 -0.0012,0.937833 -0.08565,2.042947 -0.196287,2.5685 -0.106691,0.507122 -0.368837,1.277675 -0.580902,1.71234 -0.212067,0.434672 -0.62698,1.072186 -0.922029,1.41597 -0.45838,0.533466 -0.568983,0.600643 -0.74812,0.461018 -0.115913,-0.09089 -0.545315,-0.745404 -0.954957,-1.454054 -0.409644,-0.708641 -1.159174,-1.936378 -1.666276,-2.728003 -0.507116,-0.790305 -1.276455,-1.840234 -1.708492,-2.332859 -0.432035,-0.491313 -1.172293,-1.239421 -1.646477,-1.659598 -0.472869,-0.421496 -1.156396,-0.962685 -1.51862,-1.203734 -0.362226,-0.239719 -1.073504,-0.649424 -1.58062,-0.908904 -0.507115,-0.258168 -1.455486,-0.652082 -2.107492,-0.87469 -0.652006,-0.222601 -1.808491,-0.545204 -2.568506,-0.717758 -0.760014,-0.172551 -2.065342,-0.380836 -2.897801,-0.46514 -0.832461,-0.08293 -2.197062,-0.133005 -3.029521,-0.110613 l -1.51476,0.04088 c 1.307963,0.713914 2.227383,1.372453 2.885973,1.923029 0.658592,0.550585 1.408122,1.231571 1.66629,1.514755 0.258168,0.28188 0.844195,1.01824 1.29994,1.633361 0.457063,0.61513 1.060267,1.579299 1.342143,2.14042 0.28056,0.561121 0.685001,1.539787 0.897067,2.173358 0.212066,0.633559 0.476953,1.597738 0.587597,2.140419 0.110643,0.543993 0.268691,1.521347 0.351674,2.173347 0.08298,0.65201 0.196221,3.171775 0.254176,5.598029 0.07771,3.353551 0.168521,4.855139 0.376635,6.256621 0.150159,1.014225 0.341244,2.199691 0.424226,2.634361 0.08298,0.43467 0.32657,1.41333 0.541269,2.17335 0.214701,0.76002 0.594143,1.87171 0.841772,2.46972 0.248949,0.598 0.717812,1.62014 1.044474,2.27213 0.32666,0.65202 0.985147,1.76372 1.464601,2.46973 0.478137,0.706 1.289536,1.78873 1.799285,2.40385 0.511066,0.61512 1.719015,1.90465 2.685827,2.86488 0.965495,0.96022 1.755818,1.77557 1.755818,1.81113 0,0.0355 -0.104058,0.0671 -0.230507,0.0685 -0.12645,0.003 -0.630931,-0.14621 -1.119605,-0.3293 -0.488674,-0.18177 -1.377787,-0.57698 -1.975788,-0.87597 -0.598,-0.299 -1.664878,-0.93652 -2.372205,-1.41597 -0.707328,-0.47946 -1.310531,-0.84157 -1.342144,-0.80601 -0.0303,0.0355 0.09354,0.51108 0.273987,1.05376 0.181772,0.54398 0.658473,1.63988 1.058897,2.43678 0.400423,0.79689 1.116971,2.04163 1.591156,2.76608 0.474186,0.72445 1.190747,1.7321 1.59117,2.23921 0.400424,0.50711 1.296055,1.50674 1.988893,2.22196 0.692838,0.71524 1.823034,1.77567 2.511919,2.35655 0.688887,0.58218 1.991582,1.54376 2.897803,2.13913 0.904904,0.59535 2.565871,1.61102 3.688112,2.25645 1.293472,0.74289 3.296907,1.71211 5.466308,2.64336 1.88357,0.80875 4.135953,1.80584 5.005293,2.21813 1.280302,0.60588 1.530567,0.76796 1.317183,0.85358 -0.14489,0.0579 -1.448901,0.1778 -2.897801,0.26472 -1.448901,0.0882 -2.681864,0.19755 -2.741137,0.24234 -0.05795,0.0461 0.445207,0.6823 1.119606,1.41597 0.674397,0.73236 1.730843,1.80201 2.34598,2.37762 0.615124,0.57561 1.97841,1.77955 3.02952,2.67656 1.051112,0.89699 2.739741,2.25227 3.753971,3.01229 1.01423,0.7587 2.348536,1.70453 2.96366,2.10364 0.615125,0.39778 1.920448,1.14733 2.897803,1.66499 0.977345,0.51765 2.503965,1.27897 3.391742,1.69125 0.887786,0.41228 2.220764,0.97998 2.963653,1.26186 0.742889,0.28188 2.179932,0.77958 3.194156,1.10623 1.014234,0.32667 2.555319,0.74434 3.424661,0.92744 0.869338,0.1844 2.203636,0.42673 2.963633,0.5387 0.760041,0.11327 1.501601,0.20279 1.646491,0.20016 0.14489,-0.004 -0.0632,-0.11197 -0.461012,-0.24106 -0.397781,-0.12777 -1.228942,-0.45694 -1.844056,-0.72961 -0.615125,-0.27266 -1.504223,-0.71928 -1.975769,-0.99458 -0.471537,-0.27397 -1.448888,-0.93898 -2.173333,-1.47771 -0.724446,-0.53872 -1.736035,-1.39108 -2.249736,-1.89292 -0.512384,-0.50185 -1.94296,-2.12722 -3.178482,-3.613 -1.234195,-1.48578 -3.094009,-3.61829 -4.129315,-4.74186 -1.036618,-1.12355 -2.798814,-3.10855 -3.915783,-4.41256 -1.118288,-1.30401 -2.929453,-3.52088 -4.026666,-4.92631 -1.097213,-1.40544 -2.260365,-2.78845 -2.587026,-3.07428 -0.354336,-0.31218 -1.703117,-1.06828 -3.358816,-1.88625 -1.521345,-0.75211 -3.240269,-1.67946 -3.81983,-2.06145 -0.579573,-0.38198 -1.430381,-1.05101 -1.891395,-1.48569 -0.461013,-0.43597 -1.121041,-1.17621 -1.466144,-1.64776 -0.3451,-0.47155 -0.808788,-1.18284 -1.030075,-1.58062 -0.221288,-0.39779 -0.616467,-1.37646 -0.87727,-2.17335 -0.26212,-0.79688 -0.604481,-1.65702 -0.761227,-1.90992 -0.156756,-0.2529 -1.239415,-1.43836 -2.406439,-2.63437 -1.165707,-1.19599 -2.449973,-2.61723 -2.853031,-3.16124 -0.404374,-0.54266 -1.020843,-1.49235 -1.371213,-2.10748 -0.350371,-0.61513 -0.837794,-1.5938 -1.084107,-2.17334 -0.246313,-0.57957 -0.653231,-1.64649 -0.903495,-2.37094 -0.251583,-0.72446 -0.601978,-1.90991 -0.778482,-2.63437 -0.175185,-0.72445 -0.436105,-1.99816 -0.577044,-2.83194 -0.140938,-0.833779 -0.329283,-2.522406 -0.417534,-3.753967 -0.08957,-1.23157 -0.121049,-2.343269 -0.071,-2.469717 0.0685,-0.177825 0.296433,0.07769 0.995857,1.119602 0.497894,0.742889 1.22498,1.658449 1.613548,2.036481 0.388569,0.376722 1.211688,0.985187 1.826827,1.352684 0.615124,0.367497 1.178877,0.666379 1.251323,0.663739 0.08165,-9.05e-4 0.135709,-0.724386 0.140978,-1.879548 0.0092,-1.642531 0.054,-2.020563 0.362226,-3.029525 0.194942,-0.633562 0.623079,-1.700485 0.952377,-2.370927 0.329294,-0.67045 1.062858,-1.841419 1.629248,-2.601437 0.566388,-0.761329 1.762286,-2.094325 2.660603,-2.963662 0.89832,-0.869338 2.165528,-1.939 2.817534,-2.377616 0.650687,-0.437305 1.658359,-0.993082 2.237932,-1.23281 0.579548,-0.241039 1.365879,-0.505666 1.746544,-0.58733 0.380666,-0.08166 0.692813,-0.208221 0.692813,-0.280669 0.0012,-0.07244 -0.11179,-0.458377 -0.248777,-0.856161 C 68.526909,80.716993 68.219794,79.975426 67.982702,79.468303 67.744291,78.96119 67.09633,77.745428 66.540492,76.768082 65.984629,75.790737 65.29042,74.456431 64.995371,73.80443 64.701639,73.15242 64.309224,72.144779 64.123502,71.565218 63.937779,70.985656 63.690188,70.00699 63.572959,69.39186 c -0.117217,-0.61512 -0.246525,-1.830884 -0.287357,-2.700221 -0.04215,-0.900954 -0.0092,-2.062707 0.07641,-2.700221 0.08166,-0.615129 0.395352,-2.127251 0.694353,-3.358822 0.300317,-1.231563 0.760014,-2.738423 1.020816,-3.348279 0.26212,-0.611169 0.534683,-1.130075 0.607129,-1.155099 0.07244,-0.02505 0.245049,0.385891 0.382036,0.912765 0.138304,0.525562 0.454415,1.548985 0.703363,2.273433 0.248947,0.72445 0.749436,1.909917 1.110345,2.634366 0.362224,0.72445 0.943167,1.701804 1.292221,2.173349 0.349054,0.471553 1.278919,1.479202 2.066594,2.239211 0.788993,0.760019 1.846598,1.658387 2.352396,1.995586 0.504482,0.337202 1.392355,0.850916 1.971929,1.140693 0.579547,0.291096 1.380406,0.649214 1.778195,0.796735 0.39779,0.147528 1.998153,0.632275 3.556398,1.074853 1.558208,0.443888 3.336404,1.020837 3.951543,1.282957 0.615111,0.260801 1.624091,0.770572 2.239211,1.130156 0.615113,0.360913 1.563482,0.987927 2.107475,1.392304 0.54268,0.405688 1.758447,1.50684 2.700222,2.448626 0.94179,0.941786 2.009959,2.096957 2.373503,2.568501 0.364852,0.471553 0.986567,1.0815 1.38303,1.356798 0.571663,0.396464 0.885198,0.516156 1.512174,0.578069 0.547939,0.05398 0.993147,0.0132 1.448888,-0.131721 0.374079,-0.118544 0.943115,-0.458249 1.317196,-0.784906 0.362211,-0.316129 0.790421,-0.837838 0.949801,-1.159231 0.1607,-0.321393 0.3833,-1.012859 0.49394,-1.538412 0.11196,-0.525562 0.20144,-1.355378 0.20144,-1.84406 -0.002,-0.488664 -0.0922,-1.273705 -0.20144,-1.745258 -0.10933,-0.471554 -0.52172,-1.80454 -0.91688,-2.963662 -0.39515,-1.159123 -0.808838,-2.536893 -0.918158,-3.062445 -0.110649,-0.525562 -0.201473,-1.41466 -0.200156,-1.975782 0,-0.572969 0.140898,-1.684675 0.320031,-2.535573 0.176507,-0.833777 0.462323,-1.929676 0.637503,-2.436788 0.17386,-0.507112 0.54801,-1.382952 0.83121,-1.946705 0.28098,-0.559358 0.54133,-1.017544 0.58012,-1.023396 0,0 0,0 0.002,0 0,8e-6 0,0 0,0 0.0375,0.0091 0.21026,0.49721 0.38538,1.090535 0.17519,0.599314 0.56111,1.563446 0.85747,2.142998 0.29504,0.579562 0.89309,1.522659 1.32643,2.096947 0.43468,0.57429 1.14466,1.367315 1.57934,1.763789 0.43467,0.395152 1.23419,1.011422 1.77818,1.368374 0.54269,0.356961 1.28425,0.787873 1.64648,0.957793 0.36223,0.169921 1.57668,0.752114 2.70023,1.294795 1.42519,0.688881 2.25642,1.18015 2.75168,1.626678 l 0.70849,0.63878 c 1.96261,-0.433353 3.30357,-0.634828 4.24535,-0.727036 1.04453,-0.102736 2.38015,-0.136966 3.42467,-0.08826 0.94179,0.04476 2.45391,0.206801 3.35882,0.362234 0.90491,0.155423 2.32747,0.478001 3.16123,0.719049 0.83379,0.24104 1.95999,0.623206 2.50265,0.848448 0.54401,0.226552 1.04465,0.422563 1.11446,0.438372 0.0698,0.01582 0.18038,-0.416099 0.24492,-0.9601 0.0764,-0.640145 0.067,-1.381722 -0.0265,-2.107492 -0.0777,-0.615121 -0.28435,-1.593786 -0.45691,-2.173348 -0.17254,-0.579561 -0.53217,-1.527931 -0.79956,-2.107492 -0.26739,-0.579562 -0.86138,-1.616188 -1.31976,-2.305068 -0.45972,-0.68889 -1.33572,-1.784788 -1.94953,-2.436789 -0.61381,-0.65201 -1.62944,-1.629355 -2.25775,-2.173348 -0.62829,-0.542681 -1.14045,-1.032674 -1.13915,-1.086683 0.003,-0.05398 0.67037,0.08429 1.48569,0.306905 0.81534,0.22261 2.72656,0.75858 4.24791,1.190612 1.52136,0.433362 3.74344,1.114565 4.93944,1.51631 1.19601,0.401736 2.85434,0.998435 3.68812,1.327733 0.83377,0.327976 2.06271,0.855925 2.73315,1.173365 l 1.2184,0.577047 c -0.86935,1.377771 -1.27892,2.25238 -1.47387,2.831942 -0.19361,0.579561 -0.42299,1.587211 -0.5086,2.239212 -0.0948,0.717866 -0.12097,1.626724 -0.0643,2.305068 0.0514,0.61513 0.23168,1.653068 0.4016,2.305069 0.1699,0.652009 0.44247,1.541107 0.60712,1.975781 l 0.2992,0.790296 c 0.24236,-2.143043 0.44516,-3.270558 0.60585,-3.885678 0.1607,-0.61513 0.54789,-1.653069 0.85875,-2.305069 0.32139,-0.671761 0.90225,-1.584571 1.34085,-2.107492 0.42546,-0.507121 1.27633,-1.326457 1.88882,-1.820402 0.61381,-0.493946 2.06411,-1.525308 3.22323,-2.293231 1.15913,-0.767913 2.75951,-1.883608 3.5564,-2.478977 0.7969,-0.59536 1.80576,-1.459424 2.24307,-1.921754 0.4373,-0.461017 0.92202,-1.015464 1.07612,-1.232791 0.15544,-0.217338 0.31224,-0.364857 0.34911,-0.329298 0.0369,0.03554 0.13045,0.450463 0.20684,0.922035 0.0776,0.471544 0.13973,1.508162 0.13841,2.305069 0,0.796879 -0.0858,2.041628 -0.18857,2.766076 -0.10274,0.724459 -0.31611,1.909916 -0.47285,2.634365 -0.15675,0.724458 -0.50839,1.940213 -0.78105,2.70023 -0.27266,0.760009 -0.77586,2.006068 -1.11831,2.766086 -0.34248,0.760009 -0.89818,1.903223 -1.23539,2.539416 -0.3372,0.634881 -0.58355,1.185665 -0.54667,1.221226 0.0369,0.03554 0.57034,-0.117224 1.18545,-0.339834 0.61513,-0.221279 1.47525,-0.621749 1.90992,-0.887813 0.43467,-0.266073 1.27899,-0.944572 1.87699,-1.508334 1.02213,-0.964178 1.10381,-1.014216 1.38304,-0.845616 0.16333,0.09745 0.91411,0.765282 1.66885,1.481828 0.75476,0.716544 1.79396,1.80727 2.30766,2.42239 0.5137,0.615122 1.3593,1.712331 1.87826,2.43678 0.70602,0.985259 1.26995,2.029781 2.24334,4.149129 0.71391,1.558226 1.52648,3.187581 1.80573,3.622255 0.27922,0.434665 0.84691,1.205218 1.26315,1.712331 0.41623,0.507121 1.22251,1.371186 1.79285,1.920451 0.56902,0.550586 1.48044,1.325074 2.0231,1.724187 0.54401,0.397786 1.34355,0.949791 1.77821,1.22508 0.43468,0.276608 1.47129,0.842803 2.30507,1.259036 0.83379,0.414904 2.10749,0.976188 2.83195,1.244892 0.72444,0.268705 1.42246,0.586037 1.55155,0.707222 0.20548,0.189671 0.23446,0.462382 0.2305,2.160234 -0.003,1.068234 0.0555,2.239204 0.12786,2.601444 0.0724,0.36222 0.19099,0.65857 0.26343,0.65857 0.0724,0 0.22529,-0.22259 0.33856,-0.49394 0.1146,-0.27133 0.46495,-1.0274 0.77977,-1.6794 0.3148,-0.65201 0.85358,-1.512122 1.19473,-1.909915 0.34247,-0.397794 0.83642,-0.886567 1.09721,-1.082832 0.26213,-0.197576 0.69026,-0.405688 0.95368,-0.461016 0.41097,-0.08826 0.48986,-0.06575 0.56493,0.160805 0.0487,0.144887 0.0213,0.856169 -0.0591,1.580619 -0.0816,0.724448 -0.29123,1.998169 -0.46641,2.831939 -0.17518,0.83378 -0.52687,2.34459 -0.77976,3.35881 -0.25422,1.01423 -0.63361,2.19971 -0.84305,2.63437 -0.20943,0.43467 -0.5361,0.95365 -0.72445,1.15254 -0.18967,0.1989 -0.47674,0.44774 -0.64008,0.55311 -0.16332,0.10537 -0.652,0.29114 -1.08666,0.41496 -0.59274,0.16729 -1.56478,0.24378 -3.87644,0.30305 l -3.0874,0.079 c -0.33061,1.32772 -0.51906,1.89017 -0.63234,2.10751 -0.11329,0.21733 -0.3911,0.55846 -0.61899,0.75737 l -0.41238,0.36222 c 0.66385,0.27661 1.4489,0.58091 2.17335,0.85487 1.06823,0.40306 1.27887,0.52565 1.11291,0.6442 -0.11328,0.0816 -1.26845,0.43575 -2.5685,0.78877 -1.30007,0.353 -2.77917,0.78915 -3.28628,0.96961 -0.50711,0.18046 -1.75185,0.70468 -2.76607,1.16438 -1.01424,0.45969 -2.58432,1.22749 -3.49054,1.70693 -0.9049,0.47945 -2.23921,1.12895 -2.96366,1.44375 -0.72446,0.31481 -1.67283,0.68743 -2.10749,0.8297 -0.43468,0.14092 -1.2645,0.3688 -1.84406,0.50446 -0.85881,0.20153 -1.56614,0.24782 -3.81983,0.24518 -2.39595,-0.003 -2.95972,-0.0449 -4.21498,-0.3123 -0.7969,-0.17124 -2.07061,-0.51359 -2.83195,-0.76254 -0.76133,-0.24895 -2.18388,-0.8392 -3.16124,-1.31076 -1.01686,-0.49131 -2.7371,-1.49627 -4.01741,-2.35112 -1.23156,-0.82059 -2.69891,-1.88353 -3.26002,-2.36166 -0.56112,-0.47682 -1.06561,-0.86929 -1.11961,-0.86929 -0.054,-0.002 -0.0553,0.37012 -0.002,0.82324 0.054,0.45312 0.28062,1.47654 0.50323,2.27343 0.2226,0.79689 0.62678,1.92309 0.89681,2.50265 0.27132,0.57955 0.75229,1.43836 1.06842,1.90991 0.31612,0.47155 0.84687,1.17631 1.17747,1.56621 0.33193,0.39119 1.01821,1.03398 1.52531,1.42782 0.50712,0.39384 1.31844,0.90349 1.80316,1.134 0.48605,0.22919 0.88515,0.46104 0.88911,0.51503 0.004,0.054 -0.30289,0.19506 -0.68357,0.31363 -0.38066,0.11722 -1.31322,0.47262 -2.07456,0.78874 -0.76133,0.31612 -2.03505,0.93662 -2.83194,1.37918 -0.79689,0.44258 -1.86381,1.13686 -2.37092,1.54256 -0.50713,0.40569 -1.32893,1.12598 -1.82682,1.60016 -0.49657,0.47419 -1.24493,1.27777 -1.66115,1.7849 -0.41491,0.50711 -1.02065,1.33694 -1.34598,1.84405 -0.32403,0.50712 -0.82202,1.35272 -1.10521,1.87828 -0.28319,0.52687 -0.57432,0.93779 -0.64676,0.91276 -0.0724,-0.0237 -0.32657,-0.72178 -0.56366,-1.54898 -0.23842,-0.82851 -0.55451,-2.1575 -0.70336,-2.9544 -0.14884,-0.79689 -0.30187,-2.27873 -0.34138,-3.29295 -0.0382,-1.01424 -0.004,-2.58432 0.0765,-3.49053 0.0803,-0.90492 0.13318,-1.66098 0.11472,-1.67942 -0.017,-0.0185 -0.81145,2.26293 -1.76377,5.07115 -0.95364,2.80693 -2.12862,6.05245 -2.6107,7.21158 -0.48209,1.15913 -1.44226,3.23368 -2.13246,4.61013 -0.69151,1.37646 -1.58583,3.06641 -1.98888,3.75398 -0.40307,0.68756 -1.0881,1.78478 -1.52145,2.43679 -0.43335,0.65201 -1.21693,1.71893 -1.73986,2.37093 -0.52424,0.652 -1.3448,1.58589 -1.82424,2.07456 -0.48078,0.48867 -1.1553,1.11168 -1.49909,1.38433 -0.34376,0.27134 -1.1894,0.82984 -1.87697,1.23949 -0.68756,0.40964 -1.70851,0.94182 -2.267,1.18419 -0.55848,0.24235 -1.00237,0.45569 -0.98787,0.47412 0.0158,0.0185 0.50196,-0.0593 1.08151,-0.1739 0.57956,-0.11459 1.88359,-0.41341 2.89781,-0.66632 1.01423,-0.25158 2.55533,-0.69827 3.42467,-0.99199 0.86934,-0.29506 2.2616,-0.83626 3.09539,-1.20375 0.83376,-0.36617 2.0785,-0.96041 2.76607,-1.31999 0.68757,-0.35828 1.81508,-0.97854 2.50265,-1.37765 0.68757,-0.39911 1.63593,-0.99587 2.1075,-1.32516 0.47155,-0.33063 1.68598,-1.26175 2.70022,-2.06787 1.09194,-0.86934 2.38146,-2.05359 3.16124,-2.9045 0.72446,-0.79163 1.59108,-1.76369 1.92432,-2.1628 0.33456,-0.39911 1.26992,-1.70179 2.07867,-2.8978 0.81006,-1.196 1.92949,-2.82406 2.48798,-3.62096 0.55981,-0.79558 1.49115,-1.92577 2.07071,-2.51191 0.57957,-0.58483 1.61751,-1.43442 2.30507,-1.88753 0.68758,-0.45311 1.84406,-1.11038 2.56851,-1.46075 0.72444,-0.35036 1.85064,-0.84159 2.50264,-1.09053 0.65202,-0.25027 1.83747,-0.64416 2.63438,-0.87599 0.79689,-0.23182 1.98235,-0.59523 2.63435,-0.80599 0.65201,-0.21206 2.07456,-0.53615 3.16124,-0.72187 1.08668,-0.18441 2.59749,-0.48879 3.35882,-0.67584 0.76133,-0.18572 1.97578,-0.56115 2.70022,-0.83248 0.72445,-0.27266 1.96919,-0.81261 2.76609,-1.20117 0.7969,-0.38857 2.12988,-1.08006 2.96367,-1.53843 0.83376,-0.45838 1.98894,-1.0591 2.5685,-1.33572 0.57955,-0.27659 1.64648,-0.72577 2.37093,-0.99843 0.72445,-0.27265 2.22076,-0.72559 3.32588,-1.00616 1.10512,-0.28187 2.29059,-0.61642 2.63437,-0.74682 0.34378,-0.12909 0.89305,-0.38868 1.2184,-0.57705 0.32534,-0.18835 0.8483,-0.60075 1.16179,-0.91688 0.31348,-0.31743 0.69534,-0.84155 0.85076,-1.16822 0.16201,-0.34115 0.31107,-0.9827 0.35322,-1.51089 0.0685,-0.88778 0.0829,-0.91937 0.46616,-1.01157 0.21735,-0.0514 0.81006,-0.15791 1.31719,-0.23694 0.53344,-0.0831 1.33825,-0.34246 1.9099,-0.61511 0.73106,-0.34905 1.22882,-0.71793 1.91507,-1.4134 0.58483,-0.59273 1.10385,-1.28298 1.40285,-1.86386 0.2608,-0.50711 0.6245,-1.39621 0.80626,-1.97577 0.18178,-0.57956 0.5177,-1.97314 0.74426,-3.09538 0.22655,-1.12224 0.55444,-2.93073 0.72831,-4.01741 0.17386,-1.086678 0.35422,-2.360392 0.39901,-2.831945 0.0462,-0.471553 0.0146,-1.271082 -0.0671,-1.778195 -0.0831,-0.507112 -0.28058,-1.211856 -0.43864,-1.567497 -0.15806,-0.35432 -0.53869,-0.873298 -0.8469,-1.152538 -0.30823,-0.279241 -0.78241,-0.566378 -1.05375,-0.637506 -0.27134,-0.07244 -0.79032,-0.132969 -1.15254,-0.134288 -0.36881,-0.0027 -1.23683,0.173755 -1.97577,0.400299 -1.14859,0.351688 -1.38832,0.386127 -1.87698,0.266263 -0.30823,-0.07642 -1.52267,-0.529561 -2.70023,-1.00768 -1.17757,-0.478137 -2.49606,-1.049893 -2.93074,-1.269861 -0.43465,-0.219968 -1.14594,-0.637387 -1.58061,-0.927163 -0.43466,-0.289776 -1.1447,-0.831326 -1.57804,-1.200135 -0.43468,-0.370128 -1.04963,-0.939063 -1.36838,-1.26572 -0.31876,-0.326666 -0.93525,-1.036626 -1.36992,-1.580619 -0.53741,-0.67045 -1.10654,-1.643843 -1.77434,-3.029527 -0.54004,-1.122233 -1.25009,-2.575083 -1.57676,-3.227093 -0.32666,-0.65201 -0.96286,-1.7479 -1.41598,-2.436789 -0.4531,-0.68888 -1.09984,-1.606954 -1.43836,-2.041628 -0.3372,-0.434672 -0.61231,-0.835089 -0.61098,-0.889098 0.002,-0.05398 0.478,-0.736304 1.05888,-1.514763 0.58088,-0.778448 1.31592,-1.920451 1.63337,-2.535573 0.31742,-0.615128 0.76386,-1.682043 0.99174,-2.370932 0.22787,-0.688881 0.50445,-1.755813 0.61511,-2.370924 0.10933,-0.61513 0.20035,-1.890174 0.20299,-2.831941 0.002,-1.007651 -0.0817,-2.173357 -0.20427,-2.831942 -0.11327,-0.61513 -0.35041,-1.534523 -0.52559,-2.041637 -0.17388,-0.50713 -0.35297,-1.026081 -0.39644,-1.152539 -0.0447,-0.126447 -0.12505,-0.233017 -0.17906,-0.235648 -0.054,-0.0027 -0.37416,0.219968 -0.71004,0.493935 -0.33719,0.273978 -1.52266,1.239376 -2.63436,2.144282 -1.11302,0.903595 -2.64484,2.10608 -3.40616,2.671154 -0.76133,0.565073 -1.41202,1.026019 -1.4489,1.023387 -0.0369,-0.0027 -0.10665,-0.790178 -0.15539,-1.750404 -0.0501,-0.960227 -0.17909,-2.160181 -0.2871,-2.667293 -0.10801,-0.507113 -0.3556,-1.396211 -0.55054,-1.975772 -0.19363,-0.579562 -0.51779,-1.380411 -0.71931,-1.778195 -0.20153,-0.397793 -0.63363,-1.08009 -0.96294,-1.514763 -0.32796,-0.434673 -0.83241,-1.027403 -1.12089,-1.317187 l -0.52429,-0.526874 c -0.78636,1.066923 -1.36976,1.896839 -1.80445,2.531721 -0.43466,0.636201 -1.32375,1.693845 -1.97576,2.351118 -0.81402,0.820601 -1.7637,1.581857 -3.02952,2.428803 -1.01423,0.678354 -2.34854,1.599195 -2.96366,2.047035 -0.61514,0.446529 -1.25265,0.879692 -1.41597,0.962677 -0.25817,0.1304 -0.51107,0.03446 -1.97578,-0.754546 -0.92334,-0.497898 -2.30112,-1.176432 -3.06245,-1.507041 -0.76133,-0.330617 -2.39069,-0.968129 -3.62225,-1.415969 -1.23156,-0.447842 -2.71338,-0.960054 -3.29295,-1.137879 -0.57957,-0.176506 -2.17995,-0.640191 -3.55641,-1.03008 -1.37646,-0.38988 -3.18361,-0.940592 -4.0174,-1.223793 -0.83376,-0.283193 -2.01923,-0.742826 -2.63437,-1.023378 -0.61511,-0.27925 -1.47524,-0.712684 -1.90991,-0.962948 -0.43466,-0.250265 -1.08667,-0.672928 -1.44889,-0.939 -0.36222,-0.264752 -1.04727,-0.862799 -1.52146,-1.326447 -0.47418,-0.464961 -1.13388,-1.199973 -1.46845,-1.634647 -0.33324,-0.434673 -0.89443,-1.352746 -1.24875,-2.041636 -0.35301,-0.688881 -0.77714,-1.577979 -0.94311,-1.975773 l -0.30023,-0.724448 c -0.39647,0.765282 -0.65347,1.476563 -0.82865,2.074564 -0.17519,0.598001 -0.41229,1.753172 -0.52687,2.568501 -0.1146,0.815337 -0.20944,2.060076 -0.20812,2.766085 0,0.706009 0.12382,1.995532 0.27398,2.864869 0.14883,0.869356 0.43596,2.054823 0.63749,2.634366 0.20153,0.579562 0.58622,1.527948 0.8536,2.107492 0.26871,0.579561 0.87866,1.646484 1.35679,2.370933 0.62962,0.956273 1.38692,1.832204 2.75812,3.194165 1.69258,1.680724 1.85191,1.876962 1.52788,1.878281 -0.1989,9.06e-4 -0.80612,-0.111978 -1.35012,-0.251594 -0.54267,-0.139623 -1.3725,-0.425466 -1.84405,-0.636219 -0.47155,-0.210744 -1.24078,-0.642731 -1.71234,-0.957539 -0.47155,-0.316112 -1.2618,-0.964124 -1.75838,-1.439629 -0.49658,-0.475496 -1.18685,-1.22108 -1.53329,-1.655745 -0.34642,-0.434673 -1.23429,-1.76765 -1.97191,-2.963661 -0.73762,-1.196002 -1.65423,-2.588252 -2.03751,-3.095383 -0.3833,-0.507113 -1.28291,-1.50676 -1.99946,-2.220673 -0.71654,-0.713914 -1.83622,-1.654569 -2.48823,-2.089242 -0.65201,-0.435985 -1.77819,-1.078743 -2.50264,-1.4278 -0.72445,-0.350368 -2.02846,-0.881022 -2.89781,-1.181334 -0.86933,-0.29901 -2.114068,-0.799754 -2.766073,-1.110611 -0.651997,-0.310858 -1.629348,-0.917884 -2.173343,-1.347286 -0.542677,-0.43071 -1.372499,-1.204006 -1.844046,-1.719022 -0.471547,-0.516338 -1.136755,-1.40141 -1.48053,-1.967795 -0.34247,-0.566385 -0.79813,-1.533249 -1.012834,-2.149699 -0.214688,-0.61644 -0.451764,-1.505538 -0.528156,-1.975772 -0.07506,-0.470232 -0.138413,-1.226298 -0.138413,-1.679403 -9.04e-4,-0.453112 -0.04612,-0.825746 -0.100072,-0.828378 -0.05398,-0.0027 -0.367361,0.27924 -0.696659,0.625657 -0.329296,0.347737 -0.843246,0.957468 -1.142247,1.355252 -0.299,0.397792 -0.807216,1.257914 -1.128609,1.909916 -0.322704,0.652009 -0.681058,1.481835 -0.798291,1.844059 -0.115912,0.362225 -0.303024,1.192051 -0.413673,1.844052 -0.111961,0.65201 -0.202722,1.778196 -0.202722,2.502644 0,0.72445 0.08953,1.836156 0.19886,2.469716 0.109329,0.633571 0.350442,1.552964 0.534849,2.041637 0.185721,0.488672 0.728402,1.571404 1.207849,2.403861 0.478128,0.832457 1.157668,2.077196 1.509347,2.766085 0.35301,0.688881 0.769369,1.63594 0.927433,2.107493 0.158066,0.471562 0.289596,1.184055 0.293548,1.584471 0.0054,0.526873 -0.0842,0.904961 -0.322623,1.36993 -0.213375,0.414913 -0.492624,0.728437 -0.790304,0.887814 -0.252896,0.135673 -0.698105,0.283201 -0.987891,0.329297 -0.346415,0.05398 -0.775808,0.0027 -1.251303,-0.150252 -0.397812,-0.12775 -1.051133,-0.455655 -1.448927,-0.728311 -0.397783,-0.273967 -1.094578,-0.874682 -1.547691,-1.335699 -0.453104,-0.461017 -1.13409,-1.263043 -1.514754,-1.783332 -0.380664,-0.52029 -1.045914,-1.498955 -1.479267,-2.173356 -0.433352,-0.675714 -1.191863,-1.761122 -1.687124,-2.413132 -0.495261,-0.652 -1.243592,-1.541097 -1.661138,-1.975771 C 77.59443,50.055608 76.901659,49.379813 76.473575,48.989924 76.045501,48.598675 75.132679,47.879634 74.443793,47.392281 73.754906,46.9036 72.687989,46.235854 72.072864,45.907877 71.45774,45.579901 70.360528,45.071431 69.636078,44.779016 68.911626,44.485277 67.074156,43.910836 65.55281,43.501186 64.031465,43.092866 62.371814,42.60811 61.864699,42.42634 61.357497,42.243214 60.349852,41.802103 59.625403,41.44383 58.900951,41.085557 57.834034,40.474326 57.254475,40.084445 56.674914,39.694557 55.614489,38.82398 54.897942,38.149577 54.180076,37.475185 53.197446,36.389751 52.714039,35.737741 52.230634,35.08574 51.622095,34.196634 51.363928,33.761969 51.104443,33.327296 50.625015,32.438198 50.298354,31.786197 49.970375,31.134187 49.46592,29.88945 49.177457,29.020112 c -0.28978,-0.869347 -0.649411,-2.173358 -0.799569,-2.897806 -0.150159,-0.72445 -0.36075,-1.879621 -0.467441,-2.568501 -0.108009,-0.688889 -0.220024,-1.861089 -0.250318,-2.605299 -0.0303,-0.758697 -0.114714,-1.383196 -0.192427,-1.420077 -0.0035,-0.0018 -0.0076,-0.0018 -0.01238,-0.0018 z m 34.308743,23.388744 c -8.9e-5,2.7e-5 0,0 0,0 v 0 0 c -0.01619,0.0161 -0.0275,0.306705 -0.0275,0.791074 0,0.465539 0.0103,0.738104 0.0255,0.754039 v 0 0 0 0 0 0 0 0 0 c 0.0063,-0.0063 0.01446,-0.05823 0.02233,-0.161563 0.02632,-0.362226 0.02632,-0.924658 0,-1.251324 -0.0073,-0.08166 -0.01357,-0.124322 -0.01954,-0.131711 -8.9e-5,-1.09e-4 0,-9.04e-4 0,-9.04e-4 v 0 0 0 0 0 z M 17.612561,122.22215 c -0.0294,0.005 -0.191282,0.29058 -0.374317,0.6604 -0.192308,0.39121 -0.446433,1.15522 -0.563663,1.69922 -0.141385,0.65859 -0.187592,1.29522 -0.138408,1.90991 0.04083,0.50712 0.19763,1.27769 0.349105,1.71235 0.151477,0.43466 0.463807,1.14595 0.695632,1.58062 0.231823,0.43466 0.836306,1.20651 1.34342,1.71362 0.507115,0.50843 1.535756,1.33826 2.28655,1.84405 0.750794,0.50712 1.614944,1.18813 1.917897,1.51348 0.304268,0.32534 0.708711,0.86012 0.897068,1.18546 0.189673,0.32534 0.462278,0.94837 0.605851,1.38304 0.143572,0.43467 0.301687,1.2645 0.349105,1.84406 0.05138,0.60985 0.136896,0.99842 0.201437,0.92202 0.06322,-0.0724 0.289794,-0.48736 0.504494,-0.92202 0.216019,-0.43466 0.48483,-1.14596 0.599424,-1.58061 0.113278,-0.43468 0.209379,-1.26451 0.210697,-1.84407 0.0026,-0.57956 -0.05538,-1.37908 -0.12915,-1.77819 -0.07245,-0.3991 -0.338609,-1.13936 -0.588873,-1.64648 -0.251583,-0.50712 -0.775767,-1.27767 -1.165653,-1.71233 -0.389887,-0.43468 -1.353972,-1.23553 -2.144282,-1.77821 -0.79031,-0.54399 -1.882241,-1.43309 -2.426237,-1.97578 -0.569024,-0.56901 -1.165667,-1.32243 -1.406711,-1.77819 -0.229191,-0.43467 -0.546579,-1.26448 -0.704641,-1.84406 -0.158062,-0.57956 -0.300396,-1.0775 -0.314899,-1.10648 -1.05e-4,0 0,0 0,0 v 0 0 0 0 0 0 0 c -9.2e-5,-1e-5 -0.0012,2e-5 -0.0012,0 0,2e-5 -0.0012,-4e-5 -0.0012,0 z m 145.880489,7.42769 c -0.0693,0.005 -0.24067,0.51008 -0.3913,1.15432 -0.15675,0.67045 -0.41763,1.54504 -0.57832,1.94414 -0.16202,0.39911 -0.56767,1.16834 -0.90094,1.71234 -0.33851,0.55059 -0.98002,1.32901 -1.44762,1.75709 -0.461,0.42282 -1.16426,0.95906 -1.56338,1.19088 -0.3991,0.23315 -1.0498,0.56096 -1.4489,0.73088 -0.3991,0.1686 -1.82167,0.64553 -3.16123,1.06044 -1.3409,0.4136 -3.11908,1.03263 -3.95156,1.37378 -0.83376,0.34247 -2.07849,0.92068 -2.76608,1.28553 -0.68756,0.36486 -1.63725,0.94964 -2.10748,1.29737 -0.47155,0.34906 -1.33563,1.12757 -1.92046,1.73215 -0.58484,0.60327 -1.30014,1.45288 -1.5886,1.88755 -0.28847,0.43466 -0.64787,1.08667 -0.79803,1.44889 -0.15147,0.36222 -0.31626,0.86672 -0.36762,1.11961 l -0.0934,0.461 c 1.39885,-1.35537 2.18906,-2.02722 2.66061,-2.36705 0.47023,-0.34116 1.62673,-0.99558 2.5685,-1.45792 0.94179,-0.46101 2.51187,-1.10399 3.49054,-1.42934 1.16571,-0.38725 2.68573,-0.75599 4.41256,-1.06816 1.44891,-0.26212 3.01898,-0.57175 3.49053,-0.68766 0.47024,-0.11723 1.27109,-0.38056 1.7782,-0.58604 0.50712,-0.2068 1.24738,-0.56769 1.64648,-0.80215 0.39911,-0.23447 1.25915,-0.96026 1.91378,-1.61225 0.90885,-0.90755 1.29237,-1.4015 1.62693,-2.10749 0.24105,-0.50712 0.52539,-1.33695 0.63208,-1.84407 0.13173,-0.62303 0.16726,-1.2421 0.11062,-1.90991 -0.046,-0.544 -0.17241,-1.31324 -0.28041,-1.71234 -0.10931,-0.3991 -0.34262,-1.12487 -0.52042,-1.61356 -0.17652,-0.48866 -0.37283,-0.91936 -0.43736,-0.95623 -0.003,-0.002 -0.004,-0.002 -0.007,-0.002 z m 29.37061,5.98161 c -0.0923,0.002 -0.22334,0.167 -0.40314,0.50731 -0.18045,0.33983 -0.62962,0.94582 -0.99844,1.34625 -0.37013,0.40174 -1.02213,0.91666 -1.4489,1.14586 -0.42808,0.22786 -1.31064,0.6203 -1.96265,0.87057 -0.652,0.25026 -1.55559,0.64146 -2.0087,0.86801 -0.45312,0.22786 -1.09459,0.66525 -1.42653,0.97347 -0.33193,0.30822 -0.74033,0.79689 -0.90762,1.08668 -0.16728,0.28978 -0.40038,0.85221 -0.5176,1.25132 -0.11724,0.39912 -0.20799,1.08009 -0.20272,1.51477 0.005,0.43466 0.0541,0.90885 0.10805,1.05374 0.0883,0.24105 0.12378,0.22391 0.40698,-0.19758 0.16992,-0.2529 0.52154,-0.68886 0.78234,-0.96678 0.25949,-0.27793 0.75472,-0.64806 1.09851,-0.82325 0.34378,-0.17387 1.26317,-0.5033 2.04163,-0.72986 0.77847,-0.22655 1.84537,-0.6125 2.37093,-0.85616 0.60854,-0.28321 1.20776,-0.69535 1.65034,-1.13529 0.3833,-0.38067 0.85749,-1.03268 1.05374,-1.44891 0.19758,-0.41623 0.42416,-1.06823 0.5045,-1.4489 0.0816,-0.38067 0.12514,-1.17746 0.0988,-1.77151 -0.0264,-0.59405 -0.10788,-1.14077 -0.18163,-1.21452 -0.0172,-0.0169 -0.0367,-0.0256 -0.0579,-0.0253 z m -162.749955,2.84659 -0.213279,0.52688 c -0.117228,0.28978 -0.33729,1.10512 -0.490085,1.81113 -0.18177,0.83773 -0.277846,1.75317 -0.277846,2.63437 0.0012,0.74289 0.08703,1.88356 0.193718,2.53557 0.105375,0.65201 0.342509,1.70443 0.525596,2.338 0.184406,0.63356 0.521526,1.52266 0.749398,1.97576 0.227872,0.45312 0.567705,1.05905 0.757379,1.34884 0.188358,0.28846 0.430667,0.64136 0.539992,0.78363 0.108009,0.14225 0.553218,0.63769 0.987888,1.10134 0.434671,0.46364 1.145949,1.11291 1.580619,1.44219 0.434671,0.33062 1.264495,0.82451 1.844056,1.0998 0.579559,0.27399 1.705751,0.66516 2.502647,0.86802 1.363284,0.34641 1.61355,0.36899 4.214985,0.36504 2.409126,-0.003 3.021617,-0.0489 4.741857,-0.35578 1.086674,-0.19363 2.731838,-0.44398 3.655182,-0.55596 0.923345,-0.11195 2.227355,-0.20272 2.897801,-0.20272 0.670446,0 1.751853,0.0658 2.403859,0.14484 0.652005,0.0791 1.866448,0.31737 2.700224,0.52945 0.908857,0.23051 2.067977,0.64952 2.897802,1.04731 0.760014,0.36355 1.620135,0.81925 1.909915,1.01156 0.28978,0.19231 0.670447,0.47013 0.845631,0.61897 l 0.320035,0.27013 c -0.478136,-0.81665 -0.899543,-1.43837 -1.244646,-1.90991 -0.3451,-0.47156 -0.882511,-1.09977 -1.196,-1.39745 -0.313489,-0.29769 -0.865402,-0.77187 -1.228944,-1.05376 -0.362226,-0.28187 -1.132778,-0.76008 -1.712338,-1.0617 -0.578244,-0.30297 -1.497677,-0.69805 -2.040343,-0.88113 -0.544008,-0.18179 -1.462072,-0.45312 -2.041633,-0.60328 -0.579573,-0.14884 -1.558226,-0.36495 -2.173352,-0.47954 -0.75738,-0.13963 -2.506611,-0.24368 -5.400461,-0.31875 -2.642268,-0.0673 -4.708927,-0.18451 -5.400449,-0.30306 -0.616442,-0.10538 -1.653064,-0.32649 -2.305069,-0.48982 -0.652005,-0.16465 -1.600377,-0.47151 -2.107492,-0.68226 -0.507115,-0.21206 -1.277667,-0.60071 -1.712338,-0.86416 -0.434671,-0.26343 -1.169697,-0.83765 -1.633346,-1.27626 -0.463649,-0.43863 -1.265695,-1.36077 -1.783347,-2.04832 -0.517651,-0.68758 -1.223689,-1.81509 -1.568791,-2.50266 -0.345102,-0.68757 -0.799543,-1.81506 -1.008975,-2.50264 -0.210748,-0.68757 -0.459789,-1.63594 -0.555943,-2.10749 z m 34.885778,8.2311 c -0.0012,1.1e-4 -0.0017,0 -0.0023,0.002 0,9e-5 0,0 -0.0012,0 0,0 -0.0012,0.002 -0.0012,0.002 -0.01895,0.0364 0.337333,0.43641 0.820673,0.92101 0.507115,0.50844 0.952322,0.92459 0.987887,0.92459 0.03688,0 -0.330549,-0.41618 -0.815271,-0.9233 -0.486041,-0.50843 -0.929931,-0.9233 -0.987887,-0.9246 0,0 -0.0012,-5e-5 -0.0012,0 z m 102.173707,14.93152 c -0.43252,0 -0.69314,0.0111 -0.70902,0.0273 v 0 0 0 0 c 0,9e-5 0,0.002 0,0.002 v 0 0 0 0 0 c 0.006,0.006 0.0438,0.013 0.11629,0.0198 0.28976,0.0277 0.79425,0.0277 1.11959,0 0.0919,-0.008 0.13908,-0.0154 0.14587,-0.0218 v 0 0 0 0 0 0 0 0 0 0 0 c -0.0157,-0.015 -0.25882,-0.0256 -0.673,-0.0256 z"
       style="fill:#d82624;fill-opacity:1;stroke-width:0.131718" />
    <path
       id="Path 3-2-9-3-9-8-6"
       class="s3"
       d="m 71.096617,24.936907 c -0.121181,0.289776 -0.396472,1.074817 -0.609856,1.745267 -0.2147,0.67044 -0.479454,1.737364 -0.58878,2.370925 -0.109327,0.63357 -0.197578,1.804549 -0.196259,2.601437 0.0026,0.898322 0.09746,1.89938 0.25158,2.634364 0.13567,0.65201 0.370129,1.512134 0.520288,1.909918 0.148841,0.397793 0.520287,1.110386 0.823239,1.580617 0.304269,0.470234 0.854851,1.15254 1.22498,1.514763 0.370128,0.362226 1.502906,1.250002 2.515819,1.97182 1.012912,0.723139 2.280042,1.73078 2.813501,2.239214 0.534776,0.509744 1.322452,1.459434 1.749219,2.111443 0.428084,0.652001 0.910174,1.526611 1.070866,1.942844 0.160696,0.416233 0.321393,0.758698 0.358272,0.760018 0.03554,9.04e-4 0.184409,-0.487362 0.329298,-1.086683 0.219976,-0.911489 0.26212,-1.517395 0.254216,-3.723671 -0.0092,-2.590901 -0.01582,-2.654126 -0.425448,-3.885687 -0.227874,-0.68889 -0.638832,-1.635948 -0.912807,-2.106181 -0.310854,-0.537409 -1.04189,-1.396211 -1.95865,-2.305068 -0.804798,-0.798209 -2.168082,-2.132515 -3.02952,-2.964973 -0.898318,-0.868026 -1.749218,-1.8243 -1.994215,-2.239213 -0.234458,-0.397793 -0.596683,-1.139362 -0.804798,-1.646484 -0.208114,-0.507112 -0.513701,-1.484458 -0.678349,-2.173348 -0.164648,-0.688889 -0.343784,-1.369866 -0.396472,-1.514763 -0.08298,-0.227872 -0.125131,-0.192304 -0.316124,0.263441 z m -35.633742,29.76833 c -0.0052,0.07244 -0.06981,0.487353 -0.143573,0.922026 -0.07376,0.434673 -0.136987,1.560858 -0.139621,2.502645 -0.0039,0.947057 0.08299,2.272141 0.194943,2.963661 0.111961,0.688889 0.314807,1.577987 0.451794,1.975772 0.136987,0.397793 0.414912,1.051114 0.616454,1.448908 0.201516,0.397784 0.638821,1.077449 0.973385,1.50817 0.334565,0.432033 0.903601,1.016866 1.265826,1.300058 0.362224,0.284513 1.043196,0.708641 1.51476,0.943107 0.470221,0.235776 1.389615,0.620393 2.041633,0.85617 0.651992,0.235776 1.596413,0.644096 2.098258,0.907538 0.501848,0.263431 1.297426,0.804791 1.768977,1.202585 0.471551,0.397784 1.068234,1.036617 1.326403,1.418603 0.442586,0.654641 0.47682,0.677033 0.582195,0.395162 0.06059,-0.164648 0.08166,-0.979987 0.04742,-1.813765 -0.04874,-1.144635 -0.148842,-1.771611 -0.407009,-2.568509 -0.189674,-0.579561 -0.592733,-1.498955 -0.897002,-2.041627 q -0.551901,-0.98789 -1.684665,-2.107492 c -0.623028,-0.61513 -1.456805,-1.315867 -1.851959,-1.556916 -0.395154,-0.239729 -1.339575,-0.773186 -2.096955,-1.185467 -0.771883,-0.420176 -1.720242,-1.065593 -2.158862,-1.472601 -0.429416,-0.397793 -1.035307,-1.080091 -1.346174,-1.514763 -0.309539,-0.434674 -0.856169,-1.41334 -1.211796,-2.173349 -0.356956,-0.760018 -0.712608,-1.531891 -0.791626,-1.712338 -0.07904,-0.180457 -0.147537,-0.270026 -0.152806,-0.197578 z m 29.915852,1.87698 c -0.134351,0.271344 -0.371445,0.82061 -0.526873,1.218394 -0.155414,0.397793 -0.520288,1.701803 -0.812702,2.897806 -0.291097,1.196002 -0.59667,2.677829 -0.678349,3.292958 -0.08296,0.63093 -0.115898,1.809803 -0.07376,2.700222 0.03951,0.869337 0.1686,2.0851 0.285829,2.70022 0.117229,0.61513 0.364859,1.593796 0.550583,2.173358 0.185721,0.579561 0.578255,1.587202 0.871988,2.239212 0.295035,0.652001 0.989191,1.986307 1.545054,2.963652 0.555838,0.977346 1.203893,2.193108 1.442301,2.700222 0.237107,0.507122 0.543998,1.248689 0.682303,1.646483 0.136986,0.397784 0.250263,0.783722 0.248959,0.856161 0,0.07244 -0.312184,0.198896 -0.692851,0.280561 -0.380666,0.08166 -1.167023,0.346425 -1.746571,0.587465 -0.579573,0.239729 -1.587219,0.795577 -2.237907,1.232882 -0.652005,0.438625 -1.919134,1.508179 -2.817453,2.377517 -0.898319,0.869337 -2.09432,2.202333 -2.660708,2.963662 -0.566389,0.760018 -1.300061,1.930987 -1.629356,2.601438 -0.329295,0.670442 -0.757379,1.737364 -0.952323,2.370926 -0.30822,1.008962 -0.353005,1.386994 -0.362226,3.029526 -0.0052,1.155161 -0.05927,1.8783 -0.140938,1.879619 -0.07245,0.0027 -0.636198,-0.296368 -1.251322,-0.663865 -0.616442,-0.367488 -1.438364,-0.976035 -1.826933,-1.352748 -0.388569,-0.378032 -1.115654,-1.293474 -1.613549,-2.036363 -0.699424,-1.041891 -0.927297,-1.297427 -0.99579,-1.119602 -0.05006,0.126448 -0.01844,1.238147 0.07113,2.469717 0.08825,1.231561 0.276609,2.920188 0.417548,3.75397 0.140938,0.83378 0.40174,2.10749 0.576926,2.83194 0.176502,0.72446 0.526873,1.90991 0.778455,2.63437 0.250265,0.72445 0.657273,1.79137 0.903586,2.37094 0.246315,0.57954 0.733672,1.55821 1.084042,2.17334 0.350371,0.61513 0.966811,1.56482 1.371188,2.10748 0.403058,0.54401 1.687311,1.96525 2.853018,3.16124 1.167023,1.19601 2.249747,2.38147 2.406491,2.63437 0.156746,0.2529 0.499213,1.11304 0.761333,1.90992 0.260802,0.79689 0.655957,1.77556 0.877243,2.17335 0.221287,0.39778 0.684935,1.10907 1.030037,1.58062 0.345101,0.47155 1.005009,1.2118 1.466025,1.6478 0.461012,0.43467 1.311913,1.10378 1.891473,1.48577 0.579561,0.38199 2.298483,1.30928 3.81983,2.06141 1.655698,0.81796 3.004493,1.57401 3.358816,1.8862 0.325343,0.28582 1.489732,1.66886 2.586947,3.07429 1.097212,1.40544 2.908338,3.62226 4.026626,4.92627 1.116972,1.30401 2.879359,3.28901 3.915985,4.41256 1.035306,1.12357 2.895166,3.25608 4.129369,4.74186 1.235514,1.48578 2.665976,3.1112 3.17836,3.61304 0.513702,0.50184 1.52529,1.35406 2.249736,1.89278 0.724445,0.53873 1.701796,1.2039 2.173343,1.47788 0.470229,0.27398 1.418594,0.74816 2.107476,1.05244 0.687562,0.30425 1.784788,0.69151 2.436784,0.8588 0.65201,0.16728 1.92573,0.37145 2.83195,0.45179 1.18018,0.10538 2.03768,0.10802 3.02952,0.008 0.76132,-0.0764 1.85721,-0.26609 2.43678,-0.42019 0.57956,-0.15542 1.58721,-0.51502 2.23921,-0.80085 0.652,-0.28582 1.62935,-0.78767 2.17335,-1.11566 0.54267,-0.32666 1.28426,-0.81533 1.64648,-1.08405 0.36223,-0.2687 1.09721,-0.9286 1.63198,-1.466 0.53479,-0.53741 1.40017,-1.51081 1.92308,-2.16282 0.52293,-0.652 1.30534,-1.71893 1.73869,-2.37093 0.43335,-0.65201 1.11829,-1.74921 1.52135,-2.43679 0.40305,-0.68756 1.29743,-2.37751 1.98895,-3.75397 0.6902,-1.37645 1.65042,-3.45102 2.13252,-4.61013 0.48208,-1.15913 1.657,-4.40466 2.61066,-7.21158 0.95232,-2.80824 1.74657,-5.0896 1.7637,-5.07116 0.0184,0.0185 -0.0342,0.77451 -0.11459,1.67941 -0.0803,0.90622 -0.1146,2.47631 -0.0765,3.49054 0.0396,1.01423 0.1923,2.49606 0.34115,3.29296 0.14884,0.79688 0.46496,2.12592 0.70338,2.95443 0.23709,0.82719 0.49131,1.5253 0.56375,1.549 0.0724,0.0251 0.36354,-0.38593 0.64674,-0.9128 0.28319,-0.52556 0.78109,-1.37118 1.10512,-1.8783 0.32534,-0.50712 0.93124,-1.33695 1.34616,-1.84406 0.41622,-0.50712 1.16438,-1.3106 1.66096,-1.78478 0.49791,-0.47419 1.31982,-1.19469 1.82694,-1.60038 0.50711,-0.40569 1.57403,-1.09985 2.37093,-1.54242 0.79689,-0.44257 2.07061,-1.06296 2.83194,-1.37908 0.76132,-0.31614 1.69389,-0.67178 2.07456,-0.78899 0.38067,-0.11855 0.68757,-0.25949 0.68363,-0.31351 -0.004,-0.054 -0.40306,-0.28582 -0.88911,-0.51501 -0.48473,-0.2305 -1.2961,-0.74026 -1.80323,-1.13408 -0.5071,-0.39386 -1.19337,-1.03664 -1.52529,-1.42784 -0.33061,-0.38988 -0.86143,-1.09458 -1.17756,-1.56613 -0.31612,-0.47156 -0.7969,-1.33035 -1.06824,-1.90992 -0.27001,-0.57956 -0.6744,-1.70576 -0.89699,-2.50265 -0.22261,-0.79689 -0.44917,-1.82033 -0.50318,-2.27345 -0.054,-0.45311 -0.0527,-0.82457 0.002,-0.82324 0.054,0 0.55848,0.39252 1.11961,0.86935 0.56111,0.47812 2.02846,1.54109 3.26002,2.3617 1.28029,0.85485 3.00054,1.85986 4.01741,2.35117 0.97735,0.47155 2.3999,1.06165 3.16123,1.3106 0.76133,0.24895 2.03505,0.5914 2.83196,0.76264 1.25526,0.2674 1.81902,0.30955 4.21498,0.31217 2.25369,0.003 2.96102,-0.0434 3.81983,-0.24498 0.57955,-0.13569 1.40937,-0.36355 1.84406,-0.50448 0.43466,-0.14226 1.38303,-0.51503 2.10748,-0.82983 0.72446,-0.31481 2.05745,-0.96418 2.96366,-1.44364 0.90491,-0.47945 2.4763,-1.24737 3.49054,-1.70706 1.01422,-0.4597 2.25897,-0.98394 2.76609,-1.1644 0.5071,-0.18044 1.9863,-0.61645 3.28637,-0.96944 1.30005,-0.35301 2.45523,-0.70734 2.5685,-0.789 0.16597,-0.11854 -0.0447,-0.24103 -1.11302,-0.64409 -0.72445,-0.27397 -1.50949,-0.57825 -1.74528,-0.67704 l -0.42807,-0.17782 c 0.64016,-0.56111 0.91808,-0.90227 1.03135,-1.1196 0.11329,-0.21734 0.30164,-0.77977 0.41886,-1.25133 l 0.21339,-0.85616 c 5.39914,-0.13831 6.37121,-0.2147 6.96396,-0.38198 0.43466,-0.12382 0.92333,-0.30954 1.08667,-0.41492 0.16333,-0.10538 0.45047,-0.35432 0.64014,-0.55322 0.18836,-0.19889 0.51503,-0.71786 0.72445,-1.15252 0.20944,-0.43468 0.58879,-1.62014 0.843,-2.63436 0.2529,-1.01425 0.60458,-2.52506 0.77978,-3.35883 0.17518,-0.83377 0.38461,-2.107498 0.46628,-2.831947 0.0804,-0.724449 0.108,-1.435731 0.0593,-1.580618 -0.0751,-0.226552 -0.1541,-0.248944 -0.56506,-0.160696 -0.26344,0.05534 -0.69153,0.263439 -0.95364,0.461016 -0.2608,0.196256 -0.75475,0.684938 -1.09721,1.082722 -0.34116,0.397793 -0.87988,1.257906 -1.19469,1.909916 -0.31481,0.651997 -0.66519,1.408067 -0.77978,1.679417 -0.11327,0.27133 -0.26607,0.49393 -0.33851,0.49393 -0.0724,0 -0.19099,-0.29635 -0.26343,-0.65859 -0.0724,-0.36222 -0.1304,-1.533197 -0.12778,-2.60143 0.004,-1.697852 -0.025,-1.97051 -0.2305,-2.160182 -0.12909,-0.121184 -0.82719,-0.438625 -1.55164,-0.707329 -0.72445,-0.268705 -1.99948,-0.829825 -2.83195,-1.244738 -0.83378,-0.416224 -1.8704,-0.982618 -2.30507,-1.259227 -0.43466,-0.275289 -1.23552,-0.827185 -1.7782,-1.22498 -0.54399,-0.399105 -1.45416,-1.17361 -2.02318,-1.724187 -0.57035,-0.549273 -1.37646,-1.413339 -1.7927,-1.920461 -0.41623,-0.507112 -0.98393,-1.277666 -1.26317,-1.71233 -0.27925,-0.434673 -1.09195,-2.064028 -1.80585,-3.622255 -0.97341,-2.119348 -1.53716,-3.16387 -2.24317,-4.149129 -0.51898,-0.724449 -1.3646,-1.821658 -1.87831,-2.43678 -0.51369,-0.615121 -1.55295,-1.705746 -2.3077,-2.4223 -0.75475,-0.716545 -1.50553,-1.384354 -1.66888,-1.481827 -0.27924,-0.1686 -0.36091,-0.118544 -1.38303,0.845633 -0.598,0.563754 -1.44232,1.242099 -1.87699,1.508172 -0.43467,0.266072 -1.29479,0.666497 -1.90991,0.887777 -0.61644,0.222609 -1.14859,0.375401 -1.18547,0.339832 -0.0369,-0.03554 0.20944,-0.586144 0.54663,-1.221026 0.33721,-0.636202 0.89306,-1.779516 1.23552,-2.539524 0.34246,-0.760018 0.84563,-2.006068 1.11829,-2.766086 0.27266,-0.760018 0.62434,-1.975771 0.78109,-2.70022 0.15674,-0.72446 0.37012,-1.909916 0.47287,-2.634366 0.10274,-0.724458 0.18835,-1.969187 0.18835,-2.766086 0.002,-0.796897 -0.0606,-1.833523 -0.1383,-2.305067 -0.0764,-0.471553 -0.16991,-0.886466 -0.2068,-0.922036 -0.0369,-0.03554 -0.19362,0.111962 -0.34906,0.329298 -0.1541,0.217336 -0.63883,0.771873 -1.07613,1.232881 -0.4373,0.462338 -1.44626,1.326403 -2.24317,1.921772 -0.79688,0.59537 -2.39726,1.71102 -3.55638,2.478943 -1.15913,0.767913 -2.60935,1.799266 -3.22315,2.293212 -0.61249,0.493944 -1.46339,1.313235 -1.88884,1.820347 -0.43861,0.522921 -1.0195,1.435731 -1.34089,2.107493 -0.31086,0.651999 -0.69811,1.689947 -0.8588,2.305067 -0.1607,0.615121 -0.36355,1.742635 -0.44917,2.502645 l -0.15673,1.383043 c -0.46365,-1.224979 -0.73632,-2.114077 -0.90623,-2.766086 -0.16992,-0.652001 -0.35037,-1.689938 -0.40174,-2.305068 -0.0566,-0.678345 -0.0303,-1.587203 0.0646,-2.305069 0.0856,-0.652001 0.31481,-1.65965 0.50843,-2.239212 0.19494,-0.579561 0.60459,-1.454162 0.9128,-1.942844 l 0.56113,-0.889098 c -1.88884,-0.89436 -3.11909,-1.422553 -3.95154,-1.750531 -0.83379,-0.329296 -2.49344,-0.925985 -3.68813,-1.327722 -1.19599,-0.401746 -3.41808,-1.082723 -4.93944,-1.516075 -1.52134,-0.432041 -3.43256,-0.96813 -4.2479,-1.190739 -0.81533,-0.2226 -1.48315,-0.360904 -1.48579,-0.306905 -0.002,0.05399 0.51107,0.544002 1.13937,1.086684 0.6283,0.543992 1.64385,1.521346 2.25766,2.173347 0.6138,0.65201 1.48972,1.747899 1.94943,2.436789 0.45837,0.68889 1.05242,1.725506 1.31981,2.305068 0.26739,0.579562 0.62699,1.527931 0.79953,2.107492 0.17254,0.579561 0.37935,1.558228 0.45706,2.173357 0.0935,0.725761 0.10274,1.467339 0.0264,2.107492 -0.0646,0.543992 -0.17519,0.976025 -0.245,0.960227 -0.0698,-0.01582 -0.57166,-0.212074 -1.11434,-0.438626 -0.54398,-0.225241 -1.67018,-0.607226 -2.50265,-0.848265 -0.83376,-0.241049 -2.25633,-0.563754 -3.16123,-0.719186 -0.90623,-0.155425 -2.41703,-0.317441 -3.35882,-0.362226 -1.04452,-0.04875 -2.38014,-0.01446 -3.42467,0.08827 -0.94178,0.0922 -2.28268,0.293728 -2.97815,0.44784 l -1.26713,0.279241 c -1.2039,-1.085354 -2.03505,-1.576668 -3.46024,-2.265557 -1.12355,-0.542673 -2.33799,-1.124874 -2.70022,-1.294786 -0.36223,-0.169921 -1.10381,-0.600633 -1.64648,-0.957593 -0.544,-0.356954 -1.34352,-0.973395 -1.7782,-1.368556 -0.43467,-0.396464 -1.14462,-1.18941 -1.57929,-1.763707 -0.43336,-0.574289 -1.03135,-1.517395 -1.3264,-2.096948 -0.29637,-0.579561 -0.68231,-1.54374 -0.8575,-2.14306 -0.17648,-0.598002 -0.35036,-1.089306 -0.38592,-1.090627 -0.0369,-9.04e-4 -0.29769,0.459697 -0.58088,1.02345 -0.28319,0.563754 -0.65727,1.439684 -0.83114,1.946796 -0.17519,0.507112 -0.461016,1.603011 -0.637513,2.436788 -0.179143,0.850898 -0.320072,1.962604 -0.320072,2.535574 -0.002,0.561121 0.0895,1.450219 0.200208,1.975781 0.10932,0.525552 0.522917,1.903322 0.918077,3.062445 0.39515,1.159123 0.80742,2.492108 0.91675,2.963662 0.10933,0.471553 0.20021,1.256594 0.20153,1.745259 0,0.488681 -0.0895,1.318506 -0.20153,1.844059 -0.11064,0.525553 -0.33325,1.217074 -0.49395,1.538468 -0.15937,0.321392 -0.58745,0.843001 -0.949683,1.159121 -0.374071,0.326665 -0.943107,0.666499 -1.317186,0.785042 -0.455741,0.144887 -0.900939,0.18572 -1.448888,0.13172 -0.626975,-0.06194 -0.94047,-0.181777 -1.512123,-0.578249 -0.396462,-0.275289 -1.018177,-0.885146 -1.383029,-1.356699 -0.363545,-0.471544 -1.431775,-1.626715 -2.373554,-2.568501 -0.941775,-0.941786 -2.157538,-2.042948 -2.700219,-2.448635 -0.544002,-0.404378 -1.492354,-1.031355 -2.107484,-1.392268 -0.61644,-0.359584 -1.624082,-0.869338 -2.239212,-1.130138 -0.616441,-0.26212 -2.394636,-0.83905 -3.951543,-1.282939 C 79.339969,70.92773 77.739592,70.443 77.341803,70.295481 76.942695,70.147951 76.143166,69.789679 75.563606,69.498582 74.984045,69.208797 74.096265,68.6951 73.591784,68.3579 73.085986,68.020699 72.028289,67.122386 71.239296,66.362368 70.451457,65.60235 69.521525,64.5947 69.172472,64.123146 c -0.349054,-0.471544 -0.92993,-1.448899 -1.292157,-2.173347 -0.360907,-0.72445 -0.861437,-1.909916 -1.110385,-2.634365 -0.248946,-0.724449 -0.546629,-1.746589 -0.662543,-2.272141 -0.115911,-0.525552 -0.272656,-0.954954 -0.347735,-0.954954 -0.07508,0 -0.246314,0.222601 -0.38068,0.493936 z M 47.050131,128.03939 c -0.363529,0.74289 -0.750793,1.70574 -0.860107,2.14041 -0.109339,0.43467 -0.198909,1.19072 -0.198909,1.6794 0.0013,0.48868 0.09222,1.3185 0.204178,1.84407 0.11063,0.52554 0.421486,1.40016 0.690191,1.94284 0.322722,0.65331 0.799529,1.31454 1.410702,1.95469 0.508432,0.53215 1.248688,1.18151 1.647809,1.44364 0.397789,0.26211 1.286887,0.75343 1.975773,1.09326 0.687557,0.33983 2.318229,1.00369 3.622252,1.47524 1.303999,0.47024 2.904375,1.08536 3.556394,1.36461 0.651992,0.28055 1.629342,0.76265 2.173351,1.0735 0.542667,0.30954 1.521332,0.95891 2.17335,1.44364 0.651993,0.4834 1.751842,1.44363 2.445996,2.13382 0.692838,0.69021 1.448901,1.49238 1.679408,1.78216 0.231823,0.28978 0.421512,0.43862 0.422829,0.32929 0.0012,-0.10932 -0.125146,-0.61249 -0.279257,-1.1196 -0.155413,-0.50712 -0.520272,-1.39622 -0.811369,-1.97579 -0.291099,-0.57955 -0.771883,-1.40937 -1.068249,-1.84405 -0.295036,-0.43467 -0.954958,-1.2276 -1.463377,-1.7637 -0.509762,-0.53477 -1.3712,-1.31192 -1.913867,-1.72683 -0.544009,-0.41359 -1.521345,-1.09984 -2.173351,-1.52397 -0.652019,-0.42414 -2.430215,-1.37515 -3.951548,-2.11277 -1.521346,-0.73894 -3.152018,-1.61355 -3.622253,-1.94548 -0.471551,-0.33192 -1.260556,-1.00501 -1.754499,-1.495 -0.493944,-0.49 -1.113007,-1.21707 -1.377773,-1.61619 -0.263438,-0.39911 -0.651993,-1.13936 -0.862741,-1.64648 -0.210764,-0.50711 -0.464981,-1.30664 -0.563768,-1.77819 -0.09745,-0.47155 -0.179124,-1.22631 -0.180441,-1.67941 -0.0013,-0.45311 -0.06061,-0.82323 -0.130402,-0.82323 -0.06981,0 -0.425463,0.60721 -0.790322,1.35012 z m 132.378129,17.16946 c -0.0895,0.28188 -0.4597,1.10643 -0.82324,1.8309 -0.36355,0.72444 -0.96814,1.79135 -1.34485,2.37092 -0.37671,0.57955 -1.07087,1.49896 -1.54242,2.04163 -0.47155,0.54399 -1.26845,1.29875 -1.7703,1.67941 -0.50186,0.38067 -1.35801,0.92202 -1.90068,1.20522 -0.54402,0.28188 -1.46208,0.66254 -2.04165,0.84431 -0.57956,0.18177 -1.67545,0.407 -2.43679,0.50185 -1.11037,0.13567 -1.75975,0.1383 -3.29296,0.009 -1.04979,-0.0882 -3.0361,-0.33457 -4.41255,-0.54664 -1.37645,-0.21206 -3.15465,-0.45574 -3.95155,-0.54136 -0.83114,-0.0895 -2.09432,-0.1225 -2.96367,-0.0764 -0.83377,0.0434 -2.01923,0.16728 -2.63435,0.27398 -0.61645,0.10801 -1.68336,0.37802 -2.37093,0.60326 -0.68757,0.22393 -1.69653,0.64543 -2.23921,0.93784 -0.544,0.29109 -1.42652,0.86538 -1.96392,1.27766 -0.5361,0.41097 -1.23024,1.04322 -1.54242,1.40544 -0.31218,0.36223 -0.57033,0.70338 -0.57297,0.75737 -0.002,0.054 0.36617,-0.10406 0.81928,-0.35299 0.45311,-0.24763 1.29742,-0.61118 1.87698,-0.80612 0.57956,-0.19494 1.49765,-0.43336 2.04164,-0.53083 0.54927,-0.0988 1.9244,-0.17915 3.09537,-0.18177 1.23289,-0.003 2.60013,0.0751 3.29297,0.18704 0.652,0.10538 1.89674,0.39648 2.76608,0.64674 0.86934,0.25158 2.14438,0.66123 2.83194,0.91149 0.68758,0.25026 1.99159,0.6665 2.8978,0.92597 0.9049,0.25818 2.26819,0.59801 3.02951,0.75344 1.15913,0.23709 1.69128,0.27266 3.29296,0.22259 1.6162,-0.0514 2.08247,-0.1159 3.02954,-0.42149 0.61511,-0.19758 1.62275,-0.61776 2.2392,-0.93256 0.61513,-0.31481 1.5635,-0.94837 2.10749,-1.40808 0.54268,-0.45968 1.37251,-1.34615 1.84405,-1.9705 0.47024,-0.62435 1.13147,-1.68862 1.46735,-2.36565 0.33588,-0.67704 0.73894,-1.64517 0.89437,-2.15228 0.15542,-0.50713 0.37012,-1.42651 0.47682,-2.04164 0.11591,-0.67044 0.18704,-1.85855 0.1765,-2.96366 -0.009,-1.01423 -0.0606,-2.01661 -0.1146,-2.22603 l -0.0975,-0.38331 z"
       style="fill:#333333;stroke-width:0.131718" />
    <path
       id="Path 5-6-2-6-2-4-3"
       class="s1"
       d="m 119.75461,75.402126 c -0.18178,0.02632 -0.74421,0.11196 -1.25133,0.190992 -0.5071,0.07903 -1.45548,0.285823 -2.10748,0.459696 -0.65201,0.173864 -1.57009,0.466282 -2.04164,0.652001 -0.47155,0.184401 -1.24078,0.547945 -1.71234,0.806114 -0.47155,0.258169 -1.21181,0.721817 -1.64647,1.028722 -0.43468,0.308216 -1.17493,0.939146 -1.64649,1.402794 -0.47155,0.46365 -1.21707,1.317188 -1.65701,1.896749 -0.43993,0.579561 -1.53847,2.150956 -2.43942,3.490535 -0.90095,1.339569 -2.08115,3.117765 -2.62382,3.951543 -0.54137,0.833777 -1.51607,2.226035 -2.16544,3.095383 -0.649376,0.869338 -1.80587,2.204966 -2.568517,2.968926 -0.76395,0.763971 -1.758415,1.638579 -2.211534,1.942843 -0.453105,0.305595 -1.282924,0.791635 -1.844043,1.080091 -0.561108,0.289785 -1.464704,0.623034 -2.008688,0.742899 -0.733672,0.162007 -1.360651,0.200208 -2.436789,0.147519 -1.173611,-0.05661 -1.660953,-0.147519 -2.568491,-0.476817 -0.61512,-0.22392 -1.589844,-0.69021 -2.165462,-1.035306 -0.57559,-0.345105 -1.076138,-0.716545 -1.111697,-0.825874 -0.05137,-0.155433 0.0036,-0.176504 0.255527,-0.102743 0.176515,0.05138 0.899634,0.155432 1.605661,0.230513 0.898323,0.09484 1.670188,0.09352 2.568509,-0.0063 0.705992,-0.07769 1.639874,-0.262121 2.074546,-0.40832 0.434674,-0.146208 1.072181,-0.408329 1.415967,-0.582202 0.569026,-0.287144 0.617761,-0.349047 0.543995,-0.678344 -0.04618,-0.198896 -0.306892,-0.777138 -0.57955,-1.28425 -0.272666,-0.507123 -0.814027,-1.271083 -1.202596,-1.696532 -0.387247,-0.426771 -1.031353,-0.948381 -1.429137,-1.160445 -0.397793,-0.212065 -1.051097,-0.582194 -1.44889,-0.821921 -0.397793,-0.24104 -0.871977,-0.582193 -1.053746,-0.760019 -0.180457,-0.177815 -0.807433,-0.82192 -1.393579,-1.433089 -0.584834,-0.609858 -1.414669,-1.343531 -1.84406,-1.629356 -0.428079,-0.285832 -1.164395,-0.654642 -1.635939,-0.8206 -0.471553,-0.164648 -1.122238,-0.301642 -1.448899,-0.304273 -0.326662,-0.0027 -0.919393,0.09089 -1.317183,0.2068 -0.397789,0.115912 -1.331684,0.471544 -2.074562,0.791625 L 75.2339,87.042353 C 72.835312,86.5168 71.664336,86.32976 71.084776,86.288928 c -0.742891,-0.05271 -1.344843,-0.0092 -2.041633,0.144888 -0.633566,0.140944 -1.354065,0.430721 -2.008704,0.810066 -0.624344,0.359592 -1.513443,1.062969 -2.286642,1.807179 -0.695461,0.670441 -1.718911,1.780827 -2.273445,2.469717 -0.553229,0.68889 -1.260557,1.755805 -1.568763,2.370926 -0.309552,0.61513 -0.649372,1.534524 -0.754746,2.041637 -0.105374,0.507111 -0.192309,1.218394 -0.193626,1.580618 -0.0012,0.362225 0.09221,1.192051 0.208102,1.844061 0.115925,0.652 0.263435,1.3185 0.329296,1.48183 0.06455,0.16332 0.177832,0.29637 0.250278,0.29637 0.07242,0 0.395154,-0.19232 0.716546,-0.42809 0.32271,-0.23578 1.196002,-0.881199 1.942845,-1.435727 0.746842,-0.555858 1.950747,-1.52794 2.675198,-2.164132 0.724451,-0.634881 1.525284,-1.351435 1.778196,-1.591164 0.252899,-0.241039 0.505799,-0.438616 0.559803,-0.438616 0.05398,-9.04e-4 0.06455,0.162016 0.02369,0.360904 -0.04215,0.198896 -0.255533,0.717866 -0.47682,1.15254 -0.219969,0.434672 -0.687569,1.205217 -1.040574,1.712339 -0.351675,0.507111 -1.190733,1.525289 -1.862483,2.262916 -0.671763,0.73762 -1.783466,1.9547 -2.472353,2.70682 -0.688885,0.75078 -1.438376,1.7176 -1.668883,2.14963 -0.229176,0.43072 -0.516321,1.16834 -0.63882,1.6399 -0.160697,0.61512 -0.20548,1.17097 -0.159379,1.97577 0.03818,0.652 0.18704,1.47655 0.358273,1.97578 0.160697,0.47155 0.47549,1.12224 0.699411,1.44889 0.223934,0.32667 0.914138,1.19074 1.533215,1.92177 0.620392,0.73104 1.330353,1.70839 1.577985,2.17336 0.248933,0.46496 0.650686,1.46734 0.894366,2.22734 0.272656,0.85223 0.655957,1.70707 0.997107,2.22606 0.305574,0.46495 0.882512,1.13803 1.280302,1.49764 0.397789,0.35958 1.198623,0.93519 1.778197,1.2803 0.579561,0.34643 1.973139,1.07349 3.095377,1.61882 1.122241,0.54399 2.426252,1.2421 2.897804,1.549 0.471537,0.30822 1.232882,0.92203 1.693897,1.36462 0.459682,0.44124 1.318485,1.42517 1.908583,2.18649 0.588794,0.76134 1.475258,1.91651 1.969204,2.56852 0.495247,0.65201 1.799267,2.22209 2.900438,3.4879 1.099842,1.26713 2.384092,2.71866 2.855645,3.22841 0.471553,0.50843 1.306652,1.42784 1.855898,2.04295 0.550586,0.61645 1.123563,1.26846 1.273714,1.44892 0.150161,0.18176 1.10117,1.30662 2.112762,2.50264 1.011588,1.196 2.310328,2.61855 2.885934,3.16125 0.575605,0.54398 1.219696,1.12617 1.431768,1.29477 0.21074,0.16992 0.858804,0.62172 1.438354,1.00633 0.57955,0.3833 1.558229,0.90491 2.173353,1.15912 0.615114,0.2529 1.593794,0.56508 2.173344,0.69152 0.843,0.18441 1.43704,0.21734 2.96366,0.16071 1.38568,-0.0501 2.17203,-0.14489 2.86487,-0.34643 0.52555,-0.15279 1.32508,-0.44521 1.7782,-0.64937 0.4531,-0.20417 1.23814,-0.64542 1.74526,-0.97999 0.5071,-0.33456 1.45548,-1.10643 2.10749,-1.71497 0.652,-0.60854 1.51872,-1.51607 1.92704,-2.0166 0.40832,-0.50054 1.15517,-1.53189 1.65965,-2.29321 0.50579,-0.76133 1.26712,-2.03506 1.6939,-2.83194 0.42545,-0.79691 1.19731,-2.33801 1.71365,-3.42468 0.51634,-1.08668 1.16307,-2.50923 1.43573,-3.16124 0.27397,-0.65201 0.71787,-1.74922 0.9892,-2.43679 0.27135,-0.68757 0.82061,-2.25897 1.22104,-3.49054 0.40041,-1.23157 0.97601,-3.09933 1.27897,-4.14913 0.30428,-1.04979 0.897,-3.33246 1.31851,-5.07115 0.4215,-1.73867 1.00632,-4.43495 1.29741,-5.99318 0.29243,-1.55822 0.70865,-3.95813 0.926,-5.33459 0.21732,-1.37645 0.45573,-2.94654 0.53083,-3.49052 0.0737,-0.5427 0.19492,-1.66888 0.26737,-2.50265 0.0724,-0.83378 0.16728,-2.22606 0.21207,-3.09539 0.0435,-0.869342 0.0185,-2.085105 -0.0554,-2.700235 -0.0737,-0.615121 -0.17122,-1.475242 -0.21602,-1.909907 l -0.0816,-0.790314 c 0.53478,0.612489 1.01029,1.442315 1.40148,2.239212 0.39252,0.796898 0.86013,1.894109 1.04058,2.43679 0.18045,0.543994 0.43468,1.595104 0.56506,2.338004 l 0.2371,1.35143 c 1.83747,1.33826 3.11251,2.22077 4.0174,2.82404 0.90623,0.60458 2.19443,1.40016 2.86488,1.7703 0.67045,0.37012 1.85591,0.97603 2.63436,1.34483 0.77846,0.37014 2.12726,0.95628 2.9966,1.3027 0.86934,0.34774 2.23262,0.84037 3.02953,1.0959 0.79689,0.25421 2.24974,0.67307 3.22709,0.92862 0.97735,0.25552 2.16282,0.53213 2.63436,0.61512 0.47155,0.0817 1.56745,0.23314 2.43679,0.33457 0.86933,0.10272 2.67784,0.18571 4.01741,0.18571 1.33957,0 2.97025,-0.0606 3.62224,-0.13435 0.65201,-0.0751 1.7782,-0.25553 2.50266,-0.40042 0.72445,-0.14621 2.02846,-0.47419 2.8978,-0.72841 0.86934,-0.25421 2.05481,-0.69019 2.63436,-0.96681 0.60458,-0.29108 1.13015,-0.63751 1.23157,-0.81534 0.0988,-0.17123 0.17386,-0.51896 0.16728,-0.77186 -0.006,-0.26477 -0.11986,-0.57297 -0.26607,-0.72446 -0.14094,-0.14489 -0.60064,-0.42412 -1.02345,-0.62169 -0.42282,-0.19759 -1.53847,-0.65992 -2.48026,-1.02741 -0.94178,-0.36881 -2.83852,-1.22367 -4.21497,-1.9007 -1.37646,-0.67704 -3.09539,-1.56745 -3.81984,-1.98104 -0.72446,-0.41228 -1.90992,-1.10907 -2.63436,-1.54769 -0.72445,-0.43863 -2.11672,-1.30797 -3.09407,-1.931 -0.97603,-0.623029 -3.83564,-2.496065 -6.35409,-4.162299 -2.51846,-1.666236 -5.12779,-3.382527 -5.79824,-3.814562 -0.67045,-0.430721 -2.49211,-1.628034 -4.05033,-2.659389 -1.55822,-1.031353 -3.04006,-2.05086 -3.29295,-2.265556 -0.2529,-0.213385 -0.43204,-0.422818 -0.39516,-0.463649 0.0369,-0.04088 0.80743,0.07108 1.71234,0.247632 1.11828,0.218648 2.11145,0.322704 3.09537,0.326657 0.95365,0.0027 1.69654,-0.06847 2.17335,-0.208113 0.3991,-0.115912 0.93257,-0.33588 1.18547,-0.488673 0.2529,-0.15148 0.65332,-0.428089 0.8891,-0.612488 0.23577,-0.184409 0.42808,-0.380665 0.42808,-0.434674 0,-0.05398 -0.51897,-0.385936 -1.15253,-0.737626 -0.63357,-0.350367 -1.80454,-0.983929 -2.60144,-1.405434 -0.79689,-0.422809 -1.89279,-1.049794 -2.43678,-1.39489 -0.54269,-0.345106 -1.90597,-1.205227 -3.02952,-1.911237 -1.12356,-0.706009 -2.81219,-1.654378 -3.75398,-2.107491 -0.94178,-0.453114 -2.18652,-1.00501 -2.76608,-1.22893 -0.57957,-0.222601 -1.76502,-0.580874 -2.63436,-0.795569 -0.86935,-0.214705 -2.08511,-0.451802 -2.70023,-0.525562 -0.61514,-0.0738 -1.89015,-0.126448 -2.83194,-0.117224 -0.94178,0.01059 -1.85987,0.03952 -2.04164,0.06584 z M 87.712885,117.31355 c -0.190984,0.70207 -0.434664,1.80849 -0.542672,2.4605 -0.106697,0.652 -0.233145,1.65965 -0.280561,2.23922 -0.04739,0.57955 -0.01845,1.88357 0.06321,2.8978 0.08302,1.01423 0.231825,2.22999 0.331928,2.70023 0.100102,0.47155 0.341153,1.36064 0.536099,1.97577 0.194935,0.61644 0.571639,1.59379 0.839031,2.17335 0.266064,0.57956 0.771865,1.49894 1.122235,2.04162 0.349056,0.54401 0.846953,1.25529 1.103806,1.58063 0.256842,0.32534 0.796893,0.93389 1.199946,1.35144 0.403053,0.41754 0.777134,0.75868 0.831131,0.75737 0.05404,-0.002 -0.171225,-0.60853 -0.501834,-1.35142 -0.330615,-0.74291 -0.977351,-2.38675 -1.435728,-3.65518 -0.459697,-1.26713 -0.958914,-2.74897 -1.109065,-3.29297 -0.150161,-0.54268 -0.450482,-1.848 -0.665178,-2.8978 -0.216025,-1.04979 -0.487361,-2.65017 -0.601953,-3.5564 -0.115912,-0.9049 -0.235777,-2.7595 -0.267393,-4.12146 -0.03156,-1.36065 -0.106688,-2.49739 -0.16727,-2.52504 -0.05924,-0.0289 -0.264753,0.5216 -0.455746,1.22234 z"
       style="fill:#333333;stroke-width:0.131718" />
    <path
       id="Path 6-1-2-1-6-8-1"
       class="s2"
       d="m 159.4018,85.345527 c -0.3991,0.142258 -0.91675,0.375402 -1.15253,0.517658 -0.23577,0.140936 -0.52291,0.449161 -0.63751,0.684939 -0.191,0.387248 -0.191,0.478136 -0.008,0.954952 0.11065,0.289785 0.42808,0.750793 0.70338,1.024771 0.28582,0.283192 0.72841,0.55848 1.02871,0.638833 0.28979,0.07642 0.97209,0.217336 1.51476,0.312167 0.54401,0.09484 1.25528,0.242362 1.58062,0.329297 0.32536,0.08565 1.27372,0.478137 2.1075,0.871979 0.83378,0.392521 1.52924,0.712592 1.54768,0.711273 0.0185,-9.05e-4 0.0329,-0.417545 0.0329,-0.924658 0,-0.507113 -0.0948,-1.203907 -0.21206,-1.547691 -0.11592,-0.343785 -0.36882,-0.944418 -0.55981,-1.335619 -0.19363,-0.395161 -0.66781,-1.008961 -1.07219,-1.386993 -0.44784,-0.418866 -0.97603,-0.763971 -1.38304,-0.904906 -0.42677,-0.148841 -1.02872,-0.223921 -1.71234,-0.217338 -0.69152,0.0082 -1.30269,0.100103 -1.7782,0.271336 z M 59.866318,97.645386 c 0,0.507113 0.02371,0.684938 0.05269,0.395152 0.02767,-0.289775 0.02767,-0.704689 -0.0012,-0.922025 -0.02897,-0.217337 -0.05269,0.01981 -0.05138,0.526873 z m 70.079342,1.712339 c 0,0.724455 0.0225,0.990525 0.0488,0.59273 0.0264,-0.397793 0.0264,-0.990523 -0.002,-1.317178 -0.0264,-0.326666 -0.0488,0 -0.0474,0.724448 z"
       style="fill:#d82624;stroke-width:0.131718" />
    <path
       id="Path 7-8-8-0-6-1-7"
       class="s0"
       d="m 114.35021,84.111335 -0.85222,0.889097 c 1.38041,-1.327723 1.77952,-1.726828 1.77952,-1.745268 -0.002,-0.01845 -0.0185,-0.03291 -0.0382,-0.03291 -0.0198,0 -0.42018,0.400424 -0.8891,0.889098 z M 88.322734,117.93 c 9.04e-4,0.79689 0.02243,1.09326 0.04875,0.65859 0.02632,-0.43468 0.02632,-1.08667 0,-1.4489 -0.02768,-0.36223 -0.04875,-0.006 -0.04875,0.79031 z"
       style="fill:#161616;stroke-width:0.131718" />
    <path
       id="Path 8-7-9-6-4-0-5"
       class="s2"
       d="m 120.54491,79.081012 c 0.10934,0.02505 0.62699,0.06185 1.15255,0.08429 0.52423,0.02107 0.95495,-0.0054 0.95495,-0.05924 0,-0.05398 -0.51897,-0.0922 -1.15254,-0.08302 -0.63356,0.0082 -1.06429,0.03427 -0.95496,0.05797 z M 93.067214,122.54014 c 0,0.94179 0.02105,1.29742 0.04608,0.7903 0.02503,-0.50712 0.02503,-1.27766 0,-1.71234 -0.02636,-0.43466 -0.04608,-0.0198 -0.04608,0.92204 z"
       style="fill:#d82624;stroke-width:0.131718" />
    <path
       id="Path 9-9-7-3-9-3-9"
       class="s3"
       d="m 118.63501,79.341812 c -0.57957,0.09746 -1.49896,0.334569 -2.04164,0.526873 -0.54399,0.192313 -1.3725,0.561122 -1.84406,0.81929 -0.47155,0.258169 -1.2118,0.740258 -1.64647,1.070866 -0.43467,0.330617 -1.08009,0.899633 -1.43573,1.263179 -0.35432,0.363545 -1.0656,1.224977 -1.58062,1.912546 -0.51371,0.688891 -1.43968,2.037685 -2.0548,2.999232 -0.61645,0.960225 -2.00344,3.094062 -3.08353,4.741858 -1.08008,1.646476 -2.43941,3.764503 -3.0216,4.706289 -0.58088,0.941786 -1.55427,2.572462 -2.162818,3.622255 -0.607217,1.05111 -1.658334,3.03611 -2.335363,4.41256 -0.677029,1.37646 -1.527926,3.3035 -1.892788,4.28084 -0.363537,0.97736 -0.874593,2.51978 -1.135396,3.42467 -0.260807,0.90622 -0.587458,2.29849 -0.727082,3.0954 -0.139624,0.79689 -0.316117,2.07192 -0.391201,2.83193 -0.07509,0.76133 -0.130398,2.27214 -0.123808,3.35882 l 0.01185,1.97579 c 0.468922,-2.14307 0.767918,-3.29956 0.966817,-3.95157 0.198882,-0.652 0.717856,-2.13383 1.151213,-3.29295 0.434653,-1.15913 1.1973,-2.99659 1.697832,-4.08326 0.499214,-1.0867 1.521336,-3.13095 2.270823,-4.54429 0.750791,-1.41201 2.224721,-4.05033 3.277141,-5.86147 1.05242,-1.81112 2.55401,-4.329571 3.33773,-5.598012 0.78241,-1.267131 2.40518,-3.934433 3.60644,-5.927326 1.20128,-1.991581 2.2985,-3.800072 2.43943,-4.017408 0.14093,-0.217337 0.54137,-0.779778 0.89042,-1.251322 0.34906,-0.471554 1.06296,-1.289523 1.58457,-1.820349 0.52292,-0.530824 1.54242,-1.367235 2.26687,-1.859859 0.72445,-0.492633 1.82166,-1.168346 2.43679,-1.501595 0.61512,-0.33324 1.62408,-0.814018 2.23922,-1.068235 l 1.11959,-0.462328 c -2.14437,0.01709 -3.24026,0.101421 -3.81982,0.197576 z M 87.712885,117.31355 c -0.190984,0.70207 -0.434664,1.80849 -0.542672,2.4605 -0.106697,0.652 -0.233145,1.65965 -0.280561,2.23922 -0.04739,0.57955 -0.01845,1.88357 0.06321,2.8978 0.08302,1.01423 0.231825,2.22999 0.331928,2.70023 0.100102,0.47155 0.341153,1.36064 0.536099,1.97577 0.194935,0.61644 0.571639,1.59379 0.839031,2.17335 0.266064,0.57956 0.771865,1.49894 1.122235,2.04162 0.349056,0.54401 0.846953,1.25529 1.103806,1.58063 0.256842,0.32534 0.796893,0.93389 1.199946,1.35144 0.403053,0.41754 0.777134,0.75868 0.831131,0.75737 0.05404,-0.002 -0.171225,-0.60853 -0.501834,-1.35142 -0.330615,-0.74291 -0.977351,-2.38675 -1.435728,-3.65518 -0.459697,-1.26713 -0.958914,-2.74897 -1.109065,-3.29297 -0.150161,-0.54268 -0.450482,-1.848 -0.665178,-2.8978 -0.216025,-1.04979 -0.487361,-2.65017 -0.601953,-3.5564 -0.115912,-0.9049 -0.235777,-2.7595 -0.267393,-4.12146 -0.03156,-1.36065 -0.106688,-2.49739 -0.16727,-2.52504 -0.05924,-0.0289 -0.264753,0.5216 -0.455746,1.22234 z"
       style="fill:#333333;stroke-width:0.131718" />
    <path
       style="font-size:192px;line-height:0.95;font-family:'Saira Stencil One';-inkscape-font-specification:'Saira Stencil One';text-align:center;letter-spacing:-3.89px;white-space:pre;fill:#d82624;stroke-width:0.873071"
       d="m 3264.7729,162.085 q 1.536,-0.192 4.8,-0.192 h 4.992 q 12.864,0 25.152,1.92 6.336,0.96 9.792,1.92 v 27.456 q -2.88,-0.192 -9.6,-0.96 -9.024,-0.96 -15.744,-0.96 -7.488,0 -12.096,0.576 -4.416,0.384 -7.296,1.536 z m 9.792,134.976 q -19.2,0 -30.528,-3.264 -11.136,-3.456 -16.896,-11.328 -5.568,-7.488 -7.68,-19.776 -1.92,-12.48 -1.92,-33.216 0,-18.24 1.344,-29.568 1.536,-11.328 5.376,-19.008 4.032,-7.872 11.712,-12.096 7.872,-4.416 20.736,-5.952 v 66.624 q 0,10.752 0.384,20.736 0.384,7.68 2.88,11.52 2.688,3.84 8.256,4.8 5.376,1.152 15.936,1.152 10.944,0 18.624,-0.96 3.072,-0.192 7.488,-0.96 v 27.84 q -9.408,2.112 -21.312,2.88 -6.528,0.576 -14.4,0.576 z m 81.5501,-133.632 h 3.264 l 15.168,52.608 -22.08,79.488 h -38.4 z m 43.2,108.672 h -32.064 l 8.064,-29.568 h 15.36 l -22.656,-79.104 h 35.136 l 42.048,132.096 h -39.168 z m 54.8621,-108.672 h 38.4 v 132.096 h -38.4 z m 54.144,87.168 h -7.68 v -29.376 h 6.528 q 5.952,0 9.024,-0.384 3.072,-0.576 4.8,-1.92 1.536,-1.344 2.112,-4.032 0.576,-2.688 0.576,-7.872 0,-5.184 -0.576,-7.872 -0.576,-2.88 -2.112,-4.224 -1.536,-1.344 -4.608,-1.728 -2.88,-0.384 -9.216,-0.384 h -6.528 v -29.376 h 19.776 q 13.632,0 22.08,2.688 8.448,2.688 13.056,8.256 4.224,5.184 5.568,12.864 1.536,7.68 1.536,19.776 0,15.552 -2.88,24 -4.032,10.752 -14.208,15.168 l 19.968,49.344 h -40.32 z m 71.3739,-87.168 h 38.4 v 132.096 h -38.4 z m 46.464,102.72 h 7.872 q 5.376,0 8.064,-0.192 2.88,-0.384 4.224,-1.536 1.344,-1.152 1.728,-3.264 0.576,-2.112 0.576,-6.144 0,-4.224 -0.576,-6.336 -0.384,-2.112 -1.728,-3.264 -2.304,-1.92 -12.288,-1.92 h -7.872 v -29.376 h 6.72 q 5.376,0 8.064,-0.192 2.88,-0.384 4.224,-1.536 1.344,-1.152 1.728,-3.072 0.576,-2.112 0.576,-5.76 0,-3.84 -0.576,-5.76 -0.384,-2.112 -1.728,-3.264 -1.344,-1.152 -4.224,-1.344 -2.688,-0.384 -8.064,-0.384 h -6.72 v -29.376 h 21.888 q 38.592,0 38.592,33.216 0,14.016 -5.568,21.12 -5.376,7.104 -17.28,9.984 v 0.768 q 12.48,2.88 17.856,9.024 6.144,7.296 6.144,22.656 0,17.664 -9.408,26.496 -9.408,8.832 -30.144,8.832 h -22.08 z m 151.6301,-36.672 q 0,-16.704 -0.192,-21.888 -0.384,-7.872 -2.112,-11.328 -1.728,-3.648 -5.568,-4.416 -3.84,-0.576 -10.944,-0.576 -8.256,0 -10.752,0.768 v -29.952 q 1.728,-0.192 5.184,-0.192 h 5.568 q 21.504,0 33.216,3.456 11.904,3.264 17.28,10.944 4.992,7.104 6.144,18.624 1.344,11.52 1.344,34.56 0,20.16 -0.96,31.104 -0.768,10.752 -4.224,17.856 -3.84,8.064 -11.904,12.288 -7.872,4.224 -22.08,5.568 z m -18.816,67.584 q -28.032,0 -40.32,-6.144 -6.336,-3.072 -9.984,-8.256 -3.648,-5.184 -5.376,-12.864 -1.536,-6.72 -1.92,-15.36 -0.384,-8.832 -0.384,-24.96 0,-20.16 0.768,-30.912 0.96,-10.752 4.416,-18.048 3.84,-7.872 11.712,-12.096 7.872,-4.224 22.272,-5.76 v 66.816 q 0,11.328 0.384,21.696 0.384,7.872 1.92,11.52 1.728,3.648 5.568,4.224 3.264,0.768 10.944,0.768 7.872,0 10.752,-0.576 v 29.76 q -1.728,0.192 -5.184,0.192 z m 75.5979,-128.256 v -5.376 h 38.4 l 74.112,126.528 v 5.568 h -38.208 z m 76.032,42.816 v -48.192 h 36.48 v 110.592 z m -76.032,-26.88 36.48,62.4 v 48.384 h -36.48 z m 258.14,5.376 q -9.984,-0.384 -15.552,-0.384 -13.632,0 -20.352,1.152 v -28.416 q 6.528,-0.576 14.4,-0.576 17.664,0 33.216,2.304 7.872,0.96 14.976,2.304 v 25.92 z m -21.312,106.944 q -37.056,0 -50.112,-9.792 -6.144,-4.416 -8.448,-10.944 -2.112,-6.528 -2.112,-16.128 0,-15.36 6.144,-22.656 5.376,-6.144 17.856,-9.024 v -0.768 q -11.904,-2.88 -17.472,-9.984 -5.376,-7.104 -5.376,-21.12 0,-14.976 7.488,-22.464 8.256,-8.64 29.376,-11.136 v 39.744 q 0,4.224 0.576,6.72 0.576,2.304 1.92,3.648 1.344,1.152 4.032,1.728 2.688,0.384 7.488,0.384 h 9.792 v 27.072 h -9.792 q -5.184,0 -8.064,0.384 -2.688,0.384 -4.224,1.728 -1.728,1.344 -2.304,4.032 -0.576,2.496 -0.576,7.296 0,4.608 0.96,7.104 0.96,2.496 3.456,3.84 2.496,1.344 6.912,1.92 4.608,0.576 12.48,0.576 h 5.184 v 27.84 z m 13.248,-81.792 h 55.104 v 27.072 h -19.584 v 50.112 q -8.832,1.92 -21.888,3.072 -6.336,0.768 -13.632,1.152 z m 157.3401,-53.184 q 1.536,-0.192 4.8,-0.192 h 4.992 q 12.864,0 25.152,1.92 6.336,0.96 9.792,1.92 v 27.456 q -2.88,-0.192 -9.6,-0.96 -9.024,-0.96 -15.744,-0.96 -7.488,0 -12.096,0.576 -4.416,0.384 -7.296,1.536 z m 9.792,134.976 q -19.2,0 -30.528,-3.264 -11.136,-3.456 -16.896,-11.328 -5.568,-7.488 -7.68,-19.776 -1.92,-12.48 -1.92,-33.216 0,-18.24 1.344,-29.568 1.536,-11.328 5.376,-19.008 4.032,-7.872 11.712,-12.096 7.872,-4.416 20.736,-5.952 v 66.624 q 0,10.752 0.384,20.736 0.384,7.68 2.88,11.52 2.688,3.84 8.256,4.8 5.376,1.152 15.936,1.152 10.944,0 18.624,-0.96 3.072,-0.192 7.488,-0.96 v 27.84 q -9.408,2.112 -21.312,2.88 -6.528,0.576 -14.4,0.576 z m 51.5981,-133.632 h 38.4 v 132.096 h -38.4 z m 46.464,0 h 48.768 v 29.376 h -48.768 z m 0,50.688 h 39.744 v 29.376 h -39.744 z m 0,52.032 h 48.768 v 29.376 h -48.768 z m 67.9179,-102.72 h 38.4 v 132.096 h -38.4 z m 54.144,87.168 h -7.68 v -29.376 h 6.528 q 5.952,0 9.024,-0.384 3.072,-0.576 4.8,-1.92 1.536,-1.344 2.112,-4.032 0.576,-2.688 0.576,-7.872 0,-5.184 -0.576,-7.872 -0.576,-2.88 -2.112,-4.224 -1.536,-1.344 -4.608,-1.728 -2.88,-0.384 -9.216,-0.384 h -6.528 v -29.376 h 19.776 q 13.632,0 22.08,2.688 8.448,2.688 13.056,8.256 4.224,5.184 5.568,12.864 1.536,7.68 1.536,19.776 0,15.552 -2.88,24 -4.032,10.752 -14.208,15.168 l 19.968,49.344 h -40.32 z m 71.3739,-87.168 h 38.4 v 132.096 h -38.4 z m 46.464,102.72 h 1.536 q 9.408,0 13.248,-0.768 4.032,-0.96 5.952,-4.224 2.112,-3.456 2.304,-10.944 0.384,-9.6 0.384,-20.736 0,-10.944 -0.384,-20.928 -0.384,-7.488 -2.496,-10.944 -1.92,-3.456 -6.336,-4.224 -4.416,-0.576 -12.672,-0.576 h -1.536 v -29.376 h 1.536 q 15.36,0 25.536,1.344 10.368,1.344 17.088,4.224 6.528,2.88 10.368,7.872 3.84,4.992 5.568,12.48 1.536,6.72 1.92,15.936 0.576,9.024 0.576,24.192 0,15.36 -0.576,24.384 -0.384,9.024 -1.92,15.744 -1.728,7.488 -5.568,12.48 -3.84,4.992 -10.368,7.872 -6.72,2.88 -17.088,4.224 -10.176,1.344 -25.536,1.344 h -1.536 z m 153.5502,-36.672 q 0,-16.704 -0.192,-21.888 -0.384,-7.872 -2.112,-11.328 -1.728,-3.648 -5.568,-4.416 -3.84,-0.576 -10.944,-0.576 -8.256,0 -10.752,0.768 v -29.952 q 1.728,-0.192 5.184,-0.192 h 5.568 q 21.504,0 33.216,3.456 11.904,3.264 17.28,10.944 4.992,7.104 6.144,18.624 1.344,11.52 1.344,34.56 0,20.16 -0.96,31.104 -0.768,10.752 -4.224,17.856 -3.84,8.064 -11.904,12.288 -7.872,4.224 -22.08,5.568 z m -18.816,67.584 q -28.032,0 -40.32,-6.144 -6.336,-3.072 -9.984,-8.256 -3.648,-5.184 -5.376,-12.864 -1.536,-6.72 -1.92,-15.36 -0.384,-8.832 -0.384,-24.96 0,-20.16 0.768,-30.912 0.96,-10.752 4.416,-18.048 3.84,-7.872 11.712,-12.096 7.872,-4.224 22.272,-5.76 v 66.816 q 0,11.328 0.384,21.696 0.384,7.872 1.92,11.52 1.728,3.648 5.568,4.224 3.264,0.768 10.944,0.768 7.872,0 10.752,-0.576 v 29.76 q -1.728,0.192 -5.184,0.192 z"
       id="text7"
       transform="matrix(0.13171826,0,0,0.13171826,-421.64101,184.64787)"
       aria-label="CARBON &amp; CERDO" />
    <path
       style="font-size:384px;line-height:0.95;font-family:'Saira Stencil One';-inkscape-font-specification:'Saira Stencil One';text-align:center;letter-spacing:-3.89px;white-space:pre;fill:#fbbf0c;stroke-width:0.873071"
       d="m 3445.5149,166.858 h 6.528 l 30.336,105.216 -44.16,158.976 h -76.8 z m 86.4,217.344 h -64.128 l 16.128,-59.136 h 30.72 l -45.312,-158.208 h 70.272 l 84.096,264.192 h -78.336 z M 3645.529,166.858 h 76.8 V 431.05 h -76.8 z m 92.928,202.368 h 82.176 v 61.824 h -82.176 z m 170.8302,-202.368 h 6.528 l 30.336,105.216 -44.16,158.976 h -76.8 z m 86.4,217.344 h -64.128 l 16.128,-59.136 h 30.72 l -45.312,-158.208 h 70.272 l 84.096,264.192 h -78.336 z M 4291.3173,227.53 q -12.672,-1.536 -44.544,-4.224 -17.664,-0.768 -28.416,-0.768 -13.824,0 -26.112,0.768 v -59.52 h 9.6 q 31.488,0 65.28,4.224 10.752,1.536 24.192,4.224 z m -63.36,125.568 q 0,-8.064 -1.152,-11.52 -1.152,-3.84 -3.84,-4.992 -2.688,-1.536 -9.216,-2.304 l -47.232,-5.76 q -41.856,-4.608 -56.448,-27.264 -6.528,-9.6 -8.832,-23.424 -2.304,-13.824 -2.304,-33.792 0,-42.624 21.888,-61.44 17.664,-15.36 55.296,-18.048 v 77.184 q 0,4.992 0.384,8.448 0.384,3.456 1.536,5.376 1.152,2.304 3.84,3.456 2.688,0.768 8.064,1.152 l 52.992,6.528 q 16.512,2.304 26.88,5.76 10.368,3.456 17.664,10.752 17.28,18.048 17.28,64.128 0,48.768 -21.504,68.352 -9.6,8.832 -23.424,13.056 -13.44,3.84 -31.872,4.992 z m -20.352,81.024 q -38.4,0 -71.424,-3.456 -19.584,-1.92 -29.568,-3.84 v -56.064 q 22.656,1.92 51.84,3.84 18.432,0.768 26.112,0.768 20.736,0 27.264,-1.152 v 59.904 z"
       id="text8"
       transform="matrix(0.14244654,0,0,0.14244654,-440.68968,139.80945)"
       aria-label="ALAS" />
  </g>
</svg>
